<?xml version="1.0" encoding="utf-8"?>
<!-- Generator: Adobe Illustrator 24.3.0, SVG Export Plug-In . SVG Version: 6.00 Build 0)  -->
<svg version="1.1" xmlns="http://www.w3.org/2000/svg" xmlns:xlink="http://www.w3.org/1999/xlink" x="0px" y="0px"
	 viewBox="0 0 720 720" style="enable-background:new 0 0 720 720;" xml:space="preserve">
<style type="text/css">
	.st0{fill:#243037;}
	.st1{fill:#095056;}
	.st2{fill:#F15D22;}
	.st3{fill:#D3DDDE;}
	.st4{fill:url(#SVGID_1_);}
	.st5{fill:none;stroke:#000000;stroke-miterlimit:10;}
	.st6{fill:#01814D;}
	.st7{fill:none;}
	.st8{fill:#194B91;}
	.st9{clip-path:url(#SVGID_6_);}
	.st10{clip-path:url(#SVGID_7_);}
	.st11{clip-path:url(#SVGID_8_);}
	.st12{clip-path:url(#SVGID_14_);}
	.st13{clip-path:url(#SVGID_15_);}
	.st14{clip-path:url(#SVGID_16_);}
</style>
<g id="Layer_1">
</g>
<g id="Logo">
</g>
<g id="Layer_2">
	<path class="st8" d="M511.26,456.94v4.12c0.05,2.88,0.08,5.51,0.08,7.92v-2.53C511.33,463.59,511.31,460.43,511.26,456.94z"/>
	<path class="st8" d="M511.41,463.53c0,1.24,0,2.63,0.03,4.22c-0.2-1.52-0.33-3.09-0.33-4.71c0-1.67,0.13-3.31,0.38-4.88
		C511.44,460.22,511.41,462.01,511.41,463.53z"/>
	<path class="st8" d="M511.26,456.94v4.12c0.05,2.88,0.08,5.51,0.08,7.92v-2.53C511.33,463.59,511.31,460.43,511.26,456.94z"/>
	<rect x="0" class="st0" width="720" height="720"/>
	<g>
		<defs>
			<path id="SVGID_10_" d="M271.72,457.68c7.31-44.2,14.37-86.83,21.74-131.4c-15.15,0-29.01,0-42.87,0
				c-24.24,0.01-24.38-0.01-28.42,23.82c-6.02,35.45-11.84,70.93-17.84,106.99c-21.46,0-42.29,0-64.39,0
				c3.55-21.4,7.01-42.27,10.48-63.13c6.25-37.59,12.47-75.18,18.79-112.75c2.37-14.06,8.44-19.28,22.75-19.3
				c52.49-0.06,104.97-0.04,157.46,0.06c14.07,0.02,18.46,5.13,16.19,18.87c-7.68,46.56-15.34,93.12-23.3,139.63
				c-4.47,26.11-18.01,37.12-44.7,37.21C289.63,457.7,281.64,457.68,271.72,457.68z"/>
		</defs>
		<defs>
			<path id="SVGID_11_" d="M403.23,262.07c21.14,0,41.04,0,60.94,0c38.82,0.01,77.64-0.02,116.46,0.06
				c13.31,0.02,17.81,5.37,15.65,18.28c-8.01,47.89-15.96,95.79-24.08,143.66c-3.5,20.63-18.24,33.11-39.24,33.5
				c-9.7,0.18-19.41,0.03-30.37,0.03c7.3-44.08,14.4-86.95,21.79-131.54c-21.77,0-42.26-0.23-62.72,0.36
				c-2.05,0.06-5.21,4.87-5.74,7.85c-6.32,35.76-12.25,71.6-18.28,107.41c-0.81,4.81-1.68,9.61-2.67,15.2c-21.27,0-42.37,0-64.24,0
				C381.55,391.99,392.28,327.66,403.23,262.07z"/>
		</defs>
		<defs>
			<path id="SVGID_12_" d="M123.21,556.31c3.7-21.85,7.14-42.1,10.68-63c21.59,0,42.67,0,64.46,0c-2.78,16.41-5.34,31.89-8.05,47.35
				c-1.47,8.42-6.38,14.95-14.85,15.39C158.48,556.94,141.42,556.31,123.21,556.31z"/>
		</defs>
		<defs>
			<path id="SVGID_13_" d="M409.29,226.79c3.58-21.84,6.91-42.09,10.37-63.18c17.56,0,34.6-0.39,51.62,0.18
				c7.71,0.26,10.99,6.44,10.14,13.35c-1.79,14.55-4.2,29.04-7.17,43.4c-0.52,2.5-4.93,5.91-7.62,5.99
				C448.15,227.04,429.66,226.79,409.29,226.79z"/>
		</defs>
		<use xlink:href="#SVGID_10_"  style="overflow:visible;fill:#F15D22;"/>
		<use xlink:href="#SVGID_11_"  style="overflow:visible;fill:#F15D22;"/>
		<use xlink:href="#SVGID_12_"  style="overflow:visible;fill:#F15D22;"/>
		<use xlink:href="#SVGID_13_"  style="overflow:visible;fill:#F15D22;"/>
		<clipPath id="SVGID_1_">
			<use xlink:href="#SVGID_10_"  style="overflow:visible;"/>
		</clipPath>
		<clipPath id="SVGID_6_" style="clip-path:url(#SVGID_1_);">
			<use xlink:href="#SVGID_11_"  style="overflow:visible;"/>
		</clipPath>
		<clipPath id="SVGID_7_" class="st9">
			<use xlink:href="#SVGID_12_"  style="overflow:visible;"/>
		</clipPath>
		<clipPath id="SVGID_8_" class="st10">
			<use xlink:href="#SVGID_13_"  style="overflow:visible;"/>
		</clipPath>
	</g>
</g>
</svg>
