<?xml version="1.0" encoding="utf-8"?>
<!-- Generator: Adobe Illustrator 24.3.0, SVG Export Plug-In . SVG Version: 6.00 Build 0)  -->
<svg version="1.1" xmlns="http://www.w3.org/2000/svg" xmlns:xlink="http://www.w3.org/1999/xlink" x="0px" y="0px"
	 viewBox="0 0 720 720" style="enable-background:new 0 0 720 720;" xml:space="preserve">
<style type="text/css">
	.st0{fill:none;}
	.st1{fill:#095056;}
	.st2{fill:#F15D22;}
	.st3{fill:#D3DDDE;}
	.st4{fill:url(#SVGID_1_);}
	.st5{fill:none;stroke:#000000;stroke-miterlimit:10;}
	.st6{fill:#01814D;}
	.st7{fill:none;}
	.st8{fill:#194B91;}
	.st9{clip-path:url(#SVGID_6_);}
	.st10{clip-path:url(#SVGID_7_);}
	.st11{clip-path:url(#SVGID_8_);}
	.st12{clip-path:url(#SVGID_14_);}
	.st13{clip-path:url(#SVGID_15_);}
	.st14{clip-path:url(#SVGID_16_);}
</style>
<g id="Layer_1">
</g>
<g id="Logo">
</g>
<g id="Layer_2">
	<rect x="0" y="0" class="st0" width="720" height="720"/>
	<g>
		<path class="st2" d="M172.07,344.22c0,13.55-3.66,24.38-10.98,32.51c-7.55,8.36-18.02,12.54-31.39,12.54
			c-3.29,0-8.26-0.13-14.92-0.39c-6.66-0.26-11.66-0.39-15-0.39c-1.85,0-2.77,1.18-2.77,3.55c0,3.06,0.19,7.64,0.56,13.75
			c0.37,6.11,0.56,10.69,0.56,13.75c0,0.98-0.55,1.47-1.64,1.47c-1.21,0-3.04-0.13-5.49-0.39c-2.45-0.26-4.28-0.39-5.49-0.39
			c-1.04,0-2.57,0.09-4.58,0.26c-2.02,0.17-3.52,0.26-4.5,0.26c-1.44,0-2.16-0.89-2.16-2.68c0-6.28,0.27-15.77,0.82-28.45
			c0.55-12.68,0.82-22.19,0.82-28.53c0-17.99-0.66-37.3-1.99-57.93l-0.09-1.3c-0.06-1.27,0.69-1.9,2.25-1.9
			c3.11,0,7.8,0.03,14.05,0.09c6.25,0.06,10.97,0.09,14.14,0.09c2.71,0,6.77-0.11,12.19-0.35c5.42-0.23,9.48-0.35,12.19-0.35
			c12.74,0,23.2,4.32,31.39,12.97C168.06,320.88,172.07,331.48,172.07,344.22z M150.28,345.52c0-8.65-2.33-15.56-7-20.75
			c-4.84-5.42-11.53-8.13-20.06-8.13c-2.65,0-7.38,0.23-14.18,0.69c-7.78,0.46-11.79,0.92-12.02,1.38
			c-0.4,0.69-0.61,10.61-0.61,29.75c0,2.42,0.07,6.05,0.22,10.9c0.14,4.84,0.22,8.47,0.22,10.9c0,0.52,0.63,0.92,1.9,1.21
			c3.17,0.63,11.96,0.95,26.37,0.95c8.07,0,14.35-2.51,18.85-7.52C148.17,360.1,150.28,353.65,150.28,345.52z"/>
		<path class="st2" d="M257.67,374.31c0,4.27-1.85,7.12-5.53,8.56c-2.48,0.92-20.32,2.62-53.52,5.1c0.75,5.07,3.55,9.4,8.39,12.97
			c4.61,3.4,9.57,5.1,14.87,5.1c9.11,0,17.47-2.94,25.08-8.82c0.92-0.75,1.84-1.5,2.77-2.25c0.46,0,0.76,0.06,0.91,0.17
			c0.14,0.12,1.22,2.12,3.24,6.01c2.02,3.89,3.03,5.98,3.03,6.27c0,0.35-0.46,1.01-1.38,1.99c-8.47,8.99-19.34,13.49-32.6,13.49
			c-13.37,0-24.04-3.99-31.99-11.98c-7.96-7.98-11.93-18.63-11.93-31.95c0-11.87,3.8-22.22,11.41-31.04
			c8.01-9.17,17.84-13.75,29.49-13.75c10.84,0,19.89,3.98,27.15,11.93C254.12,353.85,257.67,363.25,257.67,374.31z M237.09,369.04
			c0-4.78-1.89-9.02-5.66-12.71c-3.78-3.69-8.03-5.53-12.75-5.53c-5.3,0-10.02,2.13-14.14,6.4c-4.12,4.27-6.18,9.05-6.18,14.35
			c0,1.21,1.04,1.82,3.11,1.82c8.53,0,18.73-0.86,30.61-2.59C235.42,370.31,237.09,369.73,237.09,369.04z"/>
		<path class="st2" d="M343.01,374.31c0,4.27-1.85,7.12-5.53,8.56c-2.48,0.92-20.32,2.62-53.52,5.1c0.75,5.07,3.55,9.4,8.39,12.97
			c4.61,3.4,9.57,5.1,14.87,5.1c9.11,0,17.47-2.94,25.08-8.82c0.92-0.75,1.84-1.5,2.77-2.25c0.46,0,0.76,0.06,0.91,0.17
			c0.14,0.12,1.22,2.12,3.24,6.01c2.02,3.89,3.03,5.98,3.03,6.27c0,0.35-0.46,1.01-1.38,1.99c-8.47,8.99-19.34,13.49-32.6,13.49
			c-13.37,0-24.04-3.99-31.99-11.98c-7.96-7.98-11.93-18.63-11.93-31.95c0-11.87,3.8-22.22,11.41-31.04
			c8.01-9.17,17.84-13.75,29.49-13.75c10.84,0,19.89,3.98,27.15,11.93C339.47,353.85,343.01,363.25,343.01,374.31z M322.43,369.04
			c0-4.78-1.89-9.02-5.66-12.71c-3.78-3.69-8.03-5.53-12.75-5.53c-5.3,0-10.02,2.13-14.14,6.4c-4.12,4.27-6.18,9.05-6.18,14.35
			c0,1.21,1.04,1.82,3.11,1.82c8.53,0,18.73-0.86,30.61-2.59C320.76,370.31,322.43,369.73,322.43,369.04z"/>
		<path class="st2" d="M397.84,337.75c-3.52,0-6.4,0.33-8.65,1.04c-2.71,0.73-5.36,1.9-7.94,3.44c-2.38,1.52-4.73,3.01-7.11,4.5
			c-0.18,0.13-0.3,0.18-0.43,0.18c-0.73,0-1.26-1.7-1.54-5.11c-0.3-3.31-0.89-5.01-1.77-5.08c0,0.08-2.91,0.63-8.7,1.72
			c-3.87,0.46-6.86,0.81-8.98,1.04c-0.76,0.28-1.14,0.78-1.14,1.47c0,0.23,0.05,0.58,0.18,1.04c2.66,8.65,3.97,20.09,3.97,34.33
			c0,4.73-0.08,11.79-0.2,21.17c-0.15,9.41-0.23,16.44-0.23,21.1c0,1.44,0.66,2.18,2,2.18c1.77,0,4.5,0.03,8.12,0.08
			c3.64,0.08,6.35,0.1,8.12,0.1c1.34,0,2-0.78,2-2.35c0-3.21-0.13-8.12-0.38-14.7c-0.28-6.55-0.4-11.46-0.4-14.7v-9.51
			c0-7.82,0.61-12.98,1.82-15.46c2.02-4.1,6.65-6.15,13.91-6.15c1.26,0,3.14,0.13,5.59,0.38c2.45,0.28,4.28,0.4,5.49,0.4
			c0.99,0,1.54-0.68,1.72-2c0.86-5.19,1.29-10.95,1.29-17.3C404.57,338.35,402.34,337.75,397.84,337.75z"/>
		<path class="st2" d="M635.79,348.12c-7.39-8.93-17.03-13.41-28.97-13.41c-10.42,0-18.82,3.95-25.17,11.84
			c-0.46,0.61-0.86,0.94-1.26,0.96h-0.03c-0.81,0-1.21-1.09-1.21-3.29c0-1.67,0.05-3.85,0.13-6.48c0.05-2.05,0.15-4.4,0.28-7.06
			c0.25-6.02,0.38-10.52,0.38-13.53c0-2.02,0.15-5.03,0.43-9.08c0.3-4.02,0.43-7.03,0.43-8.98c0-1.34-0.46-2-1.37-2
			c-1.29,0-2.96,0.18-5.03,0.53c-2.48,0.33-4.12,0.53-4.91,0.61c-4.1,0.15-7.18,0.28-9.26,0.33c-1.44,0.18-2.18,0.94-2.25,2.33
			c0.1,0.73,0.35,6.55,0.86,17.48c0.68,15.03,1.09,27.4,1.32,37.11v-3.21c0.05,3.49,0.08,6.65,0.08,9.51v2.53
			c0-2.4-0.03-5.03-0.08-7.92c-0.08,15.84-0.2,25.48-0.4,28.84c-0.18,3.69-2.88,7.51-8.12,11.51c-4.96,3.79-9.26,5.72-12.9,5.72
			c-8.12,0-13.51-2.99-16.14-9.01c-0.13-0.3-0.25-0.61-0.38-0.94c-1.44-3.69-2.15-10.93-2.15-21.66c0-4.43,0.08-8.5,0.25-12.14
			c0.05-2.43,0.48-6.5,1.24-12.24c0,0,0-0.03,0-0.05l0.05-1.57c0.1-3.72,0.23-7.87,0.4-12.52c-0.25-0.18-0.58-0.25-0.99-0.25
			c-1.69,0-4.2-0.03-7.54-0.13c-3.34-0.05-5.84-0.08-7.51-0.08c-1.39,0-2.33,1.19-2.86,3.59c-0.28,1.32-0.56,2.66-0.78,4.05
			c-0.08,0.38-0.13,0.73-0.2,1.09c-0.4,2.45-0.76,5.01-1.04,7.67c-0.3,0.15-0.61,0.28-0.89,0.35c-1.77,0.53-12.02,0.78-30.74,0.78
			c-19.13,0-29.42-0.25-30.89-0.78c-1.21-0.33-1.85-1.32-1.85-2.93c0-4.96,0.23-12.4,0.68-22.34c0.43-9.94,0.66-17.41,0.66-22.36
			c0-1.04-0.68-1.54-2.02-1.54c-1.06,0-2.71,0.08-4.91,0.25c-2.23,0.18-3.87,0.25-4.93,0.25c-1.11,0-2.76-0.08-4.91-0.25
			c-2.18-0.18-3.77-0.25-4.83-0.25c-1.47,0-2.2,0.63-2.2,1.9c0,6.68,0.3,16.72,0.94,30.13c0.61,13.41,0.91,23.45,0.91,30.13
			c0,6.35-0.3,15.86-0.91,28.59c-0.63,12.7-0.94,22.24-0.94,28.56c0,1.34,0.73,2,2.2,2c1.06,0,2.63-0.08,4.71-0.25
			c2.05-0.18,3.62-0.28,4.68-0.28c1.11,0,2.78,0.1,5.01,0.28s3.9,0.25,5.01,0.25c1.47,0,2.2-0.96,2.2-2.86
			c0-5.06-0.15-12.7-0.46-22.92c-0.28-10.2-0.46-17.84-0.46-22.89c0-2.25,0.66-3.57,1.97-3.9c1.8-0.46,11.92-0.71,30.33-0.71
			c18.49,0,28.61,0.25,30.38,0.71c0.25,0.05,0.48,0.15,0.68,0.3c0.03,0.15,0.03,0.33,0.03,0.51c0,4-0.08,9.46-0.23,16.37
			c0.53,8.65,1.67,15,3.39,19.13c3.47,8.3,9.97,13.08,19.56,14.37c1.8,0.28,3.69,0.38,5.69,0.38c9.39,0,18.9-4.45,28.54-13.36
			c0.58-0.56,1.01-0.83,1.29-0.83c0.3,0,0.56,0.81,0.73,2.43c0.13-2.88,0.23-6.1,0.35-9.64c-0.1,3.87-0.2,7.31-0.35,10.37
			c0.13,1.04,0.23,2.45,0.28,4.2c0.13,4.33,0.56,6.48,1.24,6.48c11.23,0,17.1-0.05,17.56-0.15c0.2-0.08,0.38-0.15,0.53-0.23
			c0.1-0.68,0.2-1.52,0.25-2.5c0.15-2.45,0.43-4.05,0.81-4.76c0.13-0.25,0.28-0.38,0.43-0.43c2.33,1.9,4.63,3.82,6.93,5.79
			c5.69,3.79,12.29,5.69,19.81,5.69c11.23,0,20.62-4.48,28.18-13.48c7.08-8.47,10.63-18.42,10.63-29.83
			C646.17,366.81,642.73,356.54,635.79,348.12z M503.43,345.46c0.08-0.35,0.13-0.68,0.23-1.04
			C503.66,344.78,503.61,345.13,503.43,345.46z M620.31,396.44c-4.55,5.62-10.22,8.4-17.03,8.4c-7.03,0-12.85-2.71-17.46-8.12
			c-3.44-4.02-5.57-8.63-6.35-13.81c-0.2-1.52-0.33-3.09-0.33-4.71c0-1.67,0.13-3.31,0.38-4.88c0.81-5.01,2.91-9.49,6.3-13.43
			c4.6-5.49,10.37-8.22,17.28-8.22c6.75,0,12.42,2.81,17.03,8.4c4.33,5.24,6.5,11.28,6.5,18.14
			C626.64,385.18,624.54,391.25,620.31,396.44z"/>
	</g>
</g>
</svg>
