<svg width="504" height="569" viewBox="0 0 504 569" fill="none" xmlns="http://www.w3.org/2000/svg">
<rect x="0.207031" y="0.425293" width="503" height="567.687" rx="20" fill="#E4F5F2"/>
<g clip-path="url(#clip0_281_1084)">
<path d="M407.67 89.3845C407.883 89.3638 408.098 89.3491 408.313 89.3464C408.801 89.3779 409.286 89.4457 409.764 89.5492C410.52 91.2185 409.834 92.6927 409.491 94.7987C421.721 93.9251 433.554 98.5584 446.229 95.4227C447.314 94.1825 446.565 91.6631 448.031 89.6194C448.519 89.404 449.046 89.2928 449.579 89.2928C450.113 89.2928 450.64 89.404 451.128 89.6194C451.448 90.1159 451.637 90.6861 451.675 91.2759C451.713 91.8656 451.6 92.4554 451.346 92.9891C449.685 96.7956 450.543 100.235 452.056 103.878C454.435 109.58 453.156 114.759 448.796 119.12C447.766 120.149 446.549 121.054 446.9 122.7C447.641 126.116 446.619 129.463 445.902 132.622C443.913 141.35 441.44 149.954 436.729 157.777C431.425 166.576 424.974 174.095 415.816 179.079C413.391 180.39 410.793 181.037 407.806 181.895C407.806 185.811 408.063 189.82 407.767 193.798C406.706 208.01 407.541 222.175 408.625 236.332C409.444 246.995 404.335 250.342 396.145 250.599C387.783 250.864 379.429 251.816 371.052 251.652C367.206 251.582 367.206 251.48 366.715 247.588C365.966 241.613 364.577 235.74 364.398 229.648C364.297 226.091 362.846 222.589 358.805 221.27C353.805 219.632 349.141 220.35 345.779 224.484C341.77 229.414 338.712 234.858 339.75 241.707C339.952 242.994 339.219 244.421 338.868 246.028C329.499 247.625 319.939 247.754 310.53 246.41C309.89 246.311 309.244 246.253 308.596 246.239C303.962 246.262 303.65 245.942 303.034 241.527C302.154 235.415 301.646 229.254 301.513 223.08C301.403 221.127 300.877 219.22 299.969 217.487C296.094 217.629 292.215 217.349 288.401 216.653C276.061 214.149 268.815 199.687 271.795 189.719C274.657 180.179 285.164 171.069 297.941 174.633C299.415 175.047 300.881 175.476 302.512 175.936C303.908 173.557 303.44 170.796 303.541 168.471C303.799 162.535 304.774 156.646 304.774 150.702C304.732 149.924 304.76 149.143 304.859 148.37C306.248 140.687 306.326 139.174 315.132 139.252C323.775 139.33 332.308 137.489 340.959 137.161C346.645 136.951 352.347 136.779 358.033 136.218C366.223 135.414 374.46 135.04 382.682 134.556C386.114 134.353 387.681 131.873 389.475 129.502C398.204 117.95 403.196 104.822 406.027 90.774C406.24 89.7216 406.948 88.9158 407.775 89.9605C408.491 90.864 408.425 93.7604 408.619 94.9211C408.634 95.2159 408.754 95.4957 408.956 95.7106C409.162 95.847 409.403 95.9189 409.65 95.9172C416.426 96.53 423.203 97.1429 429.996 97.5207C432.935 97.7517 435.889 97.7359 438.825 97.4734C442.813 97.0241 446.714 95.7458 450.727 95.7789C450.061 94.9424 449.615 93.9525 449.429 92.8995C449.244 91.8464 449.324 90.7636 449.664 89.7497C442.961 89.2762 442.783 89.2077 439.061 89.2762C437.64 89.3024 434.242 89.2762 432.821 89.2762C420.341 89.2762 419.162 89.32 411.508 89.8291C410.203 90.0187 408.872 89.8974 407.623 89.4753" fill="#E4F5F2"/>
<path d="M401.519 479.284C401.768 477.997 401.02 477.115 400.388 476.109C396.441 469.775 392.33 463.52 388.727 456.999C384.366 449.105 380.505 440.938 376.309 432.951C375.201 430.829 374.468 428.403 372.518 426.781C366.091 432.319 362.425 430.385 358.501 427.023C355.475 427.943 353.454 427.218 351.575 424.761C347.885 419.94 350.974 416.547 354.437 413.084C351.255 411.396 348.27 409.361 345.537 407.015C344.987 406.573 344.35 406.253 343.666 406.077C342.983 405.901 342.27 405.872 341.575 405.993C333.587 406.945 325.561 406.93 317.527 406.93C313.805 406.796 310.078 406.876 306.365 407.171C299.298 407.983 292.169 407.554 285.071 408.287C279.735 408.848 274.299 408.295 268.948 408.731C258.347 409.613 247.731 409.363 237.123 409.745C229.994 409.995 222.802 409.738 215.657 409.738C204.807 409.738 193.934 409.706 183.076 410.042C167.156 410.525 151.236 410.736 135.316 411.321C131.337 411.461 128.389 412.647 126.408 415.634C123.241 420.385 119.372 424.472 115.612 428.7C114.286 430.19 112.266 431.601 112.188 434.105C112.185 436.185 111.383 438.184 109.949 439.69C112.11 443.138 112.266 443.504 111.049 446.546C108.691 452.287 105.723 457.758 102.196 462.864C98.4676 468.379 94.6143 473.816 90.8156 479.284H16.6519C21.4177 470.399 27.3224 462.248 32.923 453.894C38.1725 446.055 43.6949 438.419 49.3423 430.868C51.0349 428.606 53.9833 426.898 54.4592 424.23C55.0116 421.032 56.7151 418.147 59.2485 416.118C65.6446 410.822 65.8708 402.554 69.5525 395.994C75.1685 386.002 79.9267 375.503 87.6254 366.798C90.75 363.294 94.657 360.576 99.0292 358.865C99.6766 346.385 98.7562 334.209 98.8186 322.025C98.8732 310.902 98.5768 299.771 98.491 288.648C98.4208 279.335 96.9388 269.998 97.8748 260.731C98.8654 250.919 97.1182 241.301 97.0636 231.582C97.0012 220.132 98.296 208.743 98.4598 197.308C98.5456 191.333 98.2882 185.398 97.8592 179.438C97.5316 174.899 98.5378 174.228 102.992 173.549C106.385 173.034 109.942 173.245 113.405 171.903C107.561 144.917 104.072 117.475 102.976 89.8847C103.795 89.0735 104.887 89.3309 105.901 89.3309C115.269 89.3075 124.637 89.3855 133.997 89.2763C136.696 89.2451 137.913 89.9939 138.217 92.919C138.958 99.9547 140.776 106.803 142.484 113.66C143.849 119.143 144.839 124.736 146.47 130.141C148.685 137.52 150.986 144.891 154.402 151.849C155.26 153.589 155.791 155.523 156.852 157.114C161.586 164.166 167.983 168.362 176.789 168.089C188.832 167.722 200.876 167.691 212.888 168.853C215.712 169.126 218.262 170.835 221.359 170.133C223.013 174.828 222.825 179.625 223.301 184.29C223.917 190.351 224.019 196.466 224.284 202.566C224.354 203.86 224.254 205.158 223.988 206.427C223.629 208.018 222.568 208.767 220.805 208.416C212.022 206.653 204.043 208.673 196.453 213.244C189.846 217.23 185.97 224.086 187.561 231.434C188.747 236.917 192.92 240.412 197.896 242.69C201.851 244.499 206.008 245.115 210.291 243.618C213.184 242.596 216.265 242.323 219.034 240.662C222.123 238.805 224.198 240.248 224.378 243.953C224.892 254.998 225.119 266.051 223.933 277.073C223.785 278.422 224.69 279.553 224.081 281.261C237.24 280.091 250.157 278.945 263.137 277.79C263.683 274.311 262.809 271.129 263.191 267.907C264.275 258.774 268.214 251.348 276.225 246.668C287.294 240.186 305.226 242.409 311.029 257.752C313.198 263.493 314.079 269.109 312.16 275.029C311.963 275.476 311.863 275.96 311.869 276.448C311.874 276.937 311.984 277.418 312.192 277.86C316.1 278.578 319.992 277.096 323.978 277.197C331.325 277.385 338.681 277.182 346.036 277.244C350.358 277.283 351.497 278.126 352.105 282.455C353.033 289.147 352.448 295.91 352.292 302.626C352.027 313.983 351.504 325.332 351.606 336.705C351.629 339.014 352.16 340.425 354.234 341.744C358.439 344.411 360.841 348.912 364.156 352.508C369 357.742 372.557 363.873 376.098 370.082C378.618 374.489 380.318 379.504 384.015 383.24C386.543 382.765 388.337 380.526 391.324 381.236C394.881 382.086 396.277 384.644 397.549 387.437C397.873 388.407 398.381 389.305 399.046 390.081C403.422 394.324 403.578 398.88 399.6 403.334C406.761 410.588 413.968 417.787 421.051 425.104C428.601 432.896 436.089 440.751 443.515 448.668C450.262 455.852 456.884 463.145 463.577 470.376C466.239 473.182 468.717 476.158 470.995 479.284H401.519Z" fill="#E4F5F2"/>
<path d="M470.995 479.284C468.717 476.158 466.239 473.182 463.577 470.376C456.884 463.145 450.262 455.852 443.515 448.668C436.089 440.759 428.601 432.904 421.05 425.104C413.968 417.787 406.761 410.588 399.6 403.334C403.578 398.88 403.422 394.324 399.046 390.081C398.381 389.305 397.873 388.407 397.549 387.437C396.277 384.645 394.881 382.086 391.324 381.236C388.337 380.526 386.543 382.765 384.015 383.24C380.318 379.504 378.618 374.489 376.098 370.082C372.557 363.873 369 357.742 364.156 352.508C360.841 348.912 358.439 344.411 354.234 341.744C352.16 340.425 351.629 339.014 351.606 336.705C351.504 325.332 352.027 313.983 352.292 302.626C352.448 295.91 353.033 289.147 352.105 282.455C351.497 278.126 350.358 277.283 346.036 277.244C338.681 277.182 331.325 277.385 323.978 277.197C319.992 277.096 316.099 278.578 312.192 277.86C311.984 277.418 311.874 276.937 311.869 276.448C311.863 275.96 311.963 275.476 312.16 275.029C314.079 269.109 313.198 263.493 311.029 257.752C305.226 242.409 287.294 240.186 276.225 246.668C268.214 251.348 264.275 258.774 263.191 267.907C262.809 271.129 263.682 274.311 263.136 277.79C250.157 278.945 237.24 280.091 224.081 281.261C224.69 279.553 223.785 278.422 223.933 277.073C225.119 266.051 224.892 254.998 224.378 243.953C224.198 240.248 222.123 238.805 219.034 240.662C216.265 242.323 213.184 242.596 210.29 243.618C206.008 245.115 201.851 244.499 197.896 242.69C192.92 240.412 188.746 236.917 187.561 231.434C185.97 224.086 189.846 217.23 196.453 213.244C204.043 208.673 212.022 206.653 220.805 208.416C222.568 208.767 223.629 208.018 223.988 206.427C224.254 205.158 224.354 203.86 224.284 202.566C224.019 196.466 223.917 190.351 223.301 184.29C222.825 179.625 223.013 174.828 221.359 170.133C218.262 170.835 215.712 169.126 212.888 168.853C200.876 167.691 188.832 167.722 176.789 168.089C167.982 168.362 161.586 164.166 156.852 157.114C155.791 155.523 155.26 153.589 154.402 151.849C150.986 144.891 148.685 137.52 146.47 130.141C144.839 124.736 143.849 119.143 142.484 113.66C140.776 106.803 138.958 99.9547 138.217 92.919C137.913 89.9939 136.696 89.2451 133.997 89.2763C124.637 89.3855 115.269 89.3075 105.901 89.3309C104.887 89.3309 103.795 89.0735 102.976 89.8847C104.072 117.475 107.561 144.917 113.405 171.903C109.942 173.245 106.385 173.034 102.992 173.549C98.5378 174.228 97.5316 174.899 97.8592 179.438C98.2882 185.398 98.5456 191.333 98.4598 197.308C98.296 208.743 97.0011 220.132 97.0636 231.582C97.1182 241.301 98.8654 250.919 97.8748 260.731C96.9388 269.998 98.4208 279.335 98.491 288.648C98.5768 299.771 98.8732 310.902 98.8186 322.025C98.7562 334.209 99.6766 346.385 99.0292 358.865C94.657 360.576 90.75 363.294 87.6254 366.798C79.9267 375.503 75.1686 386.002 69.5525 395.994C65.8708 402.554 65.6446 410.822 59.2485 416.118C56.7151 418.147 55.0116 421.032 54.4592 424.23C53.9833 426.898 51.0349 428.606 49.3423 430.868C43.6949 438.419 38.1725 446.055 32.923 453.894C27.3224 462.248 21.4177 470.399 16.6519 479.284H90.8156C94.6143 473.816 98.4676 468.379 102.196 462.864C105.723 457.758 108.691 452.287 111.049 446.546C112.266 443.504 112.11 443.138 109.949 439.69C111.383 438.184 112.185 436.185 112.188 434.105C112.266 431.601 114.286 430.19 115.612 428.7C119.372 424.472 123.241 420.385 126.408 415.634C128.389 412.647 131.337 411.461 135.316 411.321C151.236 410.736 167.156 410.525 183.076 410.042C193.934 409.706 204.807 409.738 215.657 409.738C222.802 409.738 229.994 409.995 237.123 409.745C247.731 409.363 258.347 409.613 268.948 408.731C274.299 408.295 279.735 408.848 285.071 408.287C292.169 407.554 299.298 407.983 306.365 407.171C310.078 406.876 313.805 406.796 317.527 406.93C325.561 406.93 333.587 406.945 341.575 405.993C342.27 405.872 342.983 405.901 343.666 406.077C344.35 406.253 344.987 406.573 345.537 407.015C348.27 409.361 351.255 411.396 354.437 413.084C350.974 416.547 347.885 419.94 351.575 424.761C353.454 427.218 355.475 427.943 358.501 427.023C362.425 430.385 366.091 432.319 372.518 426.781C374.468 428.403 375.201 430.829 376.309 432.951C380.505 440.938 384.366 449.105 388.727 456.999C392.33 463.52 396.441 469.775 400.388 476.109C401.02 477.115 401.768 477.997 401.519 479.284H470.995ZM397.471 396.142C397.658 398.1 395.388 400.432 393.274 400.518C390.575 400.627 390.856 398.365 390.38 396.875C390.341 394.551 391.831 392.811 393.828 392.913C395.833 393.014 397.26 394.02 397.471 396.142ZM388.181 386.532C389.795 385.346 391.207 385.635 392.338 387.562C391.004 388.225 389.795 388.825 388.625 389.403C387.564 388.482 386.816 387.538 388.181 386.532ZM386.675 409.792C386.324 410.325 385.788 410.71 385.171 410.874C384.555 411.038 383.899 410.969 383.329 410.681C380.7 409.496 381.324 407.187 381.363 404.675C383.251 405.003 384.694 401.828 386.59 404.41C387.217 405.162 387.568 406.106 387.584 407.086C387.6 408.065 387.279 409.021 386.675 409.792ZM158.139 165.702C159.948 166.857 161.54 167.878 163.209 168.939C160.042 171.217 159.356 173.175 160.721 176.482C163.484 183.183 164.628 190.441 164.059 197.667C163.552 204.937 159.785 210.225 153.225 212.448C156.579 205.194 156.828 197.464 156.688 189.688C156.657 187.636 156.579 185.585 156.407 183.541C156.298 182.223 155.986 180.85 154.2 180.967C152.39 181.092 152.398 182.496 152.437 183.822C152.693 191.024 152.18 198.233 150.908 205.327C150.128 209.422 149.013 213.15 144.808 214.999C144.807 215.036 144.81 215.072 144.816 215.108C144.776 215.093 144.737 215.075 144.699 215.054C144.551 215.155 144.41 215.256 144.254 215.35C144.223 214.82 144.465 214.944 144.699 215.054C144.719 215.046 144.737 215.036 144.754 215.022C144.769 215.015 144.793 215.007 144.808 214.999C144.434 211.801 145.822 208.845 146.103 205.717C146.615 199.91 146.14 194.057 144.699 188.408C144.375 187.718 143.94 187.086 143.412 186.536C140.292 187.012 140.448 189.36 140.861 191.318C141.953 196.45 141.805 201.575 141.478 206.739C141.29 209.664 140.932 212.542 138.677 214.983C138.677 212.893 138.599 210.803 138.693 208.712C138.897 203.409 138.138 198.113 136.454 193.081C136.072 191.911 135.799 190.834 134.161 191.099C132.476 191.365 132.055 192.503 132.188 193.9C132.593 198.252 133.631 202.511 134.145 206.856C134.541 209.577 134.229 212.355 133.241 214.921C130.582 212.56 128.9 209.292 128.522 205.756C128.077 202.584 127.225 199.482 125.987 196.528C123.311 189.578 121.603 182.332 119.7 174.493C126.626 174.875 133.334 174.711 139.801 173.253C146.259 171.794 152.866 170.296 158.139 165.702ZM108.023 99.8611C117.055 98.9563 126.088 99.0109 134.223 93.7692C135.105 99.2137 135.947 104.455 136.837 109.97C132.536 112.019 128.006 113.546 123.342 114.518C118.951 115.438 114.458 115.875 109.856 116.553C108.559 111.086 107.943 105.48 108.023 99.8611ZM112.687 139.345C120.503 138.854 128.116 137.13 135.768 135.586C137.983 135.133 139.746 133.722 142.141 133.417C144.254 136.67 144.403 140.664 145.893 144.182C136.361 149.54 125.987 150.804 115.363 152.536C114.458 148.074 113.576 143.706 112.687 139.345ZM114.169 175.998C116.392 181.318 116.79 186.864 119.005 191.786C122.164 198.837 123.997 206.318 126.486 213.579C128.342 218.993 134.528 221.036 139.325 219.835C140.159 219.625 140.861 218.977 141.899 219.391C144.356 220.373 146.415 219.336 148.357 217.885C149.067 217.355 149.621 216.349 150.619 216.52C155.065 217.261 158.17 214.593 161.524 212.456C165.51 209.913 167.483 206.146 168.053 201.63C169.238 192.301 169.004 184.009 164.855 173.69C182.522 171.661 199.948 173.791 217.654 174.899C218.637 184.618 218.387 194.18 219.596 203.899C210.961 202.558 203.177 203.634 195.86 207.402C186.484 212.222 181.165 219.18 181.563 229.78C181.953 240.178 192.288 248.696 200.86 250.084C205.392 250.825 209.721 250.654 219.76 247.019C219.035 258.087 218.325 268.914 217.607 279.912C212.485 281.19 207.215 281.783 201.937 281.675C194.433 281.534 187.031 282.962 179.535 282.595C176.937 282.47 176.297 284.491 176.258 286.542C176.205 288.995 176.335 291.448 176.648 293.882C177.413 299.553 176.165 305.036 175.283 310.551C174.363 316.261 170.689 319.63 165.307 321.026C161.317 322.17 157.066 322.014 153.17 320.582C151.633 320.052 150.274 319.105 149.244 317.848C148.213 316.59 147.553 315.071 147.336 313.46C146.628 310.047 146.779 306.513 147.772 303.172C149.27 298.57 151.002 293.929 149.761 288.866C148.911 285.411 147.086 283.266 143.49 282.4C138.288 281.16 132.932 280.689 127.593 281.004C120.646 281.508 113.668 281.38 106.744 280.622C105.932 263.485 104.973 246.566 104.388 229.632C103.803 212.597 104.56 195.522 102.82 178.307C106.611 177.262 110.261 176.162 114.169 175.998ZM83.2261 470.477C75.1139 469.292 74.6148 468.504 78.0312 462.591C84.3961 462.716 85.4491 464.237 83.2261 470.477ZM83.9983 455.431C83.8121 453.935 84.0367 452.416 84.6483 451.037C85.2598 449.659 86.235 448.473 87.4694 447.607C89.0684 448.099 90.722 448.301 91.9935 449.37C92.7111 456.624 90.6284 458.254 83.9983 455.431ZM105.215 438.372C89.6222 434.963 75.4104 427.803 60.3795 422.818C60.5589 420.822 62.1735 419.971 62.7429 418.521C64.6383 418.56 65.8552 419.62 67.0876 420.439C72.1811 423.817 78.0858 425.369 83.5381 427.935C85.5896 428.895 87.6956 429.745 89.7158 430.759C94.0449 432.943 98.8498 432.709 103.436 433.59C106.705 434.214 107.18 435.806 105.215 438.372ZM122.406 413.232C120.017 416.873 117.179 420.199 113.959 423.13C112.34 424.554 110.879 426.147 109.598 427.881C94.3647 427.795 81.3229 420.946 67.7818 415.837C71.1412 404.109 75.8145 392.797 81.7129 382.117C85.5661 375.237 94.1697 366.751 99.6844 364.715C98.296 367.523 95.4489 369.13 93.5535 371.525C91.6503 373.927 88.7564 375.534 87.7112 378.911C89.1542 380.37 90.3242 380.799 92.0792 378.935C98.4208 372.195 106.244 367.367 113.974 362.437C118.74 359.395 125.339 357.656 130.737 358.225C127.718 361.088 124.099 362.554 120.862 364.442C115.678 367.564 110.966 371.409 106.868 375.862C105.655 377.056 104.794 378.562 104.38 380.214C104.211 380.713 104.222 381.256 104.41 381.749C104.598 382.241 104.951 382.653 105.41 382.913C106.4 383.49 107.227 383.014 107.906 382.445C108.8 381.696 109.606 380.849 110.308 379.918C113.592 375.471 118.171 372.531 122.664 369.575C126.704 366.923 131.244 365.074 135.089 362.016C136.345 361.026 138.061 361.478 139.372 362.921C137.445 366.564 133.623 367.944 130.542 370.167C124.169 374.769 116.79 377.968 111.431 383.997C110.857 384.808 110.183 385.544 109.427 386.189C108.678 386.712 107.82 387.624 108.304 388.857C108.826 390.198 110.066 390.276 111.229 390.331C112.882 390.401 114.107 389.434 115.449 388.599C122.141 384.449 128.522 379.769 135.994 376.969C138.303 376.103 140.565 375.401 143.045 375.628C143.061 375.612 143.069 375.589 143.084 375.573L143.272 375.417L143.155 375.635C143.119 375.629 143.082 375.626 143.045 375.628C140.791 379.013 137.562 381.345 134.052 383.17C128.147 386.325 122.603 390.113 117.516 394.465C116.793 395.021 116.202 395.729 115.784 396.54C114.988 398.334 115.48 399.59 117.648 399.753C119.544 399.902 121.166 399.051 122.843 398.373C127.866 396.353 132.812 394.176 137.983 392.515C140.113 391.836 142.148 391.828 144.059 391.509C145.183 392.881 144.325 393.856 143.708 394.504C141.166 397.195 138.919 400.12 135.596 402.109C130.62 405.089 125.503 408.318 122.406 413.232ZM135.479 388.482C135.386 388.521 135.292 388.591 135.206 388.584C135.128 388.576 135.05 388.482 134.98 388.428C135.066 388.389 135.159 388.318 135.245 388.326C135.323 388.334 135.401 388.428 135.479 388.482ZM215.743 360.191C215.228 361.416 214.534 362.944 216.351 363.834C217.521 364.403 217.162 365.363 217.038 366.189C215.415 377.086 215.54 388.053 215.563 399.028C215.571 403.685 214.674 404.316 210.056 404.285C193.856 404.16 177.678 404.566 161.501 405.689C154.34 406.188 147.141 406.922 139.426 406.641C141.766 403.248 145.003 401.251 147.133 398.256C148.247 396.846 149.154 395.283 149.824 393.615C151.446 389.005 149.933 386.875 144.956 386.532C142.726 386.376 140.62 387.18 137.71 387.156C140.315 385.144 142.375 383.443 144.543 381.914C146.478 380.632 148.056 378.88 149.13 376.821C150.9 373.287 149.231 370.456 145.346 370.027C142.718 369.738 140.37 371.135 137.804 370.854C137.78 370.877 137.757 370.893 137.734 370.916C137.601 371.002 137.461 371.096 137.437 371.111C137.453 371.088 137.554 370.963 137.656 370.838C137.704 370.848 137.754 370.853 137.804 370.854C138.833 369.949 139.886 369.052 140.893 368.116C142.757 366.369 144.239 364.434 143.404 361.634C142.78 359.559 141.181 358.623 137.468 358.116C136.704 357.547 136.649 356.572 136.361 355.753C135.417 353.023 133.506 351.993 130.706 352.071C122.358 352.236 114.295 355.132 107.75 360.316C107.259 360.791 106.673 361.156 106.03 361.386C105.387 361.616 104.702 361.706 104.021 361.65C106.12 336.346 105.16 310.972 106.517 285.473C108.959 284.942 111.486 284.942 113.927 285.473C118.951 286.456 123.997 286.019 128.99 286.09C132.812 286.144 136.415 286.909 140.074 287.556C143.521 288.172 144.754 290.013 143.779 293.406C142.866 296.596 142.414 299.888 141.173 303.024C138.482 309.794 141.025 320.738 146.727 324.802C150.892 327.766 156.072 328.764 161.306 328.561C170.237 328.218 177.491 324.654 180.79 316.097C183.15 310.143 184.009 303.701 183.294 297.337C182.912 294.155 182.686 290.965 182.374 287.681C193.84 286.94 205.267 288.531 216.96 287.236C215.595 296.199 215.517 305.434 214.815 314.623C214.518 318.507 213.707 322.415 214.682 326.377C214.923 327.599 215.441 328.749 216.195 329.739C216.523 329.853 216.873 329.885 217.216 329.832C217.559 329.779 217.883 329.642 218.161 329.435C225.103 322.875 243.301 321.089 252.887 330.238C257.832 334.958 258.854 340.004 254.369 345.737C248.55 353.179 240.961 357.508 231.234 357.594C227.264 357.633 223.356 358.904 219.307 357.906C217.724 357.508 216.359 358.701 215.743 360.191ZM338.665 399.036C299.587 399.738 260.757 403.123 221.616 403.747C222.373 390.541 220.384 377.835 221.796 364.801C226.312 365.425 230.945 364.473 235.649 364.403C239.97 364.341 243.964 362.149 247.84 360.058C254.666 356.385 260.695 352.11 263.121 344.177C265.36 336.845 263.605 331.253 257.684 326.315C247.216 317.602 235.82 316.378 223.457 321.487C222.747 321.775 221.983 321.947 221.382 322.134C221.382 311.284 221.445 300.598 221.336 289.912C221.312 287.228 221.874 286.097 224.931 285.856C235.703 284.998 246.491 284.631 257.271 283.929C258.667 283.835 260.102 284.303 261.499 284.194C264.322 283.968 266.974 283.18 269.143 280.676C266.475 274.467 267.2 268.11 269.626 261.847C270.577 259.31 272.038 256.995 273.919 255.046C275.8 253.096 278.061 251.553 280.562 250.512C283.063 249.471 285.751 248.954 288.46 248.993C291.169 249.032 293.841 249.627 296.311 250.739C303.206 253.852 307.106 261.387 305.647 270.021C304.98 273.287 304.628 276.61 304.594 279.943C304.641 282.127 305.593 283.422 307.839 283.391C311.287 283.352 314.727 283.695 318.19 283.36C327.792 282.416 337.363 283.508 346.941 284.015C347.486 284.168 348.01 284.388 348.501 284.67C347.706 293.125 346.582 301.682 346.192 310.278C345.802 318.936 344.734 327.563 345.202 336.135C342.893 337.859 340.335 339.154 340.491 342.719C338.119 341.759 336.232 339.996 333.946 340.168C331.372 340.355 330.343 342.391 330.171 344.95C327.386 343.561 324.922 343.335 322.8 345.971C320.748 348.53 323.627 351.268 322.277 353.982C321.911 354.115 321.443 354.279 320.967 354.45C317.067 355.846 316.099 358.171 318.354 361.579C321.944 366.949 325.868 372.089 330.101 376.969C331.115 378.147 331.996 379.543 333.244 380.401C339.96 384.988 339.313 391.633 338.665 399.036ZM360.147 416.04C360.131 416.06 360.112 416.078 360.092 416.095H359.983C358.535 418.117 357.469 420.388 356.84 422.795C354.156 421.414 354.429 419.847 356.099 418.029C356.568 417.446 357.159 416.971 357.829 416.637C358.5 416.303 359.234 416.118 359.983 416.095L360.03 416.024C360.069 416.026 360.109 416.031 360.147 416.04C360.28 415.923 360.397 415.806 360.521 415.681C360.685 416.212 360.389 416.087 360.147 416.04ZM368.548 422.631C368.197 424.449 366.691 424.87 365.077 425.205C363.704 424.519 361.715 424.472 361.832 422.132C361.818 421.288 362.13 420.472 362.705 419.854C363.279 419.236 364.07 418.864 364.913 418.817C366.567 418.606 368.844 421.095 368.548 422.631ZM367.066 413.435C363.68 410.447 358.977 410.572 355.381 408.076C352.191 405.869 348.868 403.856 345.592 401.781C343.423 400.409 343.837 398.256 343.79 396.189C346.169 395.034 346.364 393.342 345.67 390.885C343.626 383.693 338.119 378.997 333.642 373.56C329.97 369.268 326.598 364.728 323.549 359.973C334.266 366.189 341.466 375.932 348.548 385.643C351.66 384.512 352.097 382.991 350.639 380.713C345.459 372.632 339.874 364.824 331.637 359.583C327.449 356.923 326.466 353.186 326.138 348.085C337.027 356.806 343.798 368.631 352.565 377.671C354.055 377.71 354.461 377.429 354.819 377.024C355.163 376.642 355.529 376.275 355.989 375.799C355.343 374.414 354.627 373.063 353.844 371.751C349.443 365.109 344.321 358.975 338.572 353.46C337.23 352.236 335.974 350.923 334.812 349.528C333.673 348.093 333.026 346.447 334.344 344.255C339.134 347.274 343.428 351.016 347.074 355.347C350.929 359.814 354.513 364.507 357.807 369.403C357.877 369.504 357.9 369.676 357.994 369.731C359.383 370.565 360.084 373.256 362.347 371.759C364.414 370.378 363.353 368.412 362.456 366.907C358.134 359.653 353.025 352.945 346.38 347.711C343.767 345.644 343.868 343.92 345.085 341.151C349.063 343.444 352.667 346.026 355.139 349.614C357.12 352.492 359.343 355.129 361.481 357.867C367.034 364.988 370.739 373.319 376.239 380.479C379.507 384.738 382.385 389.325 386.519 393.381C386.355 394.761 385.396 396.337 385.599 398.178C384.459 398.088 383.313 398.099 382.175 398.209C380.107 398.622 378.22 399.083 378.157 402C378.118 403.809 377.058 405.603 376.387 407.6C372.222 407.53 369.398 409.925 367.066 413.435ZM375.287 419.34C373.61 419.293 371.73 416.953 371.964 415.096C372.159 413.552 372.931 412.429 374.671 412.546C376.683 412.686 378.836 414.854 378.735 416.797C378.573 417.57 378.132 418.257 377.496 418.726C376.86 419.195 376.074 419.413 375.287 419.34ZM393.968 454.432C391.675 453.301 390.887 451.047 389.788 449.074C386.153 442.568 383.228 435.689 379.179 429.386C378.415 428.208 377.596 427.046 376.87 425.868C377.089 424.612 378.267 424.924 378.977 424.488C379.959 423.871 380.794 423.013 381.8 422.46C384.226 421.134 382.955 417.67 384.873 416.609C386.722 415.595 388.976 415.307 390.544 413.606C392.486 411.508 392.135 408.521 393.438 406.298C395.739 405.307 397.221 406.969 398.188 408.185C404.358 415.954 411.62 422.717 418.445 430.229C413.687 441.843 406.269 450.532 393.968 454.432Z" fill="#1D1C1A"/>
<path d="M452.056 103.878C450.543 100.235 449.685 96.7955 451.346 92.989C451.6 92.4553 451.713 91.8656 451.675 91.2758C451.637 90.6861 451.448 90.1159 451.128 89.6194C450.64 89.404 450.113 89.2927 449.579 89.2927C449.046 89.2927 448.519 89.404 448.031 89.6194C446.565 91.663 447.314 94.1825 446.229 95.4227C433.554 98.5583 421.721 93.9251 409.491 94.7987C409.834 92.6926 410.52 91.2184 409.763 89.5492C409.286 89.4456 408.801 89.3779 408.313 89.3464C407.689 89.3542 407.065 89.4634 406.48 89.5258C406.304 89.9324 406.153 90.3492 406.027 90.7738C403.196 104.822 398.204 117.95 389.475 129.502C387.681 131.873 386.113 134.353 382.681 134.556C374.46 135.04 366.223 135.414 358.033 136.217C352.347 136.779 346.645 136.951 340.958 137.161C332.308 137.489 323.775 139.33 315.132 139.252C306.326 139.174 306.248 140.687 304.859 148.37C304.76 149.143 304.731 149.924 304.773 150.702C304.773 156.646 303.798 162.535 303.541 168.471C303.44 170.795 303.908 173.557 302.511 175.936C300.881 175.476 299.415 175.047 297.941 174.633C285.164 171.069 274.657 180.179 271.794 189.719C268.815 199.687 276.061 214.149 288.401 216.653C292.215 217.349 296.094 217.629 299.969 217.487C300.876 219.22 301.403 221.127 301.513 223.08C301.645 229.254 302.153 235.415 303.034 241.527C303.65 245.942 303.962 246.262 308.596 246.239C309.243 246.253 309.89 246.31 310.53 246.41C319.939 247.754 329.499 247.625 338.868 246.028C339.219 244.421 339.952 242.994 339.749 241.707C338.712 234.858 341.77 229.414 345.779 224.484C349.141 220.35 353.805 219.632 358.805 221.27C362.846 222.588 364.296 226.091 364.398 229.648C364.577 235.74 365.966 241.613 366.714 247.588C367.206 251.48 367.206 251.582 371.051 251.652C379.429 251.816 387.783 250.864 396.144 250.599C404.335 250.341 409.444 246.995 408.625 236.332C407.54 222.175 406.706 208.01 407.767 193.798C408.063 189.82 407.806 185.811 407.806 181.895C410.793 181.037 413.391 180.39 415.816 179.079C424.974 174.095 431.424 166.576 436.729 157.777C441.44 149.954 443.912 141.35 445.902 132.622C446.619 129.462 447.641 126.116 446.9 122.7C446.549 121.054 447.766 120.149 448.795 119.12C453.156 114.759 454.435 109.58 452.056 103.878ZM434.123 151.841C431.034 157.184 428.281 162.839 423.905 167.317C420.276 170.99 416.084 174.06 411.487 176.412C409.678 177.355 407.618 177.894 405.684 176.154C408.04 174.875 410.403 173.689 412.681 172.348C417.954 169.243 420.551 163.869 423.71 159.017C424.818 157.325 426.277 155.765 426.737 153.643C426.908 152.816 427.08 152.153 426.386 151.545C426.219 151.386 426.023 151.262 425.809 151.18C425.595 151.097 425.366 151.058 425.136 151.064C424.907 151.069 424.681 151.12 424.471 151.214C424.261 151.307 424.071 151.441 423.913 151.607C423.209 152.178 422.578 152.833 422.033 153.557C419.927 156.474 417.907 159.438 415.816 162.356C410.637 169.602 403.188 172.753 394.655 173.994C394.928 173.752 395.162 173.354 395.466 173.292C404.912 171.295 410.271 164.501 414.888 156.833C415.614 155.632 416.417 154.478 417.119 153.269C418 151.748 418.141 150.141 416.409 149.251C414.795 148.425 413.749 149.54 413.055 150.96C411.16 154.844 407.845 157.699 405.505 161.272C403.055 165.016 399.093 166.927 395.248 168.565C392.33 169.934 389.294 171.033 386.176 171.849C388.134 169.352 390.739 168.253 392.588 166.232C398.009 160.297 401.503 153.292 404.717 146.077C405.411 144.525 405.707 142.863 404.054 142.021C402.33 141.139 401.339 142.52 400.411 143.947C396.277 150.312 393.212 157.395 387.689 162.832C383.22 167.239 378.181 170.577 371.831 171.685C370.708 171.88 370.131 171.732 369.507 170.366C375.022 166.303 379.499 160.999 384.374 156.092C390.981 149.446 395.934 141.568 400.949 133.737C401.21 133.435 401.344 133.044 401.324 132.645C401.285 132.272 401.143 131.918 400.913 131.621C400.683 131.325 400.375 131.099 400.024 130.97C399.672 130.84 399.291 130.811 398.924 130.886C398.557 130.962 398.218 131.139 397.946 131.397C397.605 131.741 397.304 132.123 397.049 132.536C396.332 133.675 395.591 134.793 394.826 135.89C394.6 136.077 393.279 137.398 393.04 137.637C391.48 139.197 392.26 138.417 391.948 139.845C386.09 147.52 379.281 154.384 372.494 161.272C370.888 162.902 368.852 164.103 367.065 165.569C365.17 167.114 363.056 168.822 363.875 171.552C364.819 174.735 367.346 177.66 370.544 177.098C375.349 176.256 380.053 178.518 384.717 176.864C385.31 176.653 385.934 176.536 386.621 176.349C391.597 180.522 397.182 178.564 403.461 177.621C402.907 188.884 401.815 199.976 402.08 211.075C402.346 222.019 402.899 232.955 403.352 244.429C392.237 245.583 381.441 245.365 370.7 247.37C370.03 243.454 370.903 240.412 370.747 237.378C370.498 232.768 371.153 228.283 369.296 223.563C366.122 215.483 355.108 213.376 349.406 215.623C339.781 219.422 336.754 227.659 335.101 236.793C334.882 238.033 335.108 239.343 334.547 240.81C326.138 242.081 317.659 242.877 309.212 241.324C307.27 234 307.535 226.684 305.694 219.687C305.195 217.799 304.048 216.122 304.267 213.86C304.415 212.331 302.597 211.614 300.71 211.879C297.129 212.386 293.596 211.832 290.047 211.169C282.785 209.82 278.69 205.023 276.911 198.478C275.117 191.895 278.042 186.466 283.003 182.036C288.463 177.16 294.665 178.167 300.951 179.664C303.604 180.296 303.502 183.042 304.844 184.649C306.209 185.078 307.293 184.368 308.549 183.783C309.095 170.468 309.649 157.083 309.727 143.347C317.745 143.62 325.148 142.98 332.558 142.59C344.266 141.974 355.989 142.083 367.697 141.264C373.828 140.835 380.014 140.968 386.137 140.164C387.736 139.954 390.037 140.18 391.948 139.845C392.939 138.55 393.906 137.231 394.826 135.89C394.132 135.258 393.056 134.611 393.04 133.737C393.04 133.737 395.396 131.015 395.934 130.25C400.382 124.08 403.762 117.206 405.934 109.915C413.718 110.68 421.464 111.444 429.365 112.216C431.807 118.16 435.325 122.801 442.805 122.575C440.41 132.653 439.295 142.887 434.123 151.841ZM445.207 114.814C443.203 117.279 440.122 117.31 437.688 115.227C433.156 111.351 433.78 103.605 438.858 100.649C440.707 99.5646 443.429 100.306 445.239 102.521C445.841 103.44 446.351 104.418 446.76 105.438C444.88 105.851 443.515 106.148 442.181 106.436C441.159 105.953 442.118 105.048 441.674 104.401C441.175 103.66 440.956 102.638 439.794 102.747C439.342 102.764 438.91 102.94 438.575 103.244C438.24 103.548 438.023 103.96 437.961 104.408C437.415 106.561 436.627 108.855 438.616 110.493C440.457 112.014 442.54 111.21 444.334 109.962C445.262 109.323 446.112 108.558 447.251 107.653C447.922 110.602 446.775 112.879 445.207 114.814Z" fill="#1D1C1A"/>
<path d="M97.9839 156.943C96.4004 158.035 94.9106 157.184 93.5456 155.843C88.5145 150.866 85.4958 144.572 82.485 138.402C78.9515 131.147 77.5319 123.246 77.4617 115.142C77.5179 112.696 77.8795 110.267 78.5381 107.911C79.1153 105.594 80.4647 104.814 82.8672 105.36C83.7096 108.472 82.4226 111.437 82.641 114.494C83.0053 121.266 84.6295 127.911 87.4303 134.088C90.3343 140.533 93.7924 146.713 97.7655 152.559C98.7327 153.932 99.8715 155.632 97.9839 156.943Z" fill="#1D1C1A"/>
<path d="M454.833 140.133C454.084 148.378 451.674 156.74 448.757 164.969C446.379 172.049 442.99 178.749 438.695 184.859C436.347 188.096 434.131 191.458 430.816 193.837C429.467 194.804 427.852 196.154 426.433 194.313C425.317 192.862 426.557 191.755 427.673 190.545C437.501 179.898 443.258 167.044 447.509 153.409C448.925 149.126 450.063 144.757 450.917 140.328C451.037 139.689 451.25 139.072 451.549 138.495C451.978 137.629 452.688 136.974 453.718 137.247C454.911 137.567 455.34 138.44 454.833 140.133Z" fill="#1D1C1A"/>
<path d="M458.249 444.815C453.998 441.952 451.838 437.194 448.772 433.309C444.167 427.614 439.215 422.209 433.944 417.124C428.554 411.789 423.25 406.36 417.181 401.773C416.691 401.344 416.225 400.889 415.785 400.408C414.974 399.652 414.335 398.794 415.115 397.71C416.004 396.477 417.228 396.891 418.227 397.46C421.866 399.677 425.294 402.222 428.468 405.065C439.467 414.378 449.225 424.823 456.962 437.054C457.781 438.356 459.022 439.292 459.802 440.696C460.948 442.779 460.699 444.042 458.249 444.815Z" fill="#1D1C1A"/>
<path d="M70.0361 364.185C69.5884 364.758 68.933 365.131 68.2119 365.225C67.4908 365.318 66.7619 365.124 66.1829 364.684C62.4856 362.367 59.974 358.881 57.3141 355.597C52.9011 350.239 48.7818 344.646 44.9743 338.842C43.8666 337.11 42.5483 335.355 44.2098 333.031C46.9321 332.844 48.1801 334.669 49.3423 336.299C55.4888 344.949 62.899 352.555 69.5525 360.792C70.5276 361.985 71.0112 363.069 70.0361 364.185Z" fill="#1D1C1A"/>
<path d="M301.958 120.063C301.723 120.523 301.452 120.964 301.147 121.382C296.81 126.335 295.063 132.473 294.111 138.659C293.237 144.369 292.364 150.406 295.999 155.788C296.233 156.139 296.03 156.779 296.03 157.551C292.894 157.816 290.679 156.451 290.071 153.752C287.208 140.944 290.234 129.455 298.042 119.08C298.363 118.671 298.727 118.297 299.127 117.965C299.961 117.232 300.913 116.709 301.896 117.591C302.691 118.3 302.488 119.221 301.958 120.063Z" fill="#1D1C1A"/>
<path d="M459.131 429.955C459.225 431.047 458.944 431.781 458.195 432.171C457.841 432.333 457.445 432.383 457.061 432.313C456.677 432.244 456.324 432.058 456.05 431.781C455.559 431.359 455.126 430.873 454.763 430.338C450.73 424.394 446.705 418.437 442.688 412.467C442.267 411.991 441.92 411.455 441.659 410.876C441.464 410.174 441.315 409.355 442.142 408.786C442.408 408.614 442.718 408.524 443.035 408.528C443.351 408.533 443.66 408.63 443.921 408.809C445.559 409.606 446.936 410.853 447.891 412.405C451.362 417.475 454.724 422.623 458.132 427.732C458.64 428.497 459.225 429.207 459.131 429.955Z" fill="#1D1C1A"/>
<path d="M87.3836 158.729C79.7082 157.676 69.7708 144.813 71.05 137.879C72.8675 136.982 73.6475 138.409 74.3417 139.548C77.8673 145.367 81.4476 151.108 87.3601 154.922C88.616 155.726 88.4834 155.929 87.3836 158.729Z" fill="#1D1C1A"/>
<path d="M78.1014 353.889C76.167 356.541 74.763 356.712 72.8441 354.271C69.5605 350.124 66.93 345.5 65.044 340.558C64.4044 338.881 65.1376 337.844 66.643 336.83C69.6929 338.514 73.554 344.318 78.1014 353.889Z" fill="#1D1C1A"/>
<path d="M284.173 151.865C282.364 153.237 280.796 152.52 279.501 151.077C275.39 146.483 275.203 134.034 279.228 128.839C280.726 128.979 281.506 129.728 281.147 131.366C279.618 138.316 280.086 144.946 284.22 151.007C284.329 151.178 284.197 151.514 284.173 151.865Z" fill="#1D1C1A"/>
<path d="M61.5729 374.528C59.0379 375.511 56.6744 374.442 54.35 373.826C51.3547 373.03 48.4453 371.923 45.5358 370.838C44.2956 370.378 43.1646 369.59 43.5546 367.968C43.9368 366.4 45.372 366.166 46.5186 366.384C51.5965 367.336 56.339 369.395 61.1517 371.166C62.6104 371.704 62.2827 373.295 61.5729 374.528Z" fill="#1D1C1A"/>
<path d="M447.345 184.329C442.205 195.335 439.319 198.744 435.372 198.549C435.157 198.164 435.065 197.724 435.108 197.286C435.151 196.848 435.328 196.434 435.613 196.099C437.938 192.558 440.106 188.908 442.602 185.499C443.585 184.157 444.771 181.341 447.345 184.329Z" fill="#1D1C1A"/>
</g>
<defs>
<clipPath id="clip0_281_1084">
<rect width="454.343" height="390.03" fill="white" transform="translate(16.6519 89.2537)"/>
</clipPath>
</defs>
</svg>
