<svg width="660" height="443" viewBox="0 0 660 443" fill="none" xmlns="http://www.w3.org/2000/svg">
<path d="M533.632 19.6042C653 33.9791 692.201 206.942 632.294 311.156C606.691 355.695 581.608 379.789 533.632 398.186C484.431 417.052 450.092 386.556 398.696 398.186C378.685 402.714 348.64 414.141 348.64 414.141L298.583 430.097C298.583 430.097 206.675 458.162 160.746 430.097C107.326 397.455 140.557 330.554 102.709 280.695C73.8036 242.617 28.2618 245.032 9.84998 200.917C-20.0352 129.312 21.2397 53.3984 91.1014 19.6042C155.426 -11.5115 203.246 -4.50135 264.106 32.9371C294.636 51.7175 333.583 85.0718 376.933 86.3274C443.419 88.253 467.595 11.6517 533.632 19.6042Z" fill="#F5F4E4"/>
<mask id="mask0_2780_1926" style="mask-type:alpha" maskUnits="userSpaceOnUse" x="0" y="0" width="660" height="443">
<path d="M533.632 19.6042C653 33.9791 692.201 206.942 632.294 311.156C606.691 355.695 581.608 379.789 533.632 398.186C484.431 417.052 450.092 386.556 398.696 398.186C378.685 402.714 348.64 414.141 348.64 414.141L298.583 430.097C298.583 430.097 206.675 458.162 160.746 430.097C107.326 397.455 140.557 330.554 102.709 280.695C73.8036 242.617 28.2618 245.032 9.84998 200.917C-20.0352 129.312 21.2397 53.3984 91.1014 19.6042C155.426 -11.5115 203.246 -4.50135 264.106 32.9371C294.636 51.7175 333.583 85.0718 376.933 86.3274C443.419 88.253 467.595 11.6517 533.632 19.6042Z" fill="#E4F5F2"/>
</mask>
<g mask="url(#mask0_2780_1926)">
<path d="M533.669 -7.54623C533.936 -7.57211 534.204 -7.59052 534.473 -7.59388C535.084 -7.55448 535.691 -7.46964 536.289 -7.34008C537.236 -5.2511 536.377 -3.40617 535.947 -0.770544C551.253 -1.86384 566.062 3.93453 581.924 0.0103817C583.281 -1.54171 582.344 -4.69469 584.179 -7.25222C584.789 -7.52178 585.449 -7.66101 586.117 -7.66101C586.784 -7.66101 587.444 -7.52178 588.054 -7.25222C588.456 -6.63086 588.691 -5.91729 588.739 -5.17924C588.787 -4.44119 588.645 -3.70317 588.328 -3.03523C586.249 1.72842 587.322 6.03327 589.216 10.5919C592.193 17.7276 590.592 24.2093 585.136 29.666C583.847 30.9545 582.324 32.0869 582.764 34.1466C583.691 38.4221 582.412 42.6098 581.514 46.5633C579.025 57.4865 575.931 68.2535 570.035 78.0443C563.397 89.0554 555.324 98.4655 543.864 104.703C540.828 106.343 537.577 107.153 533.839 108.227C533.839 113.127 534.161 118.145 533.79 123.123C532.462 140.909 533.507 158.636 534.864 176.353C535.889 189.697 529.495 193.885 519.245 194.207C508.781 194.539 498.326 195.73 487.842 195.525C483.03 195.437 483.03 195.31 482.415 190.439C481.478 182.962 479.74 175.611 479.516 167.987C479.389 163.536 477.573 159.153 472.517 157.503C466.26 155.454 460.422 156.352 456.215 161.525C451.197 167.695 447.371 174.508 448.669 183.079C448.923 184.689 448.005 186.476 447.566 188.487C435.841 190.486 423.877 190.647 412.102 188.965C411.301 188.84 410.492 188.768 409.682 188.75C403.883 188.78 403.493 188.379 402.722 182.854C401.619 175.205 400.984 167.495 400.818 159.768C400.68 157.324 400.021 154.938 398.885 152.769C394.036 152.947 389.182 152.597 384.409 151.725C368.966 148.591 359.898 130.493 363.626 118.018C367.209 106.08 380.358 94.6781 396.347 99.1391C398.192 99.6564 400.027 100.193 402.067 100.769C403.815 97.792 403.229 94.3364 403.356 91.4275C403.678 83.9989 404.898 76.6289 404.898 69.1906C404.846 68.2165 404.882 67.2396 405.006 66.2719C406.743 56.6568 406.841 54.763 417.862 54.8606C428.678 54.9583 439.357 52.6545 450.182 52.2445C457.298 51.981 464.434 51.7662 471.55 51.0634C481.8 50.0579 492.108 49.5894 502.397 48.9842C506.692 48.7304 508.654 45.6262 510.899 42.6587C521.822 28.2018 528.07 11.7732 531.613 -5.80735C531.879 -7.12435 532.765 -8.13275 533.8 -6.82536C534.696 -5.69465 534.614 -2.07002 534.857 -0.617384C534.876 -0.248501 535.025 0.101679 535.278 0.370612C535.535 0.541302 535.838 0.631331 536.147 0.629177C544.626 1.39607 553.108 2.16312 561.609 2.63585C565.287 2.92499 568.983 2.9052 572.658 2.57669C577.649 2.01442 582.531 0.414735 587.553 0.456066C586.72 -0.590756 586.161 -1.82952 585.929 -3.14738C585.696 -4.46525 585.797 -5.82032 586.223 -7.08917C577.834 -7.6817 577.611 -7.76752 572.953 -7.6817C571.175 -7.64893 566.923 -7.6817 565.144 -7.6817C549.526 -7.6817 548.051 -7.62695 538.472 -6.98987C536.839 -6.7526 535.174 -6.9043 533.611 -7.43263" fill="#F5F4E4"/>
<path d="M525.971 480.396C526.283 478.786 525.346 477.683 524.555 476.423C519.616 468.497 514.472 460.668 509.962 452.508C504.505 442.629 499.673 432.409 494.421 422.413C493.035 419.758 492.118 416.722 489.677 414.691C481.634 421.622 477.046 419.201 472.136 414.994C468.348 416.146 465.82 415.238 463.467 412.163C458.85 406.13 462.716 401.884 467.05 397.55C463.068 395.438 459.332 392.891 455.912 389.956C455.224 389.402 454.426 389.002 453.571 388.781C452.715 388.561 451.823 388.525 450.953 388.677C440.957 389.868 430.913 389.848 420.858 389.848C416.2 389.681 411.536 389.782 406.889 390.151C398.046 391.166 389.123 390.629 380.24 391.547C373.564 392.25 366.76 391.556 360.063 392.103C346.797 393.206 333.512 392.894 320.236 393.372C311.314 393.685 302.314 393.362 293.372 393.362C279.794 393.362 266.186 393.323 252.598 393.743C232.675 394.348 212.752 394.612 192.828 395.344C187.85 395.52 184.16 397.003 181.681 400.742C177.717 406.687 172.876 411.802 168.171 417.093C166.511 418.957 163.983 420.724 163.885 423.857C163.881 426.46 162.878 428.962 161.084 430.847C163.788 435.161 163.983 435.62 162.46 439.427C159.509 446.611 155.794 453.458 151.381 459.848C146.715 466.75 141.892 473.554 137.139 480.396H44.3257C50.29 469.278 57.6795 459.077 64.6883 448.623C71.2578 438.812 78.169 429.256 85.2364 419.806C87.3546 416.976 91.0445 414.838 91.6399 411.499C92.3313 407.497 94.4632 403.886 97.6335 401.347C105.638 394.719 105.921 384.372 110.529 376.163C117.557 363.658 123.511 350.519 133.146 339.625C137.056 335.24 141.946 331.838 147.417 329.697C148.228 314.079 147.076 298.841 147.154 283.594C147.222 269.674 146.851 255.744 146.744 241.824C146.656 230.169 144.801 218.484 145.973 206.887C147.213 194.607 145.026 182.571 144.958 170.408C144.879 156.078 146.5 141.827 146.705 127.516C146.812 120.039 146.49 112.61 145.953 105.152C145.543 99.4712 146.803 98.6317 152.376 97.7824C156.623 97.1381 161.074 97.4017 165.408 95.7227C158.095 61.9507 153.728 27.6074 152.357 -6.92006C153.382 -7.93526 154.748 -7.61313 156.017 -7.61313C167.741 -7.64241 179.465 -7.5448 191.179 -7.68146C194.556 -7.72051 196.079 -6.7834 196.46 -3.12281C197.387 5.68211 199.661 14.2528 201.799 22.8332C203.507 29.6955 204.747 36.6946 206.787 43.4593C209.56 52.6938 212.439 61.9184 216.715 70.6258C217.789 72.8026 218.452 75.2234 219.78 77.2148C225.705 86.0393 233.71 91.291 244.73 90.9493C259.802 90.4905 274.874 90.4515 289.907 91.9059C293.441 92.2476 296.633 94.3854 300.508 93.5068C302.578 99.3833 302.343 105.387 302.939 111.224C303.71 118.809 303.837 126.462 304.169 134.095C304.256 135.715 304.131 137.34 303.798 138.927C303.349 140.919 302.021 141.856 299.815 141.417C288.823 139.21 278.837 141.739 269.339 147.459C261.071 152.447 256.22 161.028 258.211 170.223C259.695 177.085 264.917 181.458 271.145 184.309C276.094 186.574 281.297 187.345 286.656 185.47C290.278 184.192 294.134 183.85 297.599 181.771C301.465 179.448 304.061 181.253 304.286 185.89C304.93 199.713 305.213 213.545 303.729 227.338C303.544 229.027 304.676 230.442 303.915 232.58C320.383 231.116 336.548 229.681 352.791 228.236C353.474 223.882 352.381 219.899 352.859 215.868C354.216 204.437 359.146 195.144 369.171 189.287C383.022 181.175 405.464 183.957 412.727 203.158C415.441 210.343 416.544 217.371 414.142 224.78C413.895 225.339 413.771 225.945 413.777 226.556C413.784 227.167 413.922 227.77 414.181 228.324C419.072 229.222 423.943 227.367 428.931 227.494C438.127 227.728 447.332 227.474 456.537 227.553C461.945 227.601 463.37 228.656 464.131 234.073C465.293 242.449 464.561 250.912 464.366 259.317C464.034 273.529 463.38 287.733 463.507 301.965C463.536 304.854 464.2 306.621 466.796 308.271C472.058 311.609 475.064 317.242 479.213 321.742C485.275 328.292 489.726 335.964 494.158 343.735C497.311 349.25 499.439 355.527 504.066 360.202C507.229 359.607 509.474 356.805 513.212 357.694C517.664 358.758 519.411 361.959 521.002 365.454C521.408 366.668 522.044 367.791 522.876 368.763C528.353 374.074 528.548 379.774 523.569 385.348C532.531 394.426 541.55 403.436 550.414 412.593C559.863 422.344 569.234 432.174 578.527 442.082C586.971 451.073 595.258 460.2 603.634 469.249C606.965 472.761 610.066 476.484 612.917 480.396H525.971Z" fill="#F5F4E4"/>
<path d="M612.917 480.396C610.066 476.484 606.965 472.761 603.634 469.249C595.258 460.2 586.971 451.073 578.527 442.082C569.234 432.184 559.863 422.354 550.414 412.593C541.55 403.436 532.531 394.426 523.569 385.348C528.548 379.774 528.353 374.074 522.876 368.763C522.044 367.791 521.408 366.668 521.002 365.454C519.411 361.959 517.664 358.758 513.212 357.694C509.474 356.805 507.229 359.607 504.066 360.202C499.439 355.527 497.311 349.25 494.158 343.735C489.726 335.964 485.275 328.292 479.213 321.742C475.064 317.242 472.058 311.609 466.796 308.271C464.2 306.621 463.536 304.854 463.506 301.965C463.38 287.733 464.034 273.529 464.365 259.317C464.561 250.912 465.293 242.449 464.131 234.073C463.37 228.656 461.945 227.601 456.537 227.553C447.332 227.474 438.126 227.728 428.931 227.494C423.943 227.367 419.072 229.222 414.181 228.324C413.922 227.77 413.784 227.167 413.777 226.556C413.771 225.945 413.895 225.339 414.142 224.78C416.544 217.371 415.441 210.343 412.727 203.158C405.464 183.957 383.022 181.175 369.171 189.287C359.146 195.144 354.216 204.437 352.859 215.868C352.381 219.9 353.474 223.882 352.791 228.236C336.548 229.681 320.383 231.116 303.915 232.58C304.676 230.442 303.544 229.027 303.729 227.338C305.213 213.545 304.93 199.713 304.286 185.89C304.061 181.253 301.465 179.448 297.599 181.771C294.134 183.85 290.278 184.192 286.656 185.47C281.297 187.345 276.094 186.574 271.145 184.309C264.917 181.458 259.695 177.085 258.211 170.223C256.22 161.028 261.071 152.447 269.339 147.459C278.837 141.739 288.823 139.21 299.815 141.417C302.021 141.856 303.349 140.919 303.798 138.927C304.131 137.34 304.256 135.715 304.169 134.095C303.837 126.462 303.71 118.809 302.939 111.224C302.343 105.387 302.577 99.3833 300.508 93.5068C296.633 94.3854 293.441 92.2476 289.907 91.9059C274.874 90.4515 259.802 90.4905 244.73 90.9493C233.71 91.291 225.705 86.0393 219.78 77.2148C218.452 75.2234 217.789 72.8026 216.715 70.6258C212.439 61.9184 209.56 52.6938 206.787 43.4593C204.747 36.6946 203.507 29.6955 201.799 22.8332C199.661 14.2528 197.387 5.68211 196.46 -3.12281C196.079 -6.7834 194.556 -7.72051 191.179 -7.68146C179.465 -7.5448 167.741 -7.64241 156.017 -7.61313C154.748 -7.61313 153.382 -7.93526 152.357 -6.92006C153.728 27.6074 158.095 61.9507 165.408 95.7227C161.074 97.4017 156.623 97.1381 152.376 97.7824C146.803 98.6317 145.543 99.4712 145.953 105.152C146.49 112.61 146.812 120.039 146.705 127.516C146.5 141.827 144.879 156.078 144.958 170.408C145.026 182.571 147.213 194.607 145.973 206.887C144.801 218.484 146.656 230.169 146.744 241.824C146.851 255.744 147.222 269.674 147.154 283.594C147.076 298.841 148.228 314.079 147.418 329.697C141.946 331.838 137.056 335.24 133.146 339.625C123.511 350.519 117.557 363.658 110.529 376.163C105.921 384.372 105.638 394.719 97.6335 401.347C94.4632 403.886 92.3313 407.497 91.6399 411.499C91.0445 414.838 87.3546 416.976 85.2364 419.806C78.169 429.256 71.2578 438.812 64.6883 448.623C57.6795 459.077 50.29 469.278 44.3257 480.396H137.139C141.892 473.554 146.715 466.75 151.381 459.848C155.795 453.458 159.509 446.611 162.46 439.427C163.983 435.62 163.788 435.161 161.084 430.847C162.878 428.962 163.881 426.46 163.885 423.857C163.983 420.724 166.511 418.957 168.171 417.093C172.876 411.802 177.717 406.687 181.681 400.742C184.16 397.003 187.85 395.52 192.828 395.344C212.752 394.612 232.675 394.348 252.598 393.743C266.186 393.323 279.794 393.362 293.372 393.362C302.314 393.362 311.314 393.685 320.236 393.372C333.512 392.894 346.797 393.206 360.063 392.103C366.76 391.556 373.564 392.25 380.24 391.547C389.124 390.629 398.046 391.166 406.889 390.151C411.536 389.782 416.2 389.681 420.858 389.848C430.913 389.848 440.957 389.868 450.953 388.677C451.823 388.525 452.715 388.561 453.571 388.781C454.426 389.002 455.224 389.402 455.912 389.956C459.332 392.891 463.068 395.438 467.05 397.55C462.716 401.884 458.85 406.131 463.467 412.163C465.82 415.238 468.348 416.146 472.136 414.994C477.046 419.201 481.634 421.622 489.677 414.691C492.118 416.722 493.035 419.758 494.421 422.413C499.673 432.409 504.505 442.629 509.962 452.508C514.472 460.668 519.616 468.497 524.555 476.423C525.346 477.683 526.283 478.786 525.971 480.396H612.917ZM520.904 376.348C521.139 378.798 518.298 381.717 515.653 381.824C512.275 381.961 512.627 379.13 512.031 377.266C511.983 374.357 513.847 372.18 516.346 372.307C518.855 372.434 520.641 373.693 520.904 376.348ZM509.279 364.322C511.299 362.838 513.066 363.199 514.481 365.61C512.812 366.44 511.299 367.192 509.835 367.914C508.507 366.762 507.57 365.581 509.279 364.322ZM507.395 393.431C506.954 394.097 506.285 394.579 505.513 394.784C504.741 394.989 503.92 394.904 503.207 394.544C499.917 393.06 500.698 390.17 500.747 387.027C503.109 387.437 504.915 383.464 507.287 386.695C508.073 387.636 508.512 388.818 508.532 390.044C508.551 391.27 508.15 392.465 507.395 393.431ZM221.391 87.9623C223.655 89.407 225.647 90.6857 227.736 92.0133C223.772 94.8637 222.913 97.3139 224.622 101.453C228.08 109.839 229.512 118.922 228.8 127.965C228.165 137.063 223.45 143.681 215.241 146.463C219.438 137.385 219.751 127.711 219.575 117.979C219.536 115.412 219.438 112.844 219.224 110.287C219.087 108.637 218.696 106.919 216.461 107.066C214.196 107.222 214.206 108.979 214.255 110.638C214.575 119.652 213.934 128.674 212.342 137.551C211.365 142.676 209.97 147.342 204.708 149.655C204.706 149.701 204.71 149.747 204.718 149.792C204.667 149.773 204.618 149.75 204.571 149.724C204.386 149.851 204.21 149.977 204.015 150.095C203.976 149.431 204.279 149.587 204.571 149.724C204.596 149.714 204.619 149.701 204.64 149.685C204.659 149.675 204.689 149.665 204.708 149.655C204.24 145.653 205.977 141.953 206.329 138.039C206.969 130.771 206.375 123.448 204.571 116.378C204.166 115.515 203.622 114.723 202.961 114.035C199.056 114.631 199.251 117.569 199.769 120.019C201.135 126.442 200.95 132.856 200.54 139.318C200.306 142.978 199.857 146.58 197.036 149.636C197.036 147.02 196.938 144.404 197.055 141.788C197.31 135.151 196.361 128.523 194.253 122.225C193.775 120.761 193.433 119.414 191.384 119.746C189.275 120.078 188.748 121.503 188.914 123.25C189.422 128.697 190.72 134.027 191.364 139.464C191.859 142.87 191.469 146.346 190.232 149.558C186.905 146.602 184.799 142.513 184.326 138.088C183.77 134.118 182.704 130.237 181.153 126.54C177.805 117.842 175.667 108.774 173.286 98.9636C181.954 99.4419 190.349 99.2369 198.441 97.4115C206.524 95.5861 214.792 93.7118 221.391 87.9623ZM158.673 5.56497C169.976 4.43263 181.28 4.50096 191.462 -2.0588C192.565 4.75476 193.619 11.3145 194.732 18.216C189.35 20.7799 183.68 22.6905 177.844 23.9069C172.349 25.0588 166.726 25.6055 160.967 26.4547C159.343 19.6127 158.573 12.5962 158.673 5.56497ZM164.51 54.978C174.291 54.363 183.818 52.2057 193.394 50.2729C196.167 49.7067 198.373 47.9399 201.37 47.5592C204.015 51.6298 204.201 56.6277 206.065 61.0301C194.136 67.7363 181.153 69.3177 167.858 71.4848C166.726 65.9012 165.623 60.4347 164.51 54.978ZM166.365 100.848C169.147 107.505 169.645 114.445 172.417 120.605C176.37 129.429 178.664 138.791 181.778 147.879C184.101 154.653 191.842 157.211 197.846 155.708C198.89 155.444 199.769 154.634 201.067 155.151C204.142 156.381 206.719 155.083 209.15 153.267C210.038 152.603 210.731 151.344 211.98 151.559C217.545 152.486 221.43 149.148 225.627 146.473C230.615 143.291 233.085 138.576 233.798 132.924C235.281 121.249 234.988 110.873 229.795 97.9581C251.905 95.4201 273.713 98.085 295.871 99.4711C297.101 111.634 296.789 123.602 298.302 135.765C287.496 134.086 277.754 135.433 268.598 140.148C256.864 146.18 250.207 154.888 250.705 168.153C251.193 181.166 264.127 191.825 274.855 193.563C280.526 194.49 285.944 194.275 298.507 189.727C297.599 203.578 296.711 217.127 295.813 230.891C289.402 232.491 282.808 233.233 276.202 233.097C266.811 232.921 257.547 234.708 248.167 234.249C244.916 234.093 244.116 236.621 244.067 239.188C244 242.258 244.163 245.329 244.555 248.374C245.511 255.471 243.95 262.333 242.847 269.234C241.695 276.38 237.097 280.597 230.361 282.344C225.368 283.775 220.048 283.581 215.172 281.788C213.249 281.125 211.548 279.94 210.259 278.366C208.969 276.793 208.143 274.892 207.871 272.875C206.986 268.604 207.174 264.181 208.417 260C210.292 254.241 212.459 248.433 210.907 242.097C209.843 237.773 207.558 235.088 203.058 234.005C196.548 232.452 189.845 231.864 183.164 232.258C174.47 232.888 165.737 232.728 157.072 231.779C156.057 210.333 154.856 189.16 154.124 167.968C153.392 146.649 154.338 125.281 152.162 103.737C156.906 102.429 161.474 101.053 166.365 100.848ZM127.641 469.376C117.489 467.892 116.864 466.906 121.139 459.507C129.105 459.663 130.423 461.566 127.641 469.376ZM128.607 450.546C128.374 448.673 128.655 446.772 129.42 445.047C130.186 443.323 131.406 441.839 132.951 440.755C134.952 441.37 137.021 441.624 138.613 442.961C139.511 452.039 136.904 454.079 128.607 450.546ZM155.158 429.197C135.645 424.931 117.86 415.97 99.049 409.732C99.2735 407.234 101.294 406.17 102.007 404.354C104.379 404.403 105.902 405.73 107.444 406.755C113.818 410.982 121.208 412.925 128.031 416.136C130.598 417.337 133.234 418.401 135.762 419.67C141.18 422.403 147.193 422.11 152.933 423.213C157.023 423.994 157.618 425.986 155.158 429.197ZM176.673 397.736C173.683 402.292 170.131 406.454 166.101 410.123C164.076 411.905 162.246 413.898 160.644 416.068C141.58 415.96 125.259 407.39 108.313 400.996C112.517 386.318 118.365 372.162 125.747 358.797C130.569 350.187 141.336 339.566 148.237 337.019C146.5 340.533 142.937 342.544 140.565 345.54C138.183 348.547 134.562 350.558 133.253 354.785C135.059 356.61 136.524 357.147 138.72 354.814C146.656 346.38 156.447 340.338 166.121 334.168C172.085 330.361 180.343 328.184 187.098 328.897C183.32 332.48 178.791 334.315 174.74 336.677C168.253 340.584 162.356 345.396 157.228 350.968C155.709 352.463 154.632 354.348 154.114 356.415C153.903 357.04 153.916 357.719 154.151 358.335C154.386 358.952 154.829 359.467 155.402 359.792C156.642 360.515 157.677 359.919 158.526 359.207C159.645 358.27 160.654 357.209 161.533 356.044C165.642 350.48 171.372 346.8 176.995 343.1C182.052 339.781 187.733 337.468 192.545 333.641C194.117 332.401 196.264 332.968 197.904 334.774C195.493 339.332 190.71 341.06 186.854 343.842C178.879 349.601 169.645 353.604 162.938 361.149C162.219 362.164 161.376 363.085 160.43 363.892C159.493 364.546 158.419 365.688 159.024 367.231C159.678 368.91 161.23 369.007 162.685 369.076C164.754 369.163 166.287 367.953 167.966 366.909C176.341 361.715 184.326 355.858 193.678 352.354C196.567 351.271 199.398 350.392 202.502 350.675C202.521 350.656 202.531 350.626 202.551 350.607L202.785 350.411L202.639 350.685C202.594 350.677 202.548 350.673 202.502 350.675C199.681 354.912 195.64 357.83 191.247 360.115C183.857 364.063 176.919 368.802 170.552 374.249C169.648 374.945 168.908 375.832 168.385 376.846C167.39 379.091 168.005 380.663 170.718 380.868C173.09 381.053 175.121 379.989 177.22 379.14C183.506 376.612 189.695 373.888 196.167 371.809C198.832 370.96 201.379 370.95 203.771 370.55C205.177 372.268 204.103 373.488 203.332 374.298C200.149 377.666 197.338 381.326 193.18 383.816C186.952 387.544 180.548 391.586 176.673 397.736ZM193.033 366.762C192.916 366.811 192.799 366.899 192.692 366.889C192.594 366.879 192.496 366.762 192.409 366.694C192.516 366.645 192.633 366.557 192.74 366.567C192.838 366.577 192.936 366.694 193.033 366.762ZM293.48 331.357C292.835 332.89 291.967 334.803 294.241 335.916C295.705 336.628 295.256 337.829 295.1 338.864C293.07 352.5 293.226 366.225 293.255 379.96C293.265 385.787 292.142 386.578 286.364 386.539C266.089 386.383 245.843 386.89 225.598 388.296C216.637 388.921 207.627 389.838 197.973 389.487C200.901 385.241 204.952 382.742 207.617 378.993C209.012 377.229 210.146 375.273 210.985 373.185C213.015 367.416 211.121 364.751 204.894 364.322C202.102 364.126 199.466 365.132 195.825 365.103C199.085 362.584 201.662 360.456 204.376 358.543C206.798 356.938 208.773 354.745 210.116 352.169C212.332 347.747 210.243 344.203 205.382 343.666C202.092 343.305 199.154 345.052 195.942 344.701C195.913 344.73 195.884 344.75 195.854 344.779C195.688 344.886 195.513 345.004 195.483 345.023C195.503 344.994 195.63 344.838 195.757 344.681C195.818 344.693 195.88 344.7 195.942 344.701C197.231 343.569 198.549 342.446 199.808 341.275C202.141 339.088 203.996 336.667 202.951 333.163C202.17 330.566 200.169 329.395 195.522 328.76C194.566 328.048 194.497 326.828 194.136 325.803C192.955 322.386 190.564 321.098 187.059 321.195C176.613 321.402 166.522 325.026 158.331 331.513C157.717 332.108 156.983 332.564 156.178 332.852C155.374 333.14 154.517 333.252 153.665 333.182C156.291 301.516 155.09 269.762 156.789 237.851C159.844 237.186 163.007 237.186 166.062 237.851C172.349 239.081 178.664 238.534 184.912 238.622C189.695 238.691 194.205 239.647 198.783 240.457C203.097 241.228 204.64 243.532 203.42 247.779C202.277 251.771 201.711 255.89 200.159 259.815C196.791 268.288 199.974 281.983 207.109 287.069C212.322 290.778 218.804 292.028 225.354 291.774C236.531 291.344 245.609 286.883 249.738 276.175C252.691 268.724 253.767 260.662 252.872 252.698C252.393 248.716 252.11 244.723 251.72 240.614C266.069 239.686 280.37 241.678 295.003 240.057C293.294 251.273 293.197 262.831 292.318 274.33C291.947 279.191 290.932 284.082 292.152 289.041C292.454 290.569 293.101 292.009 294.046 293.248C294.456 293.39 294.894 293.43 295.323 293.363C295.752 293.297 296.158 293.127 296.506 292.867C305.194 284.658 327.967 282.422 339.964 293.873C346.153 299.778 347.432 306.094 341.819 313.269C334.537 322.581 325.039 327.999 312.866 328.106C307.898 328.155 303.007 329.746 297.941 328.497C295.959 327.999 294.251 329.493 293.48 331.357ZM447.312 379.969C398.407 380.848 349.814 385.085 300.83 385.866C301.777 369.339 299.288 353.438 301.055 337.126C306.707 337.907 312.505 336.716 318.391 336.628C323.799 336.55 328.797 333.807 333.649 331.191C342.19 326.593 349.736 321.244 352.771 311.316C355.573 302.141 353.377 295.142 345.968 288.963C332.868 278.059 318.606 276.526 303.134 282.92C302.246 283.281 301.289 283.496 300.537 283.73C300.537 270.152 300.615 256.779 300.479 243.405C300.45 240.047 301.152 238.632 304.979 238.329C318.46 237.256 331.96 236.797 345.45 235.918C347.198 235.801 348.994 236.387 350.741 236.25C354.275 235.967 357.594 234.981 360.307 231.848C356.969 224.077 357.877 216.122 360.913 208.283C362.103 205.109 363.931 202.212 366.285 199.772C368.639 197.332 371.468 195.401 374.598 194.098C377.728 192.795 381.092 192.148 384.482 192.197C387.872 192.246 391.216 192.99 394.307 194.383C402.936 198.278 407.817 207.707 405.991 218.513C405.157 222.601 404.715 226.759 404.674 230.93C404.732 233.663 405.923 235.284 408.734 235.245C413.049 235.196 417.354 235.625 421.688 235.206C433.704 234.024 445.682 235.391 457.669 236.026C458.351 236.218 459.007 236.493 459.622 236.846C458.626 247.427 457.22 258.136 456.732 268.893C456.244 279.728 454.907 290.524 455.492 301.252C452.603 303.41 449.401 305.03 449.596 309.491C446.629 308.29 444.267 306.084 441.406 306.299C438.185 306.533 436.897 309.081 436.682 312.283C433.197 310.545 430.112 310.262 427.457 313.562C424.89 316.763 428.492 320.19 426.803 323.587C426.344 323.753 425.759 323.958 425.163 324.172C420.282 325.92 419.072 328.829 421.893 333.095C426.387 339.815 431.296 346.247 436.594 352.354C437.863 353.828 438.966 355.575 440.528 356.649C448.933 362.389 448.122 370.706 447.312 379.969ZM474.196 401.25C474.175 401.275 474.152 401.298 474.127 401.318H473.99C472.178 403.849 470.845 406.691 470.057 409.703C466.699 407.975 467.04 406.013 469.129 403.739C469.717 403.009 470.456 402.414 471.295 401.996C472.134 401.579 473.054 401.347 473.99 401.318L474.049 401.23C474.098 401.232 474.147 401.238 474.196 401.25C474.361 401.103 474.508 400.957 474.664 400.801C474.869 401.464 474.498 401.308 474.196 401.25ZM484.709 409.498C484.269 411.773 482.385 412.3 480.365 412.72C478.647 411.861 476.158 411.802 476.304 408.874C476.286 407.818 476.678 406.796 477.396 406.023C478.115 405.249 479.106 404.784 480.16 404.725C482.229 404.461 485.08 407.575 484.709 409.498ZM482.854 397.989C478.617 394.251 472.731 394.407 468.231 391.283C464.239 388.521 460.08 386.002 455.98 383.406C453.267 381.688 453.784 378.993 453.725 376.407C456.703 374.962 456.947 372.844 456.078 369.769C453.521 360.769 446.629 354.892 441.026 348.088C436.431 342.716 432.21 337.034 428.394 331.084C441.807 338.864 450.816 351.056 459.68 363.209C463.575 361.794 464.122 359.89 462.296 357.04C455.814 346.927 448.825 337.155 438.517 330.596C433.275 327.267 432.045 322.591 431.635 316.207C445.262 327.12 453.735 341.919 464.707 353.233C466.572 353.281 467.079 352.93 467.528 352.422C467.958 351.944 468.417 351.485 468.993 350.89C468.184 349.157 467.288 347.466 466.308 345.824C460.8 337.512 454.39 329.835 447.195 322.933C445.516 321.402 443.944 319.758 442.49 318.013C441.065 316.217 440.254 314.157 441.904 311.414C447.898 315.192 453.272 319.875 457.835 325.295C462.66 330.885 467.145 336.759 471.267 342.885C471.355 343.012 471.384 343.227 471.501 343.295C473.239 344.34 474.117 347.708 476.948 345.833C479.535 344.106 478.207 341.646 477.085 339.762C471.677 330.683 465.283 322.288 456.966 315.738C453.696 313.152 453.823 310.994 455.346 307.529C460.324 310.399 464.834 313.63 467.928 318.12C470.408 321.722 473.19 325.022 475.865 328.448C482.815 337.36 487.451 347.786 494.333 356.747C498.424 362.077 502.026 367.816 507.199 372.892C506.994 374.62 505.793 376.592 506.047 378.896C504.62 378.784 503.187 378.797 501.762 378.935C499.175 379.452 496.813 380.028 496.735 383.679C496.686 385.944 495.358 388.189 494.519 390.688C489.306 390.6 485.773 393.597 482.854 397.989ZM493.143 405.379C491.044 405.32 488.691 402.392 488.984 400.069C489.228 398.136 490.195 396.73 492.371 396.877C494.89 397.052 497.584 399.766 497.457 402.197C497.255 403.164 496.703 404.024 495.907 404.611C495.111 405.198 494.127 405.471 493.143 405.379ZM516.522 449.296C513.652 447.881 512.666 445.06 511.289 442.59C506.74 434.449 503.08 425.839 498.014 417.952C497.057 416.478 496.032 415.023 495.124 413.549C495.398 411.978 496.872 412.368 497.76 411.822C498.99 411.05 500.034 409.977 501.294 409.283C504.329 407.624 502.738 403.29 505.14 401.962C507.453 400.693 510.274 400.332 512.236 398.204C514.667 395.578 514.228 391.84 515.858 389.058C518.737 387.818 520.592 389.897 521.803 391.42C529.524 401.142 538.612 409.606 547.154 419.006C541.199 433.541 531.916 444.415 516.522 449.296Z" fill="#1D1C1A"/>
<path d="M589.216 10.5918C587.322 6.03313 586.249 1.72829 588.328 -3.03535C588.645 -3.70329 588.787 -4.44132 588.739 -5.17937C588.691 -5.91741 588.456 -6.63099 588.055 -7.25235C587.444 -7.5219 586.784 -7.66113 586.117 -7.66113C585.45 -7.66113 584.79 -7.5219 584.179 -7.25235C582.344 -4.69482 583.281 -1.54183 581.924 0.0102534C566.062 3.9344 551.253 -1.86397 535.947 -0.770671C536.377 -3.40629 537.236 -5.25123 536.289 -7.3402C535.691 -7.46976 535.084 -7.5546 534.473 -7.594C533.692 -7.58424 532.911 -7.44758 532.179 -7.36948C531.96 -6.86057 531.771 -6.33903 531.613 -5.80764C528.07 11.7729 521.822 28.2016 510.899 42.6585C508.654 45.626 506.692 48.7302 502.397 48.984C492.108 49.5892 481.8 50.0578 471.55 51.0632C464.434 51.766 457.298 51.9808 450.182 52.2443C439.357 52.6543 428.677 54.9581 417.862 54.8604C406.841 54.7628 406.743 56.6566 405.006 66.2717C404.882 67.2394 404.846 68.2163 404.898 69.1904C404.898 76.6287 403.678 83.9987 403.356 91.4272C403.229 94.3362 403.815 97.7918 402.067 100.769C400.027 100.193 398.192 99.6562 396.347 99.1389C380.358 94.6778 367.209 106.079 363.626 118.018C359.898 130.493 368.966 148.591 384.409 151.724C389.182 152.596 394.036 152.947 398.885 152.769C400.021 154.937 400.68 157.324 400.818 159.768C400.984 167.495 401.619 175.204 402.721 182.854C403.493 188.379 403.883 188.779 409.681 188.75C410.492 188.768 411.301 188.84 412.102 188.965C423.877 190.647 435.841 190.485 447.566 188.486C448.005 186.476 448.923 184.689 448.669 183.079C447.371 174.508 451.197 167.694 456.215 161.525C460.422 156.351 466.259 155.453 472.517 157.503C477.573 159.153 479.389 163.536 479.516 167.987C479.74 175.611 481.478 182.961 482.415 190.439C483.03 195.31 483.03 195.437 487.842 195.524C498.326 195.729 508.781 194.539 519.245 194.207C529.495 193.885 535.889 189.697 534.864 176.353C533.507 158.636 532.462 140.909 533.79 123.123C534.161 118.145 533.839 113.127 533.839 108.227C537.577 107.153 540.828 106.343 543.864 104.703C555.324 98.4653 563.397 89.0552 570.035 78.0441C575.931 68.2533 579.025 57.4863 581.514 46.5631C582.412 42.6096 583.691 38.422 582.764 34.1464C582.324 32.0867 583.847 30.9544 585.136 29.6659C590.593 24.2092 592.193 17.7275 589.216 10.5918ZM566.774 70.6156C562.909 77.3023 559.463 84.3794 553.987 89.9825C549.445 94.5792 544.199 98.4215 538.446 101.365C536.182 102.546 533.605 103.219 531.184 101.042C534.132 99.4415 537.09 97.9577 539.94 96.2787C546.539 92.3936 549.789 85.6679 553.743 79.5962C555.129 77.478 556.954 75.5257 557.53 72.8705C557.745 71.8358 557.96 71.0061 557.091 70.2447C556.883 70.0465 556.638 69.8913 556.369 69.788C556.101 69.6847 555.815 69.6352 555.528 69.6425C555.24 69.6497 554.957 69.7136 554.694 69.8303C554.432 69.947 554.195 70.1143 553.997 70.3228C553.116 71.0373 552.326 71.8568 551.644 72.7631C549.008 76.414 546.48 80.1234 543.864 83.7742C537.382 92.8427 528.06 96.7863 517.381 98.3384C517.722 98.0358 518.015 97.538 518.396 97.4599C530.217 94.9609 536.924 86.4586 542.702 76.863C543.61 75.3597 544.616 73.915 545.494 72.402C546.597 70.4985 546.773 68.4876 544.606 67.3748C542.585 66.34 541.277 67.7359 540.408 69.5125C538.036 74.3738 533.888 77.9465 530.959 82.4173C527.894 87.1029 522.935 89.4945 518.123 91.5444C514.472 93.2581 510.672 94.6337 506.77 95.654C509.22 92.5303 512.481 91.1539 514.794 88.6257C521.578 81.1971 525.951 72.4313 529.973 63.4018C530.842 61.4593 531.213 59.3801 529.144 58.3258C526.986 57.2227 525.746 58.9505 524.585 60.7369C519.411 68.7023 515.575 77.5658 508.664 84.3696C503.07 89.8849 496.764 94.0629 488.819 95.449C487.413 95.693 486.691 95.5076 485.91 93.7993C492.811 88.7135 498.414 82.0757 504.515 75.9357C512.783 67.6188 518.982 57.7596 525.258 47.959C525.585 47.5806 525.752 47.0912 525.727 46.5924C525.679 46.1258 525.501 45.6821 525.213 45.3115C524.925 44.9409 524.54 44.6583 524.1 44.4957C523.66 44.3331 523.183 44.297 522.724 44.3916C522.264 44.4861 521.84 44.7075 521.5 45.0306C521.073 45.4611 520.696 45.9393 520.378 46.4557C519.48 47.8809 518.552 49.2801 517.596 50.6532C517.313 50.8875 515.66 52.5401 515.36 52.8398C513.408 54.7921 514.384 53.816 513.994 55.6023C506.663 65.2077 498.141 73.7979 489.648 82.4173C487.637 84.4575 485.09 85.9608 482.854 87.7959C480.482 89.7287 477.837 91.8665 478.862 95.2831C480.043 99.2658 483.206 102.926 487.208 102.224C493.221 101.169 499.107 104 504.945 101.931C505.687 101.667 506.467 101.521 507.326 101.286C513.554 106.509 520.544 104.059 528.402 102.878C527.709 116.973 526.342 130.854 526.674 144.745C527.006 158.44 527.699 172.126 528.265 186.485C514.355 187.93 500.845 187.657 487.403 190.165C486.564 185.265 487.657 181.458 487.462 177.661C487.149 171.892 487.969 166.279 485.646 160.373C481.673 150.26 467.89 147.625 460.754 150.436C448.708 155.19 444.921 165.498 442.851 176.929C442.578 178.481 442.861 180.121 442.158 181.956C431.635 183.547 421.025 184.543 410.453 182.6C408.022 173.434 408.354 164.278 406.05 155.522C405.426 153.159 403.991 151.061 404.264 148.23C404.449 146.316 402.175 145.418 399.813 145.75C395.332 146.385 390.91 145.692 386.469 144.862C377.381 143.173 372.256 137.17 370.03 128.98C367.785 120.741 371.446 113.947 377.654 108.403C384.487 102.302 392.247 103.561 400.115 105.435C403.434 106.226 403.307 109.662 404.986 111.673C406.695 112.21 408.051 111.321 409.623 110.589C410.306 93.9262 410.999 77.1754 411.097 59.9853C421.132 60.3269 430.396 59.5265 439.669 59.0384C454.321 58.2672 468.993 58.4039 483.645 57.3789C491.318 56.842 499.058 57.008 506.721 56.0025C508.722 55.739 511.602 56.0221 513.994 55.6023C515.233 53.9819 516.444 52.3321 517.596 50.6532C516.727 49.8625 515.38 49.0524 515.36 47.9591C515.36 47.9591 518.308 44.5523 518.982 43.5957C524.549 35.8733 528.779 27.2709 531.496 18.1472C541.238 19.1039 550.931 20.0605 560.82 21.0269C563.875 28.4652 568.278 34.2733 577.639 33.9902C574.642 46.6022 573.246 59.4093 566.774 70.6156ZM580.646 24.2775C578.137 27.3621 574.281 27.4012 571.235 24.7948C565.564 19.9434 566.345 10.2501 572.7 6.5505C575.013 5.19364 578.42 6.12104 580.684 8.89327C581.439 10.044 582.076 11.2669 582.588 12.5441C580.236 13.0615 578.527 13.4324 576.858 13.7936C575.579 13.1884 576.78 12.056 576.224 11.2458C575.599 10.3185 575.326 9.0397 573.871 9.17636C573.305 9.19793 572.765 9.41818 572.346 9.79844C571.926 10.1787 571.654 10.6946 571.577 11.2556C570.894 13.9498 569.908 16.8197 572.397 18.8696C574.701 20.7731 577.307 19.7676 579.552 18.2058C580.714 17.4053 581.778 16.4487 583.203 15.3164C584.043 19.0062 582.608 21.8566 580.646 24.2775Z" fill="#1D1C1A"/>
<path d="M146.11 77.0003C144.128 78.3669 142.264 77.3029 140.555 75.6239C134.259 69.396 130.481 61.5184 126.713 53.797C122.291 44.7188 120.515 34.8303 120.427 24.6881C120.497 21.6274 120.95 18.5875 121.774 15.6391C122.496 12.7399 124.185 11.7637 127.192 12.4471C128.246 16.3419 126.635 20.0513 126.909 23.8778C127.365 32.3531 129.397 40.6689 132.902 48.3989C136.537 56.4638 140.864 64.198 145.836 71.5143C147.047 73.2323 148.472 75.3603 146.11 77.0003Z" fill="#1D1C1A"/>
<path d="M592.692 55.9637C591.754 66.2816 588.738 76.7461 585.087 87.0445C582.112 95.9054 577.87 104.29 572.495 111.937C569.557 115.988 566.785 120.195 562.636 123.172C560.947 124.383 558.927 126.071 557.15 123.768C555.754 121.952 557.306 120.566 558.702 119.053C571.002 105.728 578.206 89.6412 583.526 72.5779C585.298 67.2185 586.723 61.7504 587.791 56.2077C587.941 55.4085 588.208 54.6356 588.582 53.9138C589.119 52.8302 590.007 52.0103 591.296 52.3519C592.789 52.7522 593.326 53.8455 592.692 55.9637Z" fill="#1D1C1A"/>
<path d="M596.967 437.259C591.647 433.677 588.943 427.722 585.107 422.861C579.344 415.734 573.147 408.969 566.55 402.606C559.805 395.929 553.167 389.135 545.573 383.395C544.959 382.858 544.376 382.288 543.826 381.687C542.81 380.74 542.01 379.666 542.986 378.309C544.099 376.767 545.632 377.284 546.881 377.997C551.435 380.771 555.726 383.957 559.698 387.514C573.462 399.17 585.674 412.24 595.357 427.546C596.382 429.177 597.934 430.348 598.91 432.105C600.345 434.711 600.033 436.293 596.967 437.259Z" fill="#1D1C1A"/>
<path d="M111.134 336.355C110.574 337.072 109.754 337.539 108.851 337.656C107.949 337.773 107.037 337.53 106.312 336.98C101.685 334.08 98.5421 329.717 95.2134 325.607C89.6907 318.902 84.5355 311.903 79.7706 304.64C78.3844 302.473 76.7346 300.276 78.8139 297.367C82.2207 297.133 83.7825 299.417 85.237 301.457C92.9291 312.283 102.203 321.8 110.529 332.109C111.749 333.602 112.355 334.959 111.134 336.355Z" fill="#1D1C1A"/>
<path d="M401.375 30.8467C401.08 31.4225 400.741 31.9742 400.359 32.4964C394.932 38.695 392.745 46.3773 391.555 54.1183C390.461 61.2637 389.368 68.8192 393.917 75.5546C394.21 75.9939 393.956 76.7944 393.956 77.7608C390.032 78.0927 387.259 76.3844 386.498 73.0069C382.916 56.9784 386.703 42.5996 396.474 29.6167C396.876 29.1046 397.331 28.6367 397.831 28.2208C398.876 27.3032 400.067 26.6492 401.297 27.7523C402.292 28.6406 402.038 29.7924 401.375 30.8467Z" fill="#1D1C1A"/>
<path d="M598.07 418.664C598.187 420.03 597.836 420.948 596.899 421.436C596.455 421.64 595.96 421.702 595.48 421.615C595 421.527 594.558 421.295 594.214 420.948C593.6 420.42 593.058 419.813 592.604 419.142C587.557 411.704 582.52 404.249 577.493 396.778C576.966 396.183 576.532 395.511 576.204 394.787C575.96 393.908 575.775 392.883 576.809 392.171C577.142 391.956 577.531 391.844 577.927 391.849C578.323 391.854 578.708 391.976 579.035 392.2C581.085 393.197 582.809 394.758 584.004 396.7C588.348 403.045 592.555 409.488 596.821 415.882C597.455 416.838 598.187 417.727 598.07 418.664Z" fill="#1D1C1A"/>
<path d="M132.844 79.2351C123.238 77.9172 110.802 61.8204 112.403 53.1424C114.677 52.0198 115.653 53.8062 116.522 55.2314C120.935 62.5135 125.415 69.698 132.814 74.4714C134.386 75.4769 134.22 75.7307 132.844 79.2351Z" fill="#1D1C1A"/>
<path d="M121.228 323.47C118.807 326.789 117.05 327.003 114.648 323.948C110.539 318.759 107.247 312.971 104.887 306.787C104.086 304.688 105.004 303.39 106.888 302.121C110.705 304.23 115.537 311.492 121.228 323.47Z" fill="#1D1C1A"/>
<path d="M379.118 70.6452C376.854 72.3633 374.892 71.4652 373.271 69.6593C368.127 63.9098 367.893 48.3303 372.93 41.8291C374.804 42.0048 375.78 42.9419 375.331 44.9918C373.418 53.6894 374.003 61.9867 379.177 69.5715C379.314 69.7862 379.148 70.206 379.118 70.6452Z" fill="#1D1C1A"/>
<path d="M100.543 349.299C97.3701 350.529 94.4124 349.191 91.5034 348.42C87.755 347.425 84.1139 346.038 80.4729 344.682C78.9208 344.106 77.5054 343.12 77.9935 341.089C78.4718 339.127 80.2679 338.834 81.7029 339.108C88.0576 340.299 93.9927 342.876 100.016 345.092C101.841 345.765 101.431 347.756 100.543 349.299Z" fill="#1D1C1A"/>
<path d="M583.32 111.273C576.887 125.046 573.275 129.312 568.336 129.068C568.067 128.588 567.952 128.036 568.006 127.488C568.06 126.94 568.281 126.422 568.639 126.003C571.548 121.571 574.261 117.003 577.385 112.737C578.615 111.058 580.099 107.534 583.32 111.273Z" fill="#1D1C1A"/>
</g>
</svg>
