<svg width="1429" height="683" viewBox="0 0 1429 683" fill="none" xmlns="http://www.w3.org/2000/svg">
<path d="M1242.84 631.478C1243.01 632.057 1243.24 632.615 1243.53 633.141C1243.84 633.675 1244.06 634.252 1244.19 634.853C1244.39 636.257 1244.85 637.612 1245.53 638.855C1246.84 641.774 1247.51 644.94 1247.49 648.138C1247.47 649.016 1247.49 650.428 1247.53 651.257C1247.58 652.093 1247.61 652.817 1247.59 652.873C1246.27 654.745 1244.76 656.479 1243.08 658.048C1241.41 659.248 1240.85 659.907 1240.73 660.845L1240.62 661.749L1241.27 661.618C1241.65 661.543 1242.04 661.488 1242.43 661.453C1242.74 661.427 1243.02 661.286 1243.22 661.06C1243.37 660.863 1243.54 660.788 1243.61 660.894C1243.68 661.002 1244.19 660.827 1244.77 660.504C1246.35 659.522 1248.24 659.159 1250.08 659.482C1250.6 659.588 1251.1 659.796 1251.55 660.095C1251.72 660.289 1251.94 660.423 1252.19 660.478C1253.01 660.851 1253.81 661.29 1254.56 661.791C1255.59 662.438 1256.64 663.083 1256.86 663.206C1257.53 663.489 1258.13 663.915 1258.61 664.455C1258.79 664.7 1259.01 664.908 1259.27 665.066C1260.15 665.596 1262.88 667.471 1263.34 667.866C1263.6 668.092 1263.91 668.227 1264.02 668.163C1264.2 668.054 1265.95 669.511 1267.85 671.351C1268.4 671.879 1268.86 672.106 1269.22 672.016C1270.11 671.792 1270.18 671.052 1269.41 669.798C1268.21 667.548 1267.22 665.198 1266.44 662.774C1266.06 661.513 1266.07 659.412 1266.45 659.032C1266.69 658.792 1266.84 658.499 1266.78 658.394C1266.44 657.853 1268.32 649.58 1268.84 649.255C1269.06 649.088 1269.21 648.855 1269.27 648.593C1269.61 647.685 1270.16 646.873 1270.89 646.226C1271.69 645.451 1271.81 645.337 1272 645.124C1272.15 644.985 1272.33 644.869 1272.51 644.779C1272.79 644.568 1272.97 644.26 1273.02 643.919C1273.21 642.906 1272.51 642.424 1271.45 642.829C1270.53 643.18 1270.13 642.938 1270.32 642.151C1270.52 641.325 1268.96 641.244 1267.18 641.989C1265.97 642.472 1264.64 642.597 1263.36 642.347C1260.53 641.777 1257.77 640.917 1255.13 639.78C1253.13 638.634 1251.24 637.313 1249.48 635.833C1248.92 635.316 1248.32 634.845 1247.69 634.423C1246.69 633.712 1245.83 632.837 1245.12 631.836C1244.93 631.496 1244.67 631.199 1244.36 630.965C1243.91 630.763 1242.85 631.124 1242.84 631.478ZM1248.84 640.755C1248.99 641.351 1249.46 642.786 1249.88 643.956C1250.62 646.004 1250.63 646.142 1250.09 647.97C1249.22 650.871 1248.85 650.752 1248.97 647.614C1249.11 644.017 1248.54 640.585 1247.51 638.711C1247.21 638.17 1247.28 638.198 1247.85 638.858C1248.31 639.417 1248.64 640.062 1248.84 640.755ZM1253.95 644.124C1254.22 644.39 1254.55 644.581 1254.92 644.677C1255.23 644.753 1255.52 644.885 1255.78 645.068C1256.73 645.533 1257.77 645.787 1258.83 645.811C1259.22 645.783 1259.6 645.892 1259.91 646.119C1260.26 646.353 1260.61 646.483 1260.71 646.419C1261.07 646.379 1261.44 646.417 1261.79 646.529C1262.31 646.654 1262.84 646.657 1263.36 646.538C1264.03 646.324 1264.54 646.57 1264.04 646.873C1263.56 647.169 1262.97 649.232 1262.66 651.686C1262.33 654.334 1262.79 660.915 1263.42 662.45C1263.62 662.926 1263.69 663.36 1263.58 663.426C1262.91 663.211 1262.29 662.878 1261.74 662.442C1259.81 661.069 1257.78 659.847 1255.66 658.788C1253.53 658.082 1251.33 657.59 1249.1 657.318C1248.45 657.284 1247.87 657.111 1247.8 656.931C1248.12 656.055 1248.6 655.246 1249.21 654.545C1249.85 653.752 1250.4 652.898 1250.86 651.996C1250.96 651.661 1251.12 651.35 1251.34 651.083C1251.92 649.979 1252.19 648.739 1252.13 647.494C1252.08 646.955 1252.13 646.413 1252.26 645.89C1252.41 645.318 1252.45 644.727 1252.4 644.14L1252.27 643.473L1253.01 643.642C1253.37 643.701 1253.7 643.87 1253.95 644.124ZM1268.05 645.58C1268.66 645.557 1268.39 646.095 1266.91 647.81C1266.27 648.512 1265.69 649.263 1265.17 650.056C1265.09 650.266 1264.97 650.376 1264.92 650.294C1264.98 649.411 1265.22 648.55 1265.64 647.77C1265.87 647.5 1266.04 647.187 1266.14 646.848C1266.3 646.47 1266.56 646.145 1266.9 645.919C1267.24 645.693 1267.64 645.575 1268.05 645.58Z" fill="#FFA3A4"/>
<g clip-path="url(#clip0_3271_57)">
<path d="M5.34446 666.2C5.00938 664.781 5.40168 663.501 5.51568 662.225C5.82231 658.793 6.23478 655.37 6.62646 651.947C6.68407 651.443 6.33519 651.201 6.09831 650.898C4.21054 648.48 2.30098 646.079 0.408582 643.665C-0.226074 642.855 -0.158508 642.63 0.874087 642.444C5.85656 641.547 10.8436 640.676 15.8299 639.8C21.8835 638.737 27.9794 637.964 34.0729 637.2C38.7578 636.613 43.4473 635.971 48.182 635.905C49.4477 635.887 49.9246 636.347 49.9973 637.454C50.0352 638.032 49.667 638.32 49.3411 638.656C41.6535 646.571 33.9644 654.486 26.2739 662.398C24.8971 663.815 23.5086 665.219 22.1226 666.627C21.9104 666.848 21.6865 667.057 21.4519 667.254C20.3445 668.157 20.1549 668.15 19.2646 667.042C18.2403 665.767 17.2216 664.485 16.2543 663.165C15.8125 662.562 15.4259 662.514 14.7388 662.787C11.8547 663.936 8.93869 665.002 6.03136 666.09C5.806 666.147 5.57616 666.184 5.34446 666.2ZM47.0863 639.544L46.9213 639.347C35.5952 645.595 23.9684 651.25 12.4232 657.268C15.0701 660.675 17.6541 663.897 20.3867 666.954C29.3212 657.782 38.2211 648.645 47.0863 639.544ZM1.0201 643.419C3.14498 645.953 5.17301 648.37 7.1988 650.789C7.47184 651.115 7.73727 650.906 8.0168 650.803C19.0733 646.72 30.1301 642.638 41.1871 638.556C42.6282 638.024 44.0578 637.459 45.4927 636.909C30.6226 638.341 15.9486 640.933 1.0201 643.419ZM6.03209 664.598C6.45495 664.546 6.50876 664.274 6.6378 664.096C8.06039 662.136 9.47724 660.172 10.8883 658.204C11.4599 657.391 12.2294 656.742 13.122 656.321C13.8855 655.96 14.6474 655.593 15.3914 655.194C26.2388 649.368 37.0959 643.562 48.0997 638.043C48.5424 637.821 49.3693 637.719 49.0799 637.005C48.7787 636.262 48.1077 636.848 47.6824 637.004C38.3502 640.447 28.9069 643.575 19.6327 647.182C15.8959 648.636 12.1231 649.994 8.36724 651.397C8.05733 651.478 7.78109 651.657 7.57906 651.908C7.37702 652.16 7.25982 652.47 7.24468 652.794C7.02813 655.175 6.73515 657.549 6.48535 659.928C6.32324 661.471 6.18471 663.017 6.03209 664.598ZM11.9543 658.004C10.3439 660.286 8.82274 662.441 7.30162 664.596C9.99561 663.934 12.6224 663.017 15.1477 661.858C14.0748 660.563 13.0658 659.345 11.9543 658.004Z" fill="#537EFE"/>
</g>
<g clip-path="url(#clip1_3271_57)">
<path d="M1256.93 38.2826C1256.73 37.6146 1256.75 37.1559 1257.58 37.2304C1258.79 37.3405 1258.79 37.3384 1259.54 36.111C1259.3 35.7986 1259.05 35.4466 1258.77 35.132C1256.44 32.572 1256.06 29.5788 1256.85 26.3532C1257.96 21.7882 1260.74 18.5115 1265.05 16.7958C1266.67 16.1147 1268.43 15.8434 1270.18 16.0059C1271.93 16.1684 1273.61 16.7597 1275.07 17.7275C1279.41 20.5322 1281.53 24.9375 1280.43 30.2915C1279.83 33.6928 1277.95 36.7339 1275.17 38.7846C1273.5 40.075 1271.39 40.6687 1269.29 40.4418C1268.74 40.387 1268.2 40.3619 1267.61 40.3204C1267.5 40.6172 1267.37 40.9057 1267.21 41.184C1266.9 41.6698 1266.97 41.9683 1267.48 42.3114C1268.31 42.8773 1268.25 43.2875 1267.34 43.7198C1267.45 44.2165 1267.72 44.7941 1266.96 45.0523C1266.63 45.164 1266.85 45.3883 1266.88 45.553C1266.97 46.0543 1266.77 46.4178 1266.28 46.3931C1266.04 46.3952 1265.8 46.4495 1265.59 46.552C1265.37 46.6546 1265.18 46.8029 1265.03 46.9867C1264.15 47.6926 1263.18 48.2831 1262.14 48.7441C1262.01 48.8049 1261.87 48.8342 1261.73 48.8299C1261.59 48.8255 1261.45 48.7875 1261.32 48.7189C1259.54 48.004 1257.84 47.1133 1256.24 46.0598C1256.11 45.9965 1256 45.9033 1255.91 45.7878C1255.83 45.6724 1255.77 45.5382 1255.75 45.3965C1255.6 44.1334 1255.34 42.8708 1255.62 41.5997C1255.65 41.4768 1255.65 41.347 1255.62 41.2229C1255.59 41.0989 1255.53 40.985 1255.44 40.8926C1255.29 40.711 1255.11 40.3401 1255.21 40.2827C1256.03 39.8258 1255.77 38.482 1256.93 38.2826ZM1266.23 41.397C1266.38 41.164 1266.5 40.9155 1266.6 40.6558C1266.83 39.7689 1267.36 39.5124 1268.26 39.5726C1270.38 39.7143 1272.43 39.4284 1274.25 38.1859C1276.89 36.4934 1278.78 33.854 1279.54 30.8099C1280.85 25.4842 1278.57 21.0087 1274.33 18.3401C1271.44 16.5235 1265.68 16.3363 1261.93 19.508C1257.62 23.1602 1255.75 30.5 1259.67 34.9739C1260.44 35.8479 1260.38 36.5786 1259.68 37.3931C1259.61 37.4569 1259.56 37.5402 1259.54 37.6324C1259.51 37.7246 1259.52 37.8216 1259.55 37.9113C1260.15 38.2698 1260.78 38.646 1261.43 39.0339C1261.51 38.9294 1261.58 38.821 1261.64 38.7092C1263.5 34.9377 1264.89 30.9562 1265.8 26.8508C1265.84 26.6561 1265.84 26.452 1265.78 26.261C1265.72 26.0701 1265.6 25.8997 1265.45 25.7686C1264.77 25.1638 1264.33 24.3358 1264.21 23.4347C1264.17 22.7589 1264.37 22.1094 1265.06 21.8766C1265.82 21.6208 1266.25 22.1808 1266.55 22.7717C1266.93 23.5941 1267.06 24.5102 1266.93 25.4077C1266.9 25.6052 1266.93 25.8069 1267.01 25.99C1267.09 26.1731 1267.22 26.3304 1267.38 26.444C1268.48 27.3593 1269.76 28.0232 1271.13 28.3887C1271.31 28.4495 1271.5 28.4613 1271.68 28.4228C1271.86 28.3843 1272.03 28.2969 1272.16 28.1702C1272.82 27.5534 1273.65 27.138 1274.54 26.9724C1275.2 26.8758 1275.91 26.8901 1276.14 27.652C1276.37 28.3911 1275.92 28.9272 1275.31 29.291C1274.61 29.6759 1273.8 29.7867 1273.02 29.6017C1272.7 29.5312 1272.37 29.5569 1272.06 29.6756C1271.76 29.7943 1271.5 30.0008 1271.31 30.2689C1269.43 32.3614 1267.71 34.5869 1266.16 36.9279C1265.4 38.0481 1264.58 39.1437 1264.15 40.4585C1264.83 40.7651 1265.48 41.0612 1266.23 41.397ZM1266.74 27.0904C1265.82 31.4115 1264.25 35.5685 1262.08 39.42C1262.47 39.7688 1262.95 40.0027 1263.47 40.096C1265.39 36.1331 1267.9 32.4831 1270.91 29.2697C1269.37 28.8576 1267.95 28.1136 1266.74 27.0904ZM1264.69 46.1265C1262.04 44.4697 1259.27 43.0222 1256.4 41.7974C1256.33 42.8287 1256.32 43.8641 1256.4 44.8957C1257.57 45.0303 1258.49 45.6622 1259.47 46.1625C1260.44 46.6609 1261.45 47.0996 1262.23 47.9469C1263.09 47.3958 1263.91 46.7877 1264.69 46.1265ZM1266.76 44.4401C1266.79 44.2383 1266.74 44.034 1266.64 43.8612C1266.53 43.6885 1266.37 43.5578 1266.17 43.4908C1263.26 42.2146 1260.44 40.7384 1257.74 39.0727C1257.35 38.8336 1257.02 38.8057 1256.49 39.1949C1259.71 41.3214 1263.15 43.0808 1266.76 44.4401ZM1266.21 45.6608C1266.19 45.4654 1266.12 45.2786 1266 45.1221C1265.88 44.9657 1265.72 44.8462 1265.54 44.7774C1262.71 43.3177 1259.88 41.8409 1257.07 40.3473C1256.68 40.1431 1256.35 40.0408 1255.98 40.325C1256.49 41.0319 1265.3 45.6386 1266.21 45.6608ZM1257.78 38.1633C1260.58 40.2045 1263.66 41.8281 1266.94 42.9834C1266.71 42.6079 1258.33 38.1688 1257.78 38.1633ZM1261.57 48.152C1261.03 47.3896 1257.25 45.4631 1256.63 45.5834C1258.13 46.6915 1259.8 47.5581 1261.57 48.152ZM1275.54 27.9333C1274.47 27.706 1273.84 28.1583 1273.06 28.7361C1274.05 28.8366 1274.81 28.8159 1275.54 27.9333ZM1265.92 24.8291C1265.93 24.0441 1266.01 23.2286 1265.2 22.5418C1265.07 22.9495 1265.06 23.3908 1265.19 23.802C1265.32 24.2131 1265.57 24.5728 1265.92 24.8291Z" fill="#10218B"/>
<path d="M1275.96 45.363C1276.23 43.0714 1276.45 40.9459 1278.12 39.3012C1279.8 37.6403 1281.8 37.2575 1284.25 37.7274C1280.74 32.0817 1283.29 28.2968 1287.65 25.0264C1287.51 24.7134 1287.19 24.6893 1286.94 24.6074C1284.53 23.8135 1283.03 22.0877 1282.09 19.8254C1281.46 18.2871 1281.86 16.8549 1282.86 15.5877C1283.28 15.0466 1283.8 14.5711 1284.35 13.9744C1279.14 13.6272 1274.89 11.5151 1271.65 7.29658C1271.49 8.05872 1271.37 8.73076 1271.19 9.38211C1270.67 11.1946 1269.52 12.3425 1267.62 12.6248C1265.36 12.9605 1263.23 12.6775 1261.37 11.2081C1261.25 11.1213 1261.13 11.0434 1261 10.9751C1260.9 10.9272 1260.8 10.8844 1260.7 10.8467C1260.49 16.3098 1258.87 20.62 1252.19 20.9493C1253.96 22.6954 1254.8 24.5505 1254.4 26.8813C1254 29.1902 1252.38 30.586 1250.71 32.0574C1251.39 32.5604 1252.17 32.7114 1252.78 33.1797C1254.12 34.197 1254.51 35.5862 1254.47 37.1702C1254.46 37.3829 1254.43 37.6044 1254.17 37.6335C1254.11 37.6416 1254.05 37.6372 1254 37.6205C1253.94 37.6038 1253.89 37.5751 1253.84 37.5365C1253.8 37.4979 1253.76 37.4501 1253.74 37.3964C1253.71 37.3427 1253.7 37.2843 1253.7 37.2251C1253.44 34.9234 1252.01 33.7577 1249.92 33.0961C1248.97 32.798 1248.99 32.2634 1249.77 31.5773C1250.46 30.9658 1251.13 30.3214 1251.82 29.7064C1252.39 29.1873 1252.84 28.5505 1253.14 27.8402C1253.44 27.1299 1253.58 26.3631 1253.55 25.5929C1253.6 24.5965 1253.26 23.6208 1252.6 22.8754C1252.22 22.4694 1251.89 22.0338 1251.58 21.573C1251.06 20.7461 1251.4 20.1205 1252.38 20.0065C1252.5 19.9932 1252.61 19.9927 1252.73 19.9855C1255.9 19.7894 1258 18.1367 1259 15.0822C1259.45 13.673 1259.68 12.203 1259.69 10.7232C1259.69 10.29 1259.64 9.79207 1260.11 9.57681C1260.59 9.36165 1260.94 9.74694 1261.27 10.0105C1262.05 10.6655 1262.95 11.1519 1263.93 11.4389C1264.91 11.726 1265.93 11.8075 1266.94 11.6783C1269.04 11.4456 1270.07 10.5476 1270.53 8.50099C1270.65 7.96503 1270.72 7.41738 1270.81 6.87371C1270.86 6.5268 1270.87 6.12358 1271.3 6.04671C1271.69 5.97671 1271.9 6.29573 1272.14 6.5658C1272.93 7.59183 1273.8 8.56629 1274.72 9.48334C1277.39 11.8889 1280.62 12.9474 1284.16 13.1318C1284.42 13.1454 1284.69 13.132 1284.94 13.1608C1285.09 13.15 1285.23 13.187 1285.36 13.2663C1285.48 13.3455 1285.57 13.4627 1285.63 13.6001C1285.71 13.8914 1285.53 14.0887 1285.34 14.2803C1284.79 14.8333 1284.22 15.3709 1283.7 15.9555C1283.26 16.4075 1282.97 16.9791 1282.85 17.5983C1282.74 18.2174 1282.81 18.8564 1283.06 19.4346C1283.45 20.5167 1284.1 21.4915 1284.93 22.2809C1285.77 23.0703 1286.78 23.6522 1287.89 23.98C1288.03 24.0128 1288.17 24.0539 1288.3 24.1032C1288.61 24.2446 1289.01 24.3055 1289.08 24.7163C1289.15 25.1519 1288.84 25.4034 1288.53 25.6256C1286.84 26.7582 1285.43 28.2707 1284.43 30.0424C1283.23 32.2497 1283.4 34.3774 1284.6 36.5004C1284.75 36.7424 1284.9 36.9929 1285.03 37.2508C1285.11 37.3834 1285.15 37.5347 1285.15 37.689C1285.15 37.8433 1285.11 37.995 1285.04 38.1284C1284.96 38.2618 1284.85 38.372 1284.71 38.4476C1284.58 38.5232 1284.42 38.5615 1284.27 38.5584C1283.72 38.5859 1283.17 38.5672 1282.62 38.5025C1281.49 38.4422 1280.37 38.7613 1279.44 39.4093C1278.51 40.0572 1277.83 40.997 1277.49 42.0797C1277.18 43.2868 1276.98 44.5193 1276.9 45.762C1276.81 46.831 1276.43 47.0236 1275.49 46.5037C1275.25 46.3857 1275.03 46.245 1274.83 46.0836C1274.29 45.5861 1273.61 45.2634 1272.89 45.1579C1272.17 45.0525 1271.43 45.1693 1270.77 45.4929C1270.53 45.5964 1270.28 45.6758 1270.04 45.7668C1269.8 45.8559 1269.55 45.8615 1269.42 45.6167C1269.28 45.3458 1269.52 45.2072 1269.69 45.0523C1270.39 44.4542 1271.26 44.0928 1272.18 44.0196C1273.1 43.9464 1274.02 44.1652 1274.8 44.6447C1275.15 44.8538 1275.49 45.0692 1275.96 45.363Z" fill="#10218B"/>
</g>
<g clip-path="url(#clip2_3271_57)">
<path d="M119.682 74.8101C120.347 77.1261 120.994 79.3794 121.642 81.6322C121.68 81.7667 121.694 81.9787 121.782 82.0185C123.693 82.8847 123.913 84.8645 124.612 86.4569C125.664 88.8544 126.448 91.3683 127.393 93.9603C126.631 93.8877 126.19 94.3237 125.713 94.6821C125.298 94.2311 124.979 93.7019 124.774 93.1258C124.602 93.7528 125.02 94.1798 124.989 94.7439C124.612 95.0431 124.315 95.0705 124.087 94.5074C123.734 93.6327 123.279 92.7924 122.994 91.8974C122.211 89.4302 121.108 87.0531 120.808 84.4464C120.765 84.0672 120.612 83.5912 120.776 83.3172C121.357 82.3456 120.862 81.5042 120.604 80.6243C120.153 78.8244 119.548 77.066 118.797 75.3681C117.002 76.4753 115.256 77.6034 113.508 78.8892C114.763 83.2617 115.957 87.6211 117.291 91.9379C117.477 92.4426 117.513 92.9898 117.396 93.5145C117.279 94.0393 117.013 94.5195 116.629 94.8984C114.854 96.7942 112.783 98.3934 110.496 99.6345C105.068 102.79 99.1166 104.439 93.0402 105.696C88.6467 106.605 84.2052 106.943 79.7559 105.968C79.3442 105.878 78.9356 105.769 78.5324 105.647C78.0275 105.514 77.5703 105.242 77.213 104.863C76.8557 104.484 76.6128 104.013 76.512 103.503C75.4694 99.7183 74.2831 95.9726 73.1606 92.2093C72.6237 90.4095 72.6329 90.3881 70.7114 90.3381C67.4127 90.2524 64.1133 90.1938 60.8142 90.1204C60.5682 90.1171 60.3227 90.0969 60.0795 90.0599C59.7507 90.0067 59.4524 89.8691 59.3984 89.5029C59.3511 89.1818 59.6017 89.0302 59.8323 88.8482C65.5773 84.3095 71.3169 79.764 77.051 75.2117C80.3963 72.5483 83.7238 69.8629 87.0335 67.1553C87.3116 66.9182 87.6382 66.7441 87.9907 66.6452C88.3432 66.5462 88.7132 66.5248 89.0748 66.5823C100.333 67.9457 111.591 69.3046 122.85 70.6589C123.381 70.7237 124.209 70.3837 124.392 71.1707C124.558 71.8796 123.784 72.1229 123.317 72.4426C122.132 73.2545 120.911 74.0145 119.682 74.8101ZM60.5306 89.2063C61.7075 89.2714 62.5823 89.3588 63.4575 89.3625C73.5046 89.4045 83.5392 89.8242 93.5695 90.3577C94.3721 90.419 95.1703 90.1923 95.8194 89.7188C102.763 84.9021 109.741 80.1349 116.862 75.5796C118.941 74.2497 121.122 73.0664 123.101 71.439C122.866 71.3887 122.732 71.3475 122.594 71.3318C111.289 70.0416 99.9834 68.7504 88.6783 67.4584C88.5249 67.4323 88.3676 67.4404 88.2177 67.4819C88.0678 67.5235 87.9291 67.5976 87.8114 67.6988C82.3796 72.0742 76.7985 76.2619 71.4006 80.6817C67.9059 83.5431 64.2941 86.2632 60.5306 89.2063ZM74.2309 91.4066C75.1026 95.5796 76.1925 99.7046 77.4962 103.765C77.5553 103.945 77.6603 104.108 77.8009 104.236C77.9416 104.365 78.1133 104.455 78.2993 104.498C80.0227 105.114 81.8332 105.454 83.6636 105.505C86.5777 105.575 89.4914 105.351 92.3604 104.839C98.4349 103.801 104.303 101.803 109.742 98.9196C112.075 97.6919 114.18 96.0769 115.965 94.1441C116.225 93.893 116.41 93.5761 116.501 93.2278C116.592 92.8795 116.585 92.5131 116.482 92.1682C115.798 89.2626 114.77 86.4645 113.931 83.6091C113.621 82.5553 113.173 81.5415 112.788 80.5097C110.148 82.2094 107.557 83.8791 104.965 85.5461C102.339 87.2342 99.6877 88.8831 97.0977 90.6232C96.0359 91.3546 94.7603 91.7152 93.4705 91.6486C87.4047 91.4656 81.3367 91.354 75.2697 91.2074C74.9106 91.143 74.5402 91.2141 74.2309 91.4066Z" fill="#F58BD2"/>
<path d="M62.0299 88.4972C63.367 88.3913 64.7107 88.3975 66.0468 88.5156C75.0984 88.7839 84.1494 89.0692 93.2 89.3714C94.2139 89.4249 95.2157 89.1324 96.0397 88.5423C103.658 83.2923 111.293 78.0661 118.945 72.8637C119.585 72.3245 120.334 71.9292 121.142 71.7051C120.379 72.4618 119.528 73.1261 118.608 73.684C111.032 78.8187 103.437 83.926 95.8762 89.0837C95.1043 89.6473 94.1598 89.9271 93.2036 89.8754C83.2421 89.5315 73.2783 89.2504 63.3161 88.925C62.9338 88.9125 62.4061 89.1307 62.0299 88.4972Z" fill="#F58BD2"/>
</g>
<g clip-path="url(#clip3_3271_57)">
<path d="M1437.89 383.193C1435.9 386.908 1433.22 389.778 1428.81 389.635C1424.62 389.499 1421.21 387.579 1419.21 383.523C1417.72 384.264 1416.47 383.499 1415.28 382.476C1410.86 384.466 1407.23 382.923 1404.06 379.839C1401.34 377.192 1399.72 374.143 1401.54 370.219C1398.5 367.826 1397.09 364.861 1398.5 361.02C1400.15 356.529 1403.31 354.378 1408.14 355.084C1409.41 350.73 1412.01 348.19 1415.45 347.954C1419.34 347.688 1422.92 348.439 1425.84 351.322C1427.18 350.158 1428.79 349.344 1430.52 348.953C1432.25 348.562 1434.05 348.605 1435.76 349.08C1439.21 349.982 1442.58 351.136 1444.14 354.971C1445.79 354.564 1447.49 354.352 1449.2 354.34C1453.9 354.454 1458.59 358 1459.73 362.373C1460.57 365.577 1459.77 368.917 1457.24 370.349C1455.72 371.221 1454.46 372.487 1453.59 374.012C1453.42 374.32 1453.34 374.675 1453.38 375.027C1453.4 378.708 1451.57 381.414 1448.68 383.429C1447.38 384.391 1445.84 384.975 1444.24 385.119C1442.63 385.262 1441.01 384.958 1439.57 384.242C1438.99 383.931 1438.43 383.581 1437.89 383.193ZM1454.1 369.587C1455.23 370.056 1455.85 369.555 1456.44 368.996C1458.91 366.677 1458.93 362.417 1456.32 359.616C1453.15 356.208 1449.26 354.953 1444.71 356.304C1443.76 356.586 1443.22 356.447 1442.81 355.483C1442.28 354.333 1441.41 353.379 1440.31 352.756C1438.51 351.592 1436.5 350.794 1434.4 350.406C1431.37 349.917 1428.61 350.443 1426.51 352.948C1425.95 353.624 1425.34 353.532 1424.86 352.88C1423.24 350.719 1420.91 349.876 1418.42 349.389C1414.42 348.608 1409.36 351.201 1409.67 355.579C1409.73 356.498 1409.15 356.776 1408.25 356.447C1407.81 356.274 1407.34 356.172 1406.86 356.144C1403.46 356.001 1401.37 357.746 1400.02 360.704C1398.53 363.948 1399.23 367.009 1402.1 369.097C1402.86 369.651 1403.1 370.196 1402.62 371.042C1402.04 372.133 1401.92 373.404 1402.27 374.587C1403.47 379.666 1409.57 383.098 1414.49 381.486C1414.79 381.347 1415.13 381.312 1415.45 381.384C1415.77 381.457 1416.05 381.633 1416.26 381.886C1417.42 383.116 1417.86 383.143 1419.28 382.249C1419.75 381.95 1420.08 381.885 1420.24 382.541C1421.1 385.978 1427.39 388.964 1430.47 387.958C1431.84 387.527 1433.11 386.8 1434.17 385.828C1435.23 384.856 1436.07 383.663 1436.62 382.332C1437.15 381.152 1437.65 381.02 1438.58 381.914C1439.42 382.742 1440.47 383.323 1441.62 383.592C1447.37 384.971 1452.25 379.14 1451.9 374.926C1451.87 374.602 1451.75 374.257 1452.08 374.012C1453.5 372.971 1454.37 371.65 1454.1 369.587Z" fill="#138266"/>
<path d="M1406.93 348.919C1406.39 350.514 1405.49 351.561 1404.49 351.215C1402.9 350.665 1401.12 350.268 1399.97 348.903C1399.76 348.631 1399.62 348.317 1399.54 347.983C1399.47 347.648 1399.47 347.302 1399.55 346.968C1399.62 346.634 1399.77 346.32 1399.98 346.05C1400.19 345.779 1400.46 345.558 1400.76 345.402C1401.1 345.202 1401.4 345.087 1401.57 344.622C1401.76 344.124 1402.07 343.682 1402.48 343.34C1402.89 342.998 1403.38 342.767 1403.9 342.669C1404.43 342.57 1404.97 342.608 1405.47 342.778C1405.98 342.949 1406.43 343.246 1406.79 343.641C1406.9 343.817 1407.06 343.963 1407.25 344.065C1407.43 344.168 1407.64 344.225 1407.85 344.231C1409.35 344.243 1410.55 345.199 1410.55 346.269C1410.54 347.574 1408.88 349.039 1407.44 349.001C1407.26 348.985 1407.1 348.958 1406.93 348.919ZM1403.14 349.195C1403.47 349.754 1403.77 350.381 1404.62 350.204C1404.92 350.17 1405.2 350.047 1405.42 349.849C1405.65 349.652 1405.8 349.391 1405.88 349.101C1406.03 348.151 1406.3 347.89 1407.32 348.145C1408.22 348.373 1408.88 347.646 1409.33 346.89C1409.48 346.694 1409.54 346.45 1409.52 346.207C1409.49 345.964 1409.37 345.741 1409.19 345.581C1408.58 345.021 1407.93 344.708 1407.11 345.23C1406.61 345.552 1406.35 345.27 1406.12 344.774C1405.95 344.425 1405.66 344.145 1405.3 343.978C1404.95 343.811 1404.55 343.766 1404.17 343.85C1403.77 343.843 1403.39 343.979 1403.09 344.231C1402.79 344.484 1402.59 344.836 1402.52 345.224C1402.46 345.577 1402.44 345.89 1401.95 346.031C1400.52 346.44 1400.03 347.294 1400.45 348.445C1400.83 349.477 1401.81 349.76 1403.14 349.195Z" fill="#138266"/>
<path d="M1411.16 341.11C1409.42 341.234 1409.36 339.876 1408.76 339.162C1408.31 338.636 1408.67 337.974 1409.22 337.546C1409.46 337.319 1409.63 337.026 1409.7 336.703C1409.8 336.308 1410.03 335.957 1410.35 335.702C1410.67 335.447 1411.06 335.301 1411.47 335.285C1411.88 335.254 1412.29 335.348 1412.64 335.553C1412.99 335.759 1413.28 336.067 1413.45 336.436C1413.69 336.845 1413.96 337.229 1414.27 337.584C1414.93 338.409 1414.93 339.265 1414.21 339.836C1413.22 340.614 1411.89 340.555 1411.16 341.11ZM1410.95 340.435C1411.1 340.376 1411.28 340.361 1411.37 340.264C1411.61 340.008 1411.91 339.806 1412.23 339.67C1412.56 339.534 1412.91 339.468 1413.26 339.475C1413.43 339.454 1413.59 339.369 1413.69 339.237C1413.8 339.106 1413.86 338.938 1413.85 338.768C1413.87 338.602 1413.84 338.433 1413.76 338.286C1413.68 338.138 1413.55 338.021 1413.4 337.951C1413.22 337.912 1413.06 337.816 1412.95 337.677C1412.83 337.539 1412.77 337.366 1412.76 337.185C1412.73 336.886 1412.59 336.609 1412.36 336.412C1412.13 336.214 1411.84 336.111 1411.54 336.122C1410.85 336.131 1410.45 336.655 1410.32 337.345C1410.26 337.652 1410.46 338.089 1410.06 338.23C1409.63 338.381 1409.17 338.623 1409.55 339.013C1410.01 339.481 1410.16 340.295 1410.95 340.435Z" fill="#138266"/>
<path d="M1417.75 336.046C1416.58 336.033 1415.86 335.456 1415.86 334.526C1415.93 334.097 1416.15 333.707 1416.48 333.429C1416.82 333.15 1417.24 333.002 1417.67 333.012C1418.11 333.022 1418.52 333.189 1418.84 333.482C1419.16 333.775 1419.37 334.174 1419.42 334.606C1419.4 335.545 1418.81 336.057 1417.75 336.046ZM1417.53 333.817C1417.04 333.841 1416.6 334.038 1416.64 334.55C1416.68 334.787 1416.8 335.001 1416.99 335.149C1417.18 335.296 1417.42 335.366 1417.66 335.344C1417.76 335.354 1417.87 335.344 1417.96 335.314C1418.06 335.283 1418.15 335.234 1418.22 335.167C1418.3 335.101 1418.36 335.02 1418.41 334.929C1418.45 334.838 1418.48 334.739 1418.48 334.638C1418.51 334.031 1418.01 333.911 1417.53 333.817Z" fill="#138266"/>
</g>
<defs>
<clipPath id="clip0_3271_57">
<rect width="50" height="32" fill="white" transform="translate(0 635.904)"/>
</clipPath>
<clipPath id="clip1_3271_57">
<rect width="37.9489" height="42.6991" fill="white" transform="translate(1261.69 0.884766) rotate(27.6153)"/>
</clipPath>
<clipPath id="clip2_3271_57">
<rect width="68" height="40" fill="white" transform="translate(59.3927 66.5547)"/>
</clipPath>
<clipPath id="clip3_3271_57">
<rect width="62.1" height="56.6273" fill="white" transform="translate(1397.95 333.014)"/>
</clipPath>
</defs>
</svg>
