<svg width="69" height="41" viewBox="0 0 69 41" fill="none" xmlns="http://www.w3.org/2000/svg">
<g clip-path="url(#clip0_281_1341)">
<path d="M60.8893 8.49041C61.5542 10.8064 62.2008 13.0597 62.8488 15.3125C62.8875 15.447 62.9014 15.659 62.9893 15.6988C64.9002 16.565 65.1201 18.5448 65.819 20.1372C66.8712 22.5347 67.6552 25.0486 68.5996 27.6406C67.8381 27.568 67.397 28.004 66.9198 28.3624C66.5053 27.9114 66.186 27.3822 65.9809 26.8061C65.8091 27.4331 66.2273 27.8601 66.1958 28.4241C65.8193 28.7234 65.5218 28.7508 65.2942 28.1877C64.9408 27.313 64.4857 26.4727 64.2015 25.5777C63.4182 23.1105 62.3153 20.7333 62.0155 18.1267C61.9719 17.7475 61.8194 17.2715 61.9832 16.9975C62.5638 16.0259 62.0695 15.1845 61.8113 14.3046C61.3597 12.5047 60.755 10.7463 60.0038 9.04837C58.2092 10.1556 56.463 11.2837 54.7147 12.5695C55.97 16.942 57.1641 21.3014 58.4977 25.6182C58.6836 26.1229 58.7202 26.6701 58.6029 27.1948C58.4857 27.7196 58.2196 28.1998 57.8362 28.5787C56.0607 30.4745 53.9899 32.0737 51.7034 33.3148C46.2747 36.4705 40.3236 38.1198 34.2472 39.3766C29.8537 40.2854 25.4122 40.6234 20.9629 39.6488C20.5512 39.5586 20.1426 39.4497 19.7395 39.3271C19.2345 39.1942 18.7773 38.9227 18.42 38.5437C18.0628 38.1647 17.8198 37.6934 17.719 37.1836C16.6765 33.3986 15.4901 29.6529 14.3676 25.8896C13.8308 24.0898 13.8399 24.0684 11.9184 24.0184C8.61975 23.9327 5.32031 23.8741 2.02127 23.8007C1.77524 23.7974 1.52973 23.7772 1.2865 23.7402C0.957684 23.687 0.659422 23.5494 0.605404 23.1832C0.558139 22.8621 0.808728 22.7105 1.03929 22.5285C6.78437 17.9898 12.524 13.4443 18.2581 8.89204C21.6034 6.22865 24.9308 3.54315 28.2405 0.835559C28.5186 0.598473 28.8452 0.424424 29.1978 0.325476C29.5503 0.226527 29.9202 0.20505 30.2819 0.262548C41.5399 1.62597 52.7985 2.98485 64.0575 4.33917C64.5884 4.40396 65.416 4.06398 65.5995 4.85098C65.7648 5.55988 64.991 5.80316 64.5242 6.12293C63.3393 6.93483 62.1185 7.69484 60.8893 8.49041ZM1.73762 22.8866C2.91454 22.9517 3.78936 23.0391 4.66452 23.0428C14.7116 23.0848 24.7462 23.5045 34.7765 24.038C35.5791 24.0993 36.3773 23.8726 37.0264 23.3991C43.9701 18.5824 50.9479 13.8152 58.0695 9.25987C60.1485 7.93002 62.3288 6.74672 64.3076 5.11934C64.0733 5.06897 63.9386 5.0278 63.801 5.01211C52.4956 3.72187 41.1904 2.43073 29.8853 1.13871C29.7319 1.11263 29.5746 1.12067 29.4247 1.16223C29.2749 1.20379 29.1361 1.27786 29.0184 1.37911C23.5866 5.75447 18.0055 9.94225 12.6076 14.362C9.1129 17.2234 5.5011 19.9435 1.73762 22.8866ZM15.438 25.0869C16.3096 29.2599 17.3995 33.3849 18.7032 37.4449C18.7623 37.6256 18.8673 37.788 19.008 37.9166C19.1487 38.0451 19.3203 38.1353 19.5063 38.1785C21.2297 38.7939 23.0403 39.1339 24.8706 39.1857C27.7847 39.2549 30.6984 39.0316 33.5675 38.5192C39.642 37.4815 45.5102 35.4831 50.9495 32.5999C53.2822 31.3722 55.3868 29.7572 57.1725 27.8244C57.4316 27.5733 57.6167 27.2564 57.7078 26.9081C57.7988 26.5598 57.7923 26.1934 57.689 25.8485C57.0049 22.9429 55.9775 20.1448 55.1376 17.2894C54.8277 16.2356 54.3802 15.2218 53.9955 14.19C51.3553 15.8897 48.7644 17.5594 46.1719 19.2264C43.5465 20.9145 40.8947 22.5634 38.3048 24.3035C37.243 25.0349 35.9674 25.3955 34.6776 25.3289C28.6117 25.1459 22.5437 25.0343 16.4767 24.8877C16.1176 24.8233 15.7472 24.8944 15.438 25.0869Z" fill="#F58BD2"/>
<path d="M3.23682 22.178C4.57394 22.0721 5.91765 22.0783 7.25374 22.1964C16.3053 22.4647 25.3563 22.75 34.4069 23.0522C35.4208 23.1057 36.4226 22.8132 37.2466 22.2231C44.8652 16.9731 52.5004 11.7469 60.1521 6.54445C60.7917 6.00526 61.5411 5.61004 62.3487 5.38586C61.5854 6.14258 60.7348 6.80684 59.8147 7.3648C52.2385 12.4995 44.6434 17.6068 37.0831 22.7645C36.3112 23.328 35.3667 23.6078 34.4105 23.5562C24.449 23.2123 14.4852 22.9312 4.52305 22.6058C4.14074 22.5933 3.61296 22.8115 3.23682 22.178Z" fill="#F58BD2"/>
</g>
<defs>
<clipPath id="clip0_281_1341">
<rect width="68" height="40" fill="white" transform="translate(0.599609 0.235901)"/>
</clipPath>
</defs>
</svg>
