<svg width="54" height="56" viewBox="0 0 54 56" fill="none" xmlns="http://www.w3.org/2000/svg">
<g clip-path="url(#clip0_281_1338)">
<path d="M15.1327 37.9638C14.9322 37.2958 14.9619 36.8371 15.7828 36.9116C16.9975 37.0218 16.9977 37.0196 17.7491 35.7922C17.5032 35.4798 17.2588 35.1278 16.9733 34.8132C14.649 32.2532 14.2663 29.26 15.0528 26.0344C16.1659 21.4694 18.9499 18.1927 23.2546 16.477C24.8734 15.7959 26.6353 15.5246 28.384 15.6871C30.1327 15.8496 31.8144 16.441 33.2799 17.4087C37.6157 20.2134 39.7337 24.6187 38.6371 29.9728C38.0403 33.374 36.1575 36.4151 33.3791 38.4658C31.7043 39.7562 29.5957 40.3499 27.4936 40.123C26.95 40.0682 26.4034 40.0431 25.8194 40.0016C25.7066 40.2984 25.5732 40.587 25.4203 40.8652C25.1107 41.351 25.1793 41.6496 25.6835 41.9926C26.515 42.5585 26.4575 42.9687 25.5485 43.401C25.6559 43.8977 25.9271 44.4753 25.1637 44.7335C24.8334 44.8452 25.061 45.0695 25.0898 45.2342C25.1775 45.7355 24.9721 46.099 24.4846 46.0743C24.2461 46.0765 24.0109 46.1307 23.7956 46.2332C23.5802 46.3358 23.3899 46.4841 23.2378 46.6679C22.3541 47.3738 21.3842 47.9643 20.3515 48.4254C20.2216 48.4861 20.0793 48.5155 19.936 48.5111C19.7927 48.5067 19.6525 48.4687 19.5266 48.4001C17.748 47.6853 16.0452 46.7945 14.4438 45.741C14.3149 45.6777 14.2032 45.5845 14.1178 45.469C14.0325 45.3536 13.9761 45.2194 13.9533 45.0777C13.8037 43.8146 13.544 42.552 13.8239 41.2809C13.859 41.1581 13.8614 41.0282 13.8308 40.9041C13.8001 40.7801 13.7376 40.6662 13.6493 40.5738C13.4957 40.3923 13.3143 40.0213 13.4175 39.9639C14.2385 39.507 13.9752 38.1632 15.1327 37.9638ZM24.4327 41.0783C24.5845 40.8452 24.7111 40.5967 24.8106 40.337C25.0353 39.4502 25.5681 39.1936 26.4702 39.2539C28.5906 39.3955 30.6321 39.1096 32.4558 37.8671C35.0963 36.1746 36.9884 33.5352 37.7434 30.4911C39.0614 25.1654 36.7808 20.6899 32.5394 18.0214C29.6518 16.2047 23.8821 16.0175 20.136 19.1892C15.8225 22.8414 13.9573 30.1813 17.8797 34.6551C18.6459 35.5291 18.5837 36.2598 17.8865 37.0743C17.816 37.1382 17.7659 37.2214 17.7425 37.3136C17.7192 37.4058 17.7236 37.5029 17.7552 37.5926C18.3569 37.9511 18.9882 38.3273 19.639 38.7151C19.7154 38.6106 19.7864 38.5023 19.8516 38.3904C21.7074 34.6189 23.1016 30.6374 24.004 26.532C24.0517 26.3373 24.0447 26.1332 23.9837 25.9422C23.9228 25.7513 23.8102 25.5809 23.6585 25.4498C22.9797 24.845 22.5401 24.017 22.4194 23.1159C22.3778 22.4401 22.5743 21.7906 23.2684 21.5578C24.0312 21.302 24.4543 21.862 24.7546 22.453C25.1373 23.2753 25.2715 24.1914 25.1408 25.0889C25.1115 25.2864 25.1381 25.4881 25.2175 25.6712C25.2969 25.8544 25.426 26.0116 25.5901 26.1252C26.6827 27.0405 27.9632 27.7044 29.3408 28.0699C29.5155 28.1307 29.7036 28.1425 29.8845 28.104C30.0654 28.0655 30.2324 27.9781 30.3672 27.8514C31.0315 27.2346 31.8573 26.8193 32.7486 26.6536C33.4031 26.557 34.1131 26.5713 34.3499 27.3332C34.5797 28.0723 34.1292 28.6084 33.5121 28.9722C32.8167 29.3571 32.0025 29.4679 31.2295 29.283C30.9098 29.2124 30.5764 29.2381 30.2713 29.3568C29.9662 29.4755 29.7032 29.682 29.5153 29.9501C27.6406 32.0426 25.9198 34.2681 24.3664 36.6091C23.6116 37.7293 22.7822 38.8249 22.3552 40.1397C23.0339 40.4463 23.6892 40.7424 24.4327 41.0783ZM24.9437 26.7716C24.0238 31.0928 22.455 35.2497 20.2906 39.1013C20.6817 39.45 21.1615 39.6839 21.6772 39.7772C23.596 35.8143 26.1029 32.1643 29.1129 28.9509C27.5802 28.5388 26.1569 27.7948 24.9437 26.7716ZM22.8924 45.8077C20.249 44.1509 17.4801 42.7034 14.6109 41.4786C14.5341 42.5099 14.5318 43.5453 14.6043 44.5769C15.7771 44.7115 16.7008 45.3435 17.6757 45.8438C18.6471 46.3421 19.6604 46.7808 20.437 47.6281C21.2953 47.0771 22.1157 46.4689 22.8924 45.8077ZM24.9716 44.1213C24.9966 43.9195 24.9516 43.7152 24.8443 43.5424C24.737 43.3697 24.5737 43.239 24.3817 43.172C21.4702 41.8958 18.6505 40.4196 15.9428 38.754C15.5556 38.5148 15.2241 38.4869 14.6949 38.8761C17.9139 41.0027 21.361 42.762 24.9716 44.1213ZM24.4138 45.342C24.398 45.1466 24.3268 44.9598 24.2086 44.8034C24.0905 44.6469 23.9302 44.5274 23.7466 44.4587C20.9139 42.9989 18.09 41.5222 15.2748 40.0285C14.8895 39.8243 14.5601 39.7221 14.1866 40.0063C14.7015 40.7131 23.5062 45.3198 24.4138 45.342ZM15.9823 37.8445C18.7864 39.8857 21.8718 41.5093 25.1421 42.6646C24.9175 42.2892 16.5363 37.85 15.9823 37.8445ZM19.776 47.8332C19.2355 47.0708 15.4568 45.1443 14.8349 45.2646C16.3383 46.3727 18.0054 47.2393 19.776 47.8332ZM33.7458 27.6145C32.6756 27.3872 32.0508 27.8395 31.268 28.4173C32.2596 28.5178 33.0177 28.4971 33.7458 27.6145ZM24.1254 24.5103C24.1329 23.7254 24.2164 22.9099 23.4115 22.223C23.2726 22.6307 23.2669 23.072 23.3952 23.4832C23.5235 23.8943 23.7793 24.2541 24.1254 24.5103Z" fill="#10218B"/>
<path d="M34.1681 45.0438C34.4348 42.7521 34.6564 40.6266 36.3227 38.9819C38.0054 37.321 40.0053 36.9383 42.4616 37.4081C38.9485 31.7625 41.4941 27.9775 45.8583 24.7071C45.7186 24.3941 45.4002 24.37 45.1516 24.2881C42.7413 23.4942 41.2353 21.7684 40.302 19.5062C39.6674 17.9678 40.063 16.5356 41.0644 15.2684C41.492 14.7273 42.0027 14.2518 42.5612 13.6551C37.3497 13.3079 33.0949 11.1958 29.8602 6.9773C29.693 7.73944 29.5809 8.41148 29.3959 9.06283C28.8814 10.8753 27.7281 12.0232 25.8271 12.3055C23.566 12.6413 21.4336 12.3582 19.5752 10.8888C19.4587 10.802 19.3359 10.7242 19.2077 10.6558C19.1088 10.6079 19.0076 10.5651 18.9044 10.5274C18.7015 15.9905 17.0749 20.3007 10.3993 20.6301C12.1664 22.3761 13.0063 24.2312 12.6032 26.562C12.2038 28.871 10.5893 30.2668 8.91756 31.7381C9.59301 32.2411 10.377 32.3921 10.9916 32.8604C12.3268 33.8777 12.717 35.2669 12.6751 36.8509C12.6694 37.0636 12.6332 37.2851 12.3803 37.3142C12.3217 37.3224 12.2619 37.318 12.2051 37.3012C12.1483 37.2845 12.0957 37.2559 12.0509 37.2172C12.006 37.1786 11.9699 37.1308 11.9449 37.0772C11.9199 37.0235 11.9067 36.9651 11.9061 36.9058C11.6487 34.6041 10.2201 33.4384 8.12348 32.7768C7.1787 32.4787 7.19573 31.9441 7.97552 31.2581C8.67052 30.6465 9.33653 30.0021 10.0286 29.3872C10.5982 28.868 11.0481 28.2313 11.3471 27.521C11.6461 26.8107 11.7871 26.0438 11.7602 25.2736C11.8091 24.2773 11.4651 23.3015 10.8022 22.5561C10.4305 22.1501 10.0925 21.7145 9.79143 21.2538C9.26911 20.4268 9.60329 19.8013 10.5888 19.6872C10.7038 19.6739 10.8203 19.6734 10.9361 19.6663C14.11 19.4701 16.2116 17.8174 17.2031 14.7629C17.6548 13.3537 17.8884 11.8837 17.8959 10.4039C17.9005 9.97072 17.8454 9.47279 18.3218 9.25753C18.7978 9.04237 19.1496 9.42766 19.4745 9.69122C20.2542 10.3462 21.1611 10.8326 22.1381 11.1197C23.1151 11.4067 24.141 11.4882 25.1511 11.359C27.2463 11.1263 28.2803 10.2283 28.7393 8.18172C28.8596 7.64575 28.929 7.0981 29.0128 6.55444C29.0663 6.20752 29.0769 5.80431 29.5037 5.72744C29.8925 5.65744 30.1104 5.97646 30.3423 6.24652C31.1405 7.27256 32.0029 8.24702 32.9243 9.16406C35.5926 11.5697 38.8228 12.6282 42.3703 12.8126C42.6301 12.8261 42.8924 12.8127 43.1502 12.8415C43.2962 12.8307 43.4417 12.8678 43.5648 12.947C43.6879 13.0263 43.7818 13.1434 43.8324 13.2808C43.9138 13.5721 43.7347 13.7694 43.5437 13.961C42.9925 14.5141 42.4229 15.0517 41.9068 15.6362C41.4686 16.0882 41.1742 16.6599 41.0604 17.279C40.9467 17.8982 41.0188 18.5371 41.2677 19.1154C41.6608 20.1974 42.3021 21.1722 43.14 21.9616C43.978 22.751 44.9894 23.3329 46.093 23.6607C46.234 23.6935 46.3729 23.7346 46.509 23.7839C46.8175 23.9254 47.2201 23.9862 47.2889 24.3971C47.3617 24.8327 47.0508 25.0841 46.736 25.3063C45.044 26.4389 43.6403 27.9515 42.637 29.7231C41.4349 31.9304 41.6114 34.0581 42.8022 36.1811C42.961 36.4231 43.1064 36.6736 43.2376 36.9315C43.3166 37.0641 43.3586 37.2154 43.3594 37.3697C43.3602 37.5241 43.3197 37.6758 43.2421 37.8092C43.1645 37.9425 43.0526 38.0528 42.9181 38.1284C42.7836 38.2039 42.6313 38.2422 42.477 38.2391C41.9279 38.2667 41.3775 38.248 40.8315 38.1832C39.6995 38.1229 38.5798 38.442 37.6496 39.09C36.7194 39.7379 36.032 40.6777 35.6963 41.7604C35.3888 42.9675 35.1912 44.2 35.1061 45.4427C35.0148 46.5117 34.6403 46.7043 33.6947 46.1844C33.4614 46.0665 33.2403 45.9257 33.0347 45.7643C32.4975 45.2669 31.822 44.9441 31.0974 44.8386C30.3729 44.7332 29.6334 44.85 28.9767 45.1737C28.7374 45.2771 28.4879 45.3565 28.2432 45.4476C28.004 45.5366 27.7617 45.5423 27.6309 45.2975C27.4861 45.0265 27.7222 44.888 27.8957 44.733C28.5968 44.1349 29.469 43.7735 30.3876 43.7004C31.3063 43.6272 32.2246 43.8459 33.0117 44.3255C33.3555 44.5345 33.6954 44.7499 34.1681 45.0438Z" fill="#10218B"/>
</g>
<defs>
<clipPath id="clip0_281_1338">
<rect width="37.9489" height="42.6991" fill="white" transform="translate(19.8979 0.565918) rotate(27.6153)"/>
</clipPath>
</defs>
</svg>
