<svg width="54" height="57" viewBox="0 0 54 57" fill="none" xmlns="http://www.w3.org/2000/svg">
<g clip-path="url(#clip0_320_57)">
<path d="M13.0514 8.16062C13.2163 8.73942 13.4473 9.29729 13.7399 9.82322C14.0437 10.3576 14.2648 10.935 14.3959 11.5355C14.5999 12.9393 15.0543 14.295 15.7376 15.538C17.0459 18.457 17.7147 21.6221 17.6991 24.8209C17.677 25.6986 17.6957 27.1107 17.7403 27.9391C17.7854 28.7756 17.8124 29.4993 17.8007 29.5559C16.474 31.4277 14.9626 33.1615 13.2893 34.7311C11.6128 35.9302 11.0588 36.5896 10.9406 37.5276L10.8267 38.432L11.4761 38.3009C11.8613 38.2256 12.2502 38.1706 12.6411 38.1361C12.9436 38.1093 13.2246 37.9685 13.427 37.7422C13.5745 37.5459 13.7518 37.4708 13.8171 37.577C13.8833 37.6847 14.4017 37.51 14.9774 37.1863C16.5603 36.2051 18.4492 35.8413 20.2833 36.1644C20.8102 36.2706 21.3112 36.4788 21.7582 36.7773C21.9232 36.9712 22.1472 37.1057 22.3959 37.1601C23.2202 37.5338 24.0133 37.9729 24.7675 38.4733C25.7983 39.1209 26.8475 39.7658 27.0702 39.8884C27.7377 40.1715 28.3348 40.598 28.8191 41.1376C28.994 41.383 29.2165 41.5907 29.4733 41.7484C30.3565 42.2782 33.084 44.1537 33.5459 44.5487C33.8095 44.7741 34.1216 44.9099 34.2271 44.8451C34.4032 44.7369 36.1529 46.194 38.0559 48.0336C38.6023 48.5619 39.0698 48.7887 39.427 48.699C40.3219 48.4744 40.3838 47.735 39.6127 46.4806C38.4187 44.2308 37.4251 41.8803 36.6435 39.4562C36.2702 38.1958 36.2789 36.0951 36.6591 35.7143C36.8988 35.4742 37.0469 35.1818 36.9821 35.0763C36.6498 34.5357 38.5233 26.2623 39.0516 25.9375C39.2641 25.7709 39.4147 25.5379 39.4792 25.2757C39.8179 24.3679 40.3718 23.5557 41.0933 22.909C41.8983 22.1341 42.0139 22.0194 42.2036 21.8067C42.3588 21.6675 42.5332 21.5512 42.7215 21.4615C42.9939 21.2506 43.1739 20.9423 43.2238 20.6014C43.4129 19.5889 42.7187 19.1063 41.657 19.512C40.7401 19.8624 40.3371 19.6209 40.525 18.8338C40.722 18.0077 39.1629 17.927 37.3857 18.6713C36.1733 19.1548 34.8474 19.2791 33.5663 19.0294C30.7407 18.4596 27.9815 17.5996 25.3326 16.4629C23.3373 15.3162 21.4474 13.9951 19.6849 12.5153C19.1266 11.999 18.5283 11.5278 17.8956 11.1061C16.9001 10.3946 16.0321 9.5198 15.3286 8.51865C15.1375 8.17813 14.8771 7.88141 14.5643 7.64761C14.1174 7.44563 13.0529 7.80658 13.0514 8.16062ZM19.0464 17.4371C19.1993 18.0335 19.6676 19.4688 20.091 20.6389C20.8317 22.6864 20.8388 22.8247 20.2939 24.6528C19.4292 27.5536 19.0583 27.435 19.1812 24.297C19.3137 20.6995 18.7494 17.2679 17.7174 15.3935C17.4197 14.8529 17.4848 14.881 18.0594 15.5409C18.5133 16.0996 18.8491 16.7448 19.0464 17.4371ZM24.1568 20.8062C24.4243 21.0727 24.7576 21.2637 25.1228 21.3597C25.4332 21.4355 25.7269 21.5681 25.9891 21.7508C26.9397 22.2159 27.9799 22.4693 29.038 22.4934C29.4239 22.4659 29.8073 22.5748 30.1211 22.8012C30.4673 23.0352 30.8127 23.1656 30.9167 23.1017C31.2807 23.0621 31.649 23.0996 31.9976 23.2119C32.5132 23.3365 33.0507 23.3396 33.5677 23.2211C34.2405 23.007 34.7423 23.2529 34.25 23.5555C33.7681 23.8518 33.1754 25.9146 32.8671 28.3687C32.5345 31.0166 33.002 37.5972 33.6317 39.1324C33.8269 39.6084 33.8966 40.0423 33.7884 40.1087C33.1209 39.8936 32.4975 39.5603 31.9479 39.1246C30.0198 37.7512 27.9879 36.5296 25.8706 35.4708C23.7365 34.7649 21.5376 34.2724 19.3062 34.0005C18.6594 33.9663 18.0798 33.7932 18.0105 33.6135C18.3277 32.7376 18.8054 31.9285 19.4192 31.2277C20.053 30.4349 20.606 29.5809 21.0701 28.6782C21.1658 28.3439 21.3298 28.033 21.5518 27.7653C22.1316 26.6617 22.4017 25.4217 22.3335 24.1769C22.2871 23.6381 22.3338 23.0953 22.4714 22.5723C22.6125 22.0006 22.6569 21.4093 22.6028 20.8229L22.4759 20.1561L23.2199 20.3243C23.5747 20.3837 23.9022 20.5522 24.1568 20.8062ZM38.2528 22.263C38.8717 22.2397 38.5988 22.7773 37.1207 24.493C36.4803 25.1949 35.8959 25.9459 35.3727 26.739C35.2929 26.9485 35.1816 27.0582 35.1315 26.9766C35.1843 26.0937 35.4275 25.2327 35.8444 24.4526C36.0741 24.1831 36.2463 23.8695 36.3506 23.531C36.5022 23.1521 36.7652 22.8281 37.1048 22.6017C37.4444 22.3753 37.8447 22.2572 38.2528 22.263Z" fill="#FFA3A4"/>
</g>
<defs>
<clipPath id="clip0_320_57">
<rect width="37.9489" height="42.6991" fill="white" transform="translate(19.7925 0.751343) rotate(27.6153)"/>
</clipPath>
</defs>
</svg>
