<svg width="51" height="33" viewBox="0 0 51 33" fill="none" xmlns="http://www.w3.org/2000/svg">
<g clip-path="url(#clip0_281_1336)">
<path d="M5.55149 30.8824C5.21641 29.4626 5.60871 28.1824 5.72271 26.9068C6.02934 23.4748 6.44181 20.0523 6.83349 16.6285C6.8911 16.1248 6.54222 15.8831 6.30534 15.5796C4.41757 13.1616 2.50802 10.7611 0.615614 8.34677C-0.0190428 7.53704 0.0485234 7.3119 1.08112 7.12589C6.06359 6.22856 11.0506 5.35745 16.037 4.48204C22.0905 3.41926 28.1864 2.6456 34.2799 1.88173C38.9648 1.29443 43.6543 0.652752 48.389 0.586671C49.6547 0.569004 50.1317 1.02885 50.2043 2.13586C50.2423 2.71417 49.874 3.00216 49.5481 3.33766C41.8605 11.2533 34.1714 19.1675 26.4809 27.0802C25.1041 28.4966 23.7156 29.9013 22.3296 31.3085C22.1174 31.5298 21.8935 31.7393 21.6589 31.936C20.5516 32.8384 20.3619 32.8322 19.4717 31.7238C18.4474 30.4484 17.4287 29.1666 16.4613 27.847C16.0195 27.2441 15.6329 27.1954 14.9458 27.469C12.0617 28.6176 9.14573 29.6841 6.23839 30.7723C6.01303 30.8292 5.78319 30.866 5.55149 30.8824ZM47.2933 4.2257L47.1283 4.02893C35.8022 10.2766 24.1754 15.932 12.6303 21.9497C15.2771 25.3573 17.8611 28.579 20.5937 31.6363C29.5283 22.4638 38.4281 13.327 47.2933 4.2257ZM1.22713 8.10125C3.35201 10.635 5.38004 13.0518 7.40583 15.4705C7.67888 15.7965 7.9443 15.5881 8.22383 15.4849C19.2803 11.4017 30.3371 7.31944 41.3941 3.23801C42.8352 2.70551 44.2648 2.14096 45.6997 1.5913C30.8296 3.02266 16.1557 5.61476 1.22713 8.10125ZM6.23912 29.2798C6.66198 29.2274 6.71579 28.9556 6.84483 28.7779C8.26743 26.8181 9.68427 24.8539 11.0954 22.8855C11.6669 22.0729 12.4364 21.4243 13.329 21.0027C14.0925 20.6421 14.8544 20.2753 15.5985 19.8757C26.4459 14.0503 37.303 8.24412 48.3067 2.72465C48.7494 2.50262 49.5764 2.4012 49.2869 1.68723C48.9857 0.94403 48.3147 1.52947 47.8894 1.68632C38.5573 5.12909 29.114 8.25674 19.8397 11.8642C16.103 13.3178 12.3302 14.6763 8.57427 16.0792C8.26436 16.1598 7.98813 16.3389 7.78609 16.5903C7.58405 16.8417 7.46685 17.1521 7.45171 17.4759C7.23517 19.8572 6.94218 22.2313 6.69238 24.6096C6.53027 26.1527 6.39174 27.6984 6.23912 29.2798ZM12.1614 22.6858C10.5509 24.9676 9.02977 27.1228 7.50865 29.2779C10.2026 28.6155 12.8295 27.6988 15.3547 26.5399C14.2819 25.2451 13.2728 24.0272 12.1614 22.6858Z" fill="#537EFE"/>
</g>
<defs>
<clipPath id="clip0_281_1336">
<rect width="50" height="32" fill="white" transform="translate(0.207031 0.586182)"/>
</clipPath>
</defs>
</svg>
