<svg width="32" height="58" viewBox="0 0 32 58" fill="none" xmlns="http://www.w3.org/2000/svg">
<g clip-path="url(#clip0_281_1344)">
<path d="M40.0986 50.8752C38.106 54.5899 35.4272 57.4601 31.0213 57.3171C26.8272 57.181 23.4167 55.261 21.4139 51.2051C19.9233 51.9453 18.6733 51.1811 17.4895 50.1573C13.0695 52.1478 9.4397 50.6043 6.26828 47.5212C3.54484 44.8737 1.92644 41.8246 3.75097 37.9012C0.709228 35.508 -0.705166 32.5424 0.70571 28.7019C2.35555 24.2109 5.51445 22.0595 10.342 22.7661C11.6198 18.4115 14.2171 15.8717 17.6571 15.6361C21.5434 15.3698 25.1255 16.1207 28.0483 19.0038C29.3879 17.84 30.9948 17.026 32.7257 16.6348C34.4565 16.2435 36.2573 16.2871 37.9672 16.7616C41.4193 17.6635 44.7851 18.8178 46.3443 22.6527C48.0007 22.2459 49.699 22.0342 51.4046 22.0217C56.1075 22.1353 60.7997 25.6815 61.939 30.0549C62.7736 33.2589 61.9729 36.5984 59.4457 38.0308C57.9241 38.903 56.6651 40.1683 55.8006 41.6942C55.6234 42.0013 55.5476 42.3564 55.5838 42.7091C55.6034 46.39 53.7726 49.0959 50.8837 51.1108C49.5876 52.0723 48.0511 52.6571 46.4437 52.8004C44.8363 52.9438 43.2205 52.6403 41.7748 51.9233C41.1925 51.613 40.6325 51.2628 40.0986 50.8752ZM56.3027 37.2689C57.4335 37.7378 58.0538 37.2367 58.6477 36.6778C61.113 34.3584 61.1334 30.099 58.5279 27.2977C55.358 23.8894 51.4683 22.6349 46.9122 23.9857C45.9624 24.2673 45.4252 24.1288 45.0161 23.1645C44.4904 22.0152 43.6154 21.0611 42.5157 20.4382C40.7183 19.274 38.709 18.4754 36.6028 18.0881C33.5747 17.5989 30.8153 18.1249 28.7193 20.6295C28.1532 21.3061 27.5512 21.2141 27.0639 20.5617C25.4498 18.4009 23.1187 17.5575 20.623 17.0703C16.6249 16.2898 11.5668 18.8829 11.8746 23.2611C11.9393 24.1795 11.3593 24.4582 10.4567 24.1292C10.0133 23.9558 9.54536 23.8534 9.07008 23.8258C5.67186 23.6829 3.57575 25.4277 2.22272 28.3857C0.738804 31.6298 1.44015 34.6904 4.30441 36.7786C5.06398 37.3324 5.30826 37.878 4.82494 38.7233C4.25184 39.8146 4.12548 41.086 4.47258 42.2688C5.67416 47.3481 11.7792 50.7796 16.7 49.1673C16.9979 49.0291 17.3333 48.9934 17.6536 49.0659C17.9739 49.1384 18.2612 49.3149 18.4706 49.5679C19.631 50.7978 20.0629 50.8248 21.4824 49.9309C21.958 49.6313 22.2838 49.5665 22.4472 50.2224C23.3034 53.6594 29.5945 56.6463 32.6756 55.6401C34.0503 55.2088 35.3138 54.4816 36.3773 53.5096C37.4408 52.5376 38.2784 51.3445 38.8314 50.014C39.3579 48.834 39.86 48.7013 40.7866 49.5958C41.6283 50.4241 42.6819 51.0046 43.8318 51.2735C49.573 52.6529 54.4545 46.8218 54.1073 42.608C54.0805 42.2833 53.9547 41.939 54.2893 41.6938C55.7099 40.6525 56.582 39.3318 56.3027 37.2689Z" fill="#138266"/>
<path d="M9.13625 16.6009C8.59863 18.1958 7.69267 19.2432 6.694 18.8966C5.10905 18.3465 3.32739 17.9497 2.17934 16.5853C1.97108 16.3135 1.82506 15.9993 1.75164 15.6648C1.67821 15.3304 1.67917 14.9839 1.75442 14.6498C1.82968 14.3158 1.97739 14.0024 2.18714 13.7317C2.39689 13.4611 2.66353 13.2398 2.96823 13.0836C3.3058 12.8842 3.60736 12.7694 3.77846 12.3036C3.96736 11.8056 4.28109 11.3644 4.68953 11.0224C5.09797 10.6805 5.58743 10.4492 6.11095 10.3508C6.63448 10.2523 7.17451 10.2901 7.67925 10.4604C8.18399 10.6307 8.63651 10.9279 8.99338 11.3233C9.11032 11.4993 9.26773 11.6446 9.45244 11.7472C9.63715 11.8497 9.84377 11.9065 10.0549 11.9127C11.5524 11.9245 12.7569 12.8809 12.7542 13.9509C12.7511 15.256 11.0867 16.721 9.64207 16.6827C9.47176 16.6673 9.30274 16.6399 9.13625 16.6009ZM5.35069 16.8768C5.67756 17.4357 5.97968 18.0626 6.83078 17.8859C7.12727 17.8525 7.40633 17.7287 7.63016 17.5314C7.85398 17.3341 8.01177 17.0728 8.08218 16.7828C8.23284 15.8325 8.50953 15.5723 9.52335 15.8272C10.4272 16.0545 11.0825 15.328 11.5385 14.5719C11.6838 14.3756 11.7496 14.1318 11.7228 13.8891C11.696 13.6464 11.5786 13.4228 11.3941 13.263C10.7869 12.7027 10.1413 12.3902 9.32189 12.9119C8.81669 13.2336 8.55277 12.9516 8.32979 12.4561C8.15205 12.1074 7.86368 11.8274 7.50984 11.6601C7.15599 11.4928 6.75666 11.4476 6.37436 11.5315C5.98102 11.5255 5.59859 11.6609 5.29675 11.9132C4.99491 12.1655 4.79374 12.5179 4.72992 12.906C4.66746 13.2585 4.64405 13.5722 4.15216 13.7132C2.72451 14.1225 2.23633 14.9755 2.6593 16.1273C3.03799 17.1587 4.01603 17.4424 5.35069 16.8768Z" fill="#138266"/>
<path d="M13.3685 8.79184C11.63 8.9161 11.5713 7.55796 10.9642 6.84462C10.5157 6.31771 10.8792 5.65576 11.4264 5.22853C11.6664 5.0016 11.8327 4.70776 11.9035 4.38515C12.0092 3.99011 12.2387 3.6393 12.5582 3.38414C12.8778 3.12897 13.2707 2.98286 13.6793 2.96722C14.087 2.93645 14.4944 3.03 14.8478 3.23554C15.2011 3.44108 15.4839 3.74895 15.6587 4.1185C15.8944 4.52687 16.1694 4.91127 16.4797 5.26624C17.14 6.09108 17.1387 6.94705 16.4164 7.51794C15.4318 8.29612 14.0966 8.23676 13.3685 8.79184ZM13.1599 8.11706C13.3113 8.05836 13.4879 8.04279 13.5773 7.94639C13.8204 7.69057 14.1143 7.4883 14.44 7.35249C14.7658 7.21669 15.1163 7.15034 15.4692 7.15768C15.6381 7.13602 15.7924 7.05087 15.9008 6.91954C16.0092 6.78822 16.0635 6.62055 16.0528 6.45061C16.0762 6.28445 16.0454 6.11516 15.965 5.96791C15.8845 5.82066 15.7586 5.70331 15.6061 5.63332C15.4299 5.59448 15.2715 5.4982 15.1559 5.3596C15.0402 5.221 14.9739 5.04792 14.9673 4.86755C14.9364 4.56788 14.7925 4.29122 14.565 4.09374C14.3375 3.89625 14.0434 3.79274 13.7424 3.80422C13.0538 3.81347 12.6569 4.33765 12.5277 5.02684C12.4701 5.33376 12.6689 5.77151 12.2693 5.91171C11.8375 6.0631 11.3727 6.30505 11.7559 6.69493C12.2161 7.16328 12.3665 7.97729 13.1599 8.11706Z" fill="#138266"/>
<path d="M19.9565 3.72784C18.7852 3.71488 18.0677 3.13809 18.0657 2.20791C18.1338 1.77894 18.3551 1.3892 18.6886 1.11092C19.0221 0.832642 19.4451 0.684695 19.8794 0.694488C20.3136 0.704281 20.7296 0.871154 21.0502 1.16418C21.3708 1.45721 21.5743 1.85653 21.623 2.28814C21.6062 3.22702 21.013 3.73945 19.9565 3.72784ZM19.7389 1.49974C19.2471 1.52291 18.8031 1.72029 18.846 2.23212C18.8842 2.46955 19.0111 2.68363 19.2011 2.83108C19.3911 2.97853 19.6299 3.04835 19.8694 3.02642C19.9702 3.03665 20.0721 3.02627 20.1688 2.99591C20.2655 2.96555 20.355 2.91584 20.4319 2.84981C20.5088 2.78377 20.5715 2.7028 20.6161 2.61179C20.6608 2.52079 20.6864 2.42166 20.6916 2.32044C20.7193 1.7136 20.2155 1.59377 19.7389 1.49974Z" fill="#138266"/>
</g>
<defs>
<clipPath id="clip0_281_1344">
<rect width="62.1" height="56.6273" fill="white" transform="translate(0.156982 0.695618)"/>
</clipPath>
</defs>
</svg>
