<svg width="155" height="201" viewBox="0 0 155 201" fill="none" xmlns="http://www.w3.org/2000/svg">
<path id="1" d="M12.3229 156.336H59.9664L82.9059 53.0515C80.3178 55.7785 76.5534 58.6191 71.6126 61.5733C66.9071 64.3003 61.4957 66.9136 55.3785 69.4133C49.4966 71.9131 43.7323 73.9583 38.0857 75.549C32.439 77.1398 27.3806 77.9351 22.9103 77.9351L32.439 35.3262C36.4387 35.3262 41.4972 34.0763 47.6144 31.5766C53.9668 28.8496 60.3193 25.6681 66.6718 22.0322C73.2595 18.3962 79.0238 14.8739 83.9646 11.4652C89.1407 7.82919 92.4346 4.98859 93.8462 2.94336H142.196L108.316 156.336H151.018L142.196 197.581H3.5L12.3229 156.336Z" stroke="url(#paint0_linear_2834_7329)" stroke-width="5"/>
<defs>
<linearGradient id="paint0_linear_2834_7329" x1="170.581" y1="-12.3439" x2="-0.58216" y2="201.429" gradientUnits="userSpaceOnUse">
<stop stop-color="white" stop-opacity="0"/>
<stop offset="1" stop-color="white"/>
</linearGradient>
</defs>
</svg>
