<svg width="154" height="201" viewBox="0 0 154 201" fill="none" xmlns="http://www.w3.org/2000/svg">
<g id="2">
<path d="M3.71973 197.581C5.52425 187.531 7.77991 178.486 10.4867 170.446C13.013 162.182 16.3514 154.589 20.5018 147.665C24.8327 140.742 30.156 134.265 36.4719 128.235C42.7877 122.205 50.3667 116.398 59.2089 110.815C67.5097 105.455 74.818 100.876 81.1339 97.0797C87.6302 93.0596 92.9535 89.3746 97.1039 86.0245C101.435 82.6745 104.683 79.2128 106.848 75.6394C109.014 71.8427 110.097 67.3759 110.097 62.2392C110.097 58.4425 109.375 55.0924 107.931 52.189C106.487 49.0623 104.322 46.6056 101.435 44.8189C98.728 43.0323 95.2092 42.1389 90.8783 42.1389C86.9084 42.1389 83.1189 42.8089 79.5098 44.1489C75.9008 45.4889 72.3819 47.499 68.9533 50.179C65.7052 52.6357 62.5473 55.4274 59.4796 58.5541C56.5923 61.4575 53.7051 64.5842 50.8179 67.9343L33.4944 34.7688C36.3816 31.6421 40.2614 28.2921 45.1336 24.7187C50.0058 20.9219 55.5096 17.4602 61.645 14.3335C67.9608 10.9835 74.6376 8.30343 81.6752 6.2934C88.8933 4.06004 96.3821 2.94336 104.142 2.94336C114.427 2.94336 122.999 4.95339 129.856 8.97345C136.894 12.9935 142.217 18.4652 145.826 25.3887C149.435 32.0888 151.24 40.1289 151.24 49.509C151.24 58.6658 149.886 66.8176 147.18 73.9644C144.473 81.1111 140.864 87.3645 136.352 92.7246C132.022 97.8613 127.24 102.551 122.006 106.795C116.773 111.038 111.63 114.835 106.578 118.185C103.33 120.418 99.7205 122.875 95.7505 125.555C91.961 128.235 88.0813 131.25 84.1114 134.6C80.3218 137.727 76.7128 141.189 73.2842 144.985C69.8556 148.782 67.0586 152.802 64.8932 157.046H136.082L129.044 197.581H3.71973Z" stroke="url(#paint0_linear_2834_7333)" stroke-width="5"/>
<path d="M3.71973 197.581C5.52425 187.531 7.77991 178.486 10.4867 170.446C13.013 162.182 16.3514 154.589 20.5018 147.665C24.8327 140.742 30.156 134.265 36.4719 128.235C42.7877 122.205 50.3667 116.398 59.2089 110.815C67.5097 105.455 74.818 100.876 81.1339 97.0797C87.6302 93.0596 92.9535 89.3746 97.1039 86.0245C101.435 82.6745 104.683 79.2128 106.848 75.6394C109.014 71.8427 110.097 67.3759 110.097 62.2392C110.097 58.4425 109.375 55.0924 107.931 52.189C106.487 49.0623 104.322 46.6056 101.435 44.8189C98.728 43.0323 95.2092 42.1389 90.8783 42.1389C86.9084 42.1389 83.1189 42.8089 79.5098 44.1489C75.9008 45.4889 72.3819 47.499 68.9533 50.179C65.7052 52.6357 62.5473 55.4274 59.4796 58.5541C56.5923 61.4575 53.7051 64.5842 50.8179 67.9343L33.4944 34.7688C36.3816 31.6421 40.2614 28.2921 45.1336 24.7187C50.0058 20.9219 55.5096 17.4602 61.645 14.3335C67.9608 10.9835 74.6376 8.30343 81.6752 6.2934C88.8933 4.06004 96.3821 2.94336 104.142 2.94336C114.427 2.94336 122.999 4.95339 129.856 8.97345C136.894 12.9935 142.217 18.4652 145.826 25.3887C149.435 32.0888 151.24 40.1289 151.24 49.509C151.24 58.6658 149.886 66.8176 147.18 73.9644C144.473 81.1111 140.864 87.3645 136.352 92.7246C132.022 97.8613 127.24 102.551 122.006 106.795C116.773 111.038 111.63 114.835 106.578 118.185C103.33 120.418 99.7205 122.875 95.7505 125.555C91.961 128.235 88.0813 131.25 84.1114 134.6C80.3218 137.727 76.7128 141.189 73.2842 144.985C69.8556 148.782 67.0586 152.802 64.8932 157.046H136.082L129.044 197.581H3.71973Z" stroke="url(#paint1_linear_2834_7333)" stroke-width="5"/>
</g>
<defs>
<linearGradient id="paint0_linear_2834_7333" x1="77.4797" y1="2.94336" x2="77.4797" y2="197.581" gradientUnits="userSpaceOnUse">
<stop stop-color="white" stop-opacity="0"/>
<stop offset="1" stop-color="white"/>
</linearGradient>
<linearGradient id="paint1_linear_2834_7333" x1="170.802" y1="-12.3439" x2="-0.360296" y2="201.431" gradientUnits="userSpaceOnUse">
<stop stop-color="white" stop-opacity="0"/>
<stop offset="1" stop-color="white"/>
</linearGradient>
</defs>
</svg>
