<svg width="155" height="197" viewBox="0 0 155 197" fill="none" xmlns="http://www.w3.org/2000/svg">
<g id="3">
<path d="M57.3024 193.765C44.4822 193.765 33.5938 191.57 24.6373 187.18C15.8563 182.965 9.00718 176.73 4.08984 168.476L29.1156 143.451C32.2767 149.07 36.4916 153.461 41.7601 156.622C47.0287 159.959 53.9657 161.627 62.571 161.627C70.6495 161.627 77.4108 160.398 82.855 157.939C88.2992 155.481 92.4262 151.88 95.2361 147.139C98.046 142.397 99.451 136.601 99.451 129.752C99.451 122.552 96.9045 117.02 91.8116 113.156C86.7186 109.293 78.8158 107.361 68.103 107.361H60.9904L66.5224 81.0181H74.4253C81.9769 81.0181 88.5626 79.7009 94.1824 77.0666C99.9778 74.2567 104.456 70.5687 107.617 66.0026C110.778 61.4365 112.359 56.3436 112.359 50.7238C112.359 45.2796 110.515 41.1525 106.827 38.3426C103.315 35.3571 98.3973 33.8644 92.075 33.8644C84.699 33.8644 77.5864 35.7084 70.7373 39.3964C64.0638 43.0844 58.0927 48.2651 52.8241 54.9386L35.9647 30.1764C40.5308 24.7322 46.3262 20.0783 53.351 16.2146C60.5514 12.1754 68.3664 9.01426 76.7961 6.73121C85.4015 4.44817 93.919 3.30664 102.349 3.30664C117.628 3.30664 129.657 6.81902 138.438 13.8438C147.219 20.8685 151.61 30.2642 151.61 42.0306C151.61 49.9335 149.678 57.4851 145.814 64.6855C142.126 71.8859 137.033 78.0325 130.536 83.1255C124.213 88.2184 117.189 91.4674 109.461 92.8724C117.715 94.4529 124.125 98.58 128.692 105.253C133.433 111.927 135.804 120.093 135.804 129.752C135.804 142.397 132.38 153.461 125.53 162.944C118.857 172.603 109.637 180.155 97.8704 185.599C86.1039 191.043 72.5813 193.765 57.3024 193.765Z" stroke="url(#paint0_linear_2834_7337)" stroke-width="5"/>
<path d="M57.3024 193.765C44.4822 193.765 33.5938 191.57 24.6373 187.18C15.8563 182.965 9.00718 176.73 4.08984 168.476L29.1156 143.451C32.2767 149.07 36.4916 153.461 41.7601 156.622C47.0287 159.959 53.9657 161.627 62.571 161.627C70.6495 161.627 77.4108 160.398 82.855 157.939C88.2992 155.481 92.4262 151.88 95.2361 147.139C98.046 142.397 99.451 136.601 99.451 129.752C99.451 122.552 96.9045 117.02 91.8116 113.156C86.7186 109.293 78.8158 107.361 68.103 107.361H60.9904L66.5224 81.0181H74.4253C81.9769 81.0181 88.5626 79.7009 94.1824 77.0666C99.9778 74.2567 104.456 70.5687 107.617 66.0026C110.778 61.4365 112.359 56.3436 112.359 50.7238C112.359 45.2796 110.515 41.1525 106.827 38.3426C103.315 35.3571 98.3973 33.8644 92.075 33.8644C84.699 33.8644 77.5864 35.7084 70.7373 39.3964C64.0638 43.0844 58.0927 48.2651 52.8241 54.9386L35.9647 30.1764C40.5308 24.7322 46.3262 20.0783 53.351 16.2146C60.5514 12.1754 68.3664 9.01426 76.7961 6.73121C85.4015 4.44817 93.919 3.30664 102.349 3.30664C117.628 3.30664 129.657 6.81902 138.438 13.8438C147.219 20.8685 151.61 30.2642 151.61 42.0306C151.61 49.9335 149.678 57.4851 145.814 64.6855C142.126 71.8859 137.033 78.0325 130.536 83.1255C124.213 88.2184 117.189 91.4674 109.461 92.8724C117.715 94.4529 124.125 98.58 128.692 105.253C133.433 111.927 135.804 120.093 135.804 129.752C135.804 142.397 132.38 153.461 125.53 162.944C118.857 172.603 109.637 180.155 97.8704 185.599C86.1039 191.043 72.5813 193.765 57.3024 193.765Z" stroke="url(#paint1_linear_2834_7337)" stroke-width="5"/>
</g>
<defs>
<linearGradient id="paint0_linear_2834_7337" x1="77.8498" y1="3.30664" x2="77.8498" y2="193.765" gradientUnits="userSpaceOnUse">
<stop stop-color="white" stop-opacity="0"/>
<stop offset="1" stop-color="white"/>
</linearGradient>
<linearGradient id="paint1_linear_2834_7337" x1="171.172" y1="-11.6524" x2="4.5151" y2="201.062" gradientUnits="userSpaceOnUse">
<stop stop-color="white" stop-opacity="0"/>
<stop offset="1" stop-color="white"/>
</linearGradient>
</defs>
</svg>
