<svg width="161" height="170" viewBox="0 0 161 170" fill="none" xmlns="http://www.w3.org/2000/svg">
<g id="Group">
<g id="Vector">
<path d="M104.416 53.9526C87.8832 29.6295 65.8019 16.702 54.2382 24.6229C52.9649 25.5196 51.8584 26.6324 50.969 27.9108C50.969 28.0042 24.1986 82.1801 24.1986 82.1801L9.25357 92.3054C6.95929 93.8628 4.99433 95.857 3.47095 98.174C1.94756 100.491 0.895594 103.085 0.375146 105.809C-0.145301 108.533 -0.124034 111.332 0.437733 114.048C0.999501 116.763 2.09076 119.341 3.64917 121.635L4.3217 122.625C7.47177 127.214 12.3039 130.376 17.77 131.425C23.2361 132.474 28.8955 131.326 33.5206 128.23L57.5261 163.593C61.0569 167.946 67.8382 172.28 76.2074 167.18C77.6901 166.219 78.9548 164.957 79.9201 163.477C80.8854 161.997 81.5298 160.331 81.8118 158.587C82.1499 156.852 82.1408 155.067 81.7848 153.335C81.4289 151.604 80.7333 149.96 79.7382 148.499L58.5909 117.301C58.5909 117.301 108.582 113.322 108.769 113.247C110.33 112.92 111.81 112.285 113.122 111.379C119.062 107.344 121.192 98.8812 119.137 87.5416C117.288 77.0988 112.038 65.2735 104.416 53.9526ZM9.75796 118.945L9.08544 117.955C8.01021 116.372 7.25774 114.592 6.87108 112.718C6.48442 110.844 6.47118 108.912 6.8321 107.033C7.19303 105.154 7.92104 103.364 8.97446 101.767C10.0279 100.169 11.386 98.7949 12.9712 97.7229L25.8799 88.9427L42.9173 114.032L30.0085 122.812C28.4252 123.889 26.6453 124.643 24.7704 125.031C22.8955 125.419 20.9625 125.434 19.0818 125.075C17.2012 124.716 15.4097 123.99 13.8098 122.938C12.21 121.886 10.8331 120.529 9.75796 118.945ZM74.358 152.179C75.379 153.698 75.7557 155.56 75.4055 157.357C75.0553 159.154 74.0067 160.738 72.4898 161.763C70.9677 162.785 69.1026 163.162 67.3029 162.812C65.5032 162.461 63.9156 161.413 62.8876 159.894L38.9569 124.643L48.5778 118.104L51.1184 117.899L74.358 152.179ZM49.1008 111.491L30.5316 84.1416L48.2415 48.0306C49.9602 58.1746 54.9854 70.224 63.0184 82.0493C71.0514 93.8746 80.392 102.991 89.1723 108.334L49.1008 111.491ZM104.211 107.138C95.2811 106.559 80.747 96.49 68.436 78.3504C56.125 60.2108 52.1272 43.0427 54.8734 34.5053C55.3693 32.9028 56.3589 31.498 57.7009 30.4915C59.0429 29.485 60.6686 28.9283 62.3459 28.901C71.2008 28.901 86.2767 39.0262 98.9426 57.6889C106.079 68.1878 111.272 79.1724 112.692 88.7746C115.476 107.138 104.211 107.138 104.211 107.138Z" fill="url(#paint0_linear_2834_6686)"/>
<path d="M81.0646 54.6438C78.7762 54.1944 76.4213 54.2058 74.1375 54.6774C71.8536 55.1489 69.6867 56.0711 67.7635 57.39C67.409 57.6353 67.1063 57.948 66.8726 58.3104C66.639 58.6727 66.479 59.0774 66.4018 59.5016C66.3246 59.9257 66.3317 60.3609 66.4227 60.7823C66.5137 61.2037 66.6868 61.6031 66.9321 61.9575C67.1775 62.312 67.4902 62.6148 67.8525 62.8484C68.2148 63.082 68.6196 63.242 69.0438 63.3192C69.4679 63.3964 69.9031 63.3893 70.3245 63.2983C70.7459 63.2073 71.1452 63.0342 71.4997 62.7889C72.7178 61.9621 74.0867 61.3834 75.5284 61.0857C76.9702 60.788 78.4564 60.7772 79.9023 61.0539C81.3482 61.3306 82.7254 61.8893 83.9553 62.6983C85.1853 63.5072 86.2438 64.5505 87.0706 65.7685C87.8973 66.9866 88.4761 68.3555 88.7738 69.7973C89.0715 71.239 89.0823 72.7252 88.8056 74.1711C88.5289 75.617 87.9701 76.9942 87.1612 78.2242C86.3523 79.4541 85.309 80.5127 84.0909 81.3394C83.5166 81.736 83.0843 82.3061 82.8572 82.9661C82.6302 83.6261 82.6203 84.3414 82.8291 85.0075C83.0379 85.6735 83.4543 86.2552 84.0175 86.6675C84.5807 87.0798 85.2611 87.301 85.9591 87.2988C86.625 87.3113 87.2781 87.1153 87.8272 86.7383C90.7329 84.77 92.9889 81.9835 94.3096 78.7319C95.6303 75.4803 95.9562 71.9099 95.246 68.4729C94.5358 65.0359 92.8215 61.887 90.3202 59.4252C87.8189 56.9633 84.6432 55.2993 81.1953 54.6438H81.0646ZM108.451 31.2174H108.769C109.578 31.2171 110.357 30.9171 110.958 30.3754C111.558 29.8337 111.936 29.0888 112.02 28.2845L114.541 3.77458C114.599 3.34118 114.569 2.90067 114.453 2.47911C114.337 2.05756 114.138 1.66352 113.867 1.32031C113.596 0.977103 113.259 0.691697 112.876 0.480979C112.493 0.270261 112.072 0.138512 111.637 0.0935258C111.202 0.04854 110.763 0.0912317 110.345 0.219075C109.926 0.346918 109.538 0.557316 109.203 0.83782C108.868 1.11832 108.592 1.46324 108.392 1.85215C108.193 2.24106 108.073 2.66608 108.04 3.10205L105.537 27.6306C105.448 28.4927 105.705 29.3547 106.252 30.0273C106.798 30.6998 107.589 31.1279 108.451 31.2174ZM150.709 26.1735C150.229 25.4499 149.482 24.9456 148.631 24.7706C147.781 24.5956 146.896 24.7641 146.169 25.2394L123.396 40.1845C122.805 40.5749 122.357 41.1469 122.119 41.8143C121.881 42.4818 121.866 43.2085 122.077 43.885C122.287 44.5615 122.712 45.1513 123.287 45.5654C123.862 45.9795 124.556 46.1956 125.265 46.1812C125.925 46.1964 126.576 46.0143 127.133 45.6581L149.905 30.713C150.612 30.216 151.093 29.4595 151.243 28.609C151.394 27.7584 151.202 26.8828 150.709 26.1735ZM157.677 66.0768L131.187 61.313C130.332 61.1595 129.451 61.3517 128.738 61.8474C128.025 62.3431 127.538 63.1018 127.385 63.9564C127.231 64.8111 127.424 65.6918 127.919 66.4047C128.415 67.1177 129.174 67.6045 130.028 67.7581L156.5 72.5218H157.079C157.912 72.5462 158.723 72.2515 159.346 71.6981C159.969 71.1446 160.357 70.3741 160.431 69.5441C160.505 68.714 160.259 67.8871 159.743 67.2322C159.228 66.5774 158.482 66.144 157.658 66.0207L157.677 66.0768Z" fill="url(#paint1_linear_2834_6686)"/>
</g>
</g>
<defs>
<linearGradient id="paint0_linear_2834_6686" x1="181.72" y1="-13.2297" x2="43.0139" y2="203.242" gradientUnits="userSpaceOnUse">
<stop stop-color="white" stop-opacity="0"/>
<stop offset="1" stop-color="white"/>
</linearGradient>
<linearGradient id="paint1_linear_2834_6686" x1="172.921" y1="-6.77454" x2="69.4708" y2="183.193" gradientUnits="userSpaceOnUse">
<stop stop-color="white" stop-opacity="0"/>
<stop offset="1" stop-color="white"/>
</linearGradient>
</defs>
</svg>
