<svg width="110" height="111" viewBox="0 0 110 111" fill="none" xmlns="http://www.w3.org/2000/svg">
<g id="Frame" clip-path="url(#clip0_2834_7025)">
<g id="Group">
<path id="Vector" d="M96.6465 52.7358L92.2722 50.8548V47.8638C92.3335 29.506 80.7506 13.1269 63.4213 7.06898V2.85352C63.4213 1.60234 62.4059 0.586914 61.1555 0.586914H36.905C35.6544 0.586914 34.6389 1.60234 34.6389 2.85352V7.0912C17.3097 13.1493 5.72676 29.5284 5.78811 47.886V50.9L1.4592 52.7358C1.04928 52.9091 0.699517 53.1993 0.453623 53.5702C0.207729 53.9411 0.0766121 54.3763 0.0766602 54.8213V66.7199C0.0766602 67.9705 1.09208 68.9859 2.34327 68.9859H5.28964V73.5191C5.28964 74.7697 6.30428 75.7851 7.55566 75.7851H15.6922C16.465 78.6233 17.5999 81.3502 19.0688 83.8987L13.3125 89.6555C12.433 90.5388 12.433 91.9668 13.3125 92.8509L22.9445 102.483C23.828 103.362 25.2557 103.362 26.1398 102.483L31.8961 96.7267C34.4372 98.1944 37.1566 99.3293 39.9872 100.103V108.24C39.9872 109.49 41.0026 110.506 42.254 110.506H55.8517C57.1029 110.506 58.1183 109.49 58.1183 108.24V100.103C60.9568 99.3313 63.6838 98.1964 66.2318 96.7267L71.9887 102.483C72.8722 103.362 74.3 103.362 75.184 102.483L84.8162 92.8509C85.6955 91.9668 85.6955 90.5388 84.8162 89.6555L79.0591 83.8987C80.5283 81.3503 81.6635 78.6233 82.4365 75.7851H90.5723C91.8237 75.7851 92.8391 74.7697 92.8391 73.5191V68.9859H95.7855C97.0366 68.9859 98.0513 67.9705 98.0513 66.7199V54.8211C98.0491 54.3737 97.9146 53.9369 97.6646 53.5658C97.4146 53.1947 97.0604 52.9059 96.6465 52.7358ZM39.1261 5.14255H58.8887V43.0132H39.1716L39.1261 5.14255ZM88.3287 71.2525H80.782C79.6944 71.2271 78.7443 71.9801 78.5154 73.0423C77.7522 76.5912 76.3467 79.9707 74.3684 83.0142C73.7854 83.9099 73.9106 85.0905 74.6626 85.8471L80.0793 91.2638L73.5972 97.7005L68.1805 92.2838C67.424 91.5318 66.2435 91.4068 65.3478 91.9896C62.3039 93.9677 58.9244 95.3731 55.3755 96.1366C54.86 96.2473 54.3993 96.5342 54.0725 96.9479C53.7458 97.3615 53.5734 97.8762 53.5851 98.4032V106.041H44.5198V98.3348C44.5452 97.2474 43.7923 96.2979 42.7295 96.069C39.1801 95.3072 35.8005 93.9014 32.7579 91.9212C31.8623 91.3391 30.6817 91.4634 29.9244 92.2161L24.5077 97.6328L18.0939 91.2186L23.5106 85.8017C23.8763 85.4344 24.105 84.9529 24.1587 84.4375C24.2123 83.922 24.0877 83.4037 23.8056 82.969C21.8088 79.9437 20.3804 76.5797 19.5903 73.0421C19.3606 71.9797 18.4113 71.2271 17.3237 71.2523H9.77685V68.9857H30.4913C31.7335 79.2253 41.0414 86.5184 51.2809 85.2741C59.8115 84.2387 66.5355 77.5161 67.5694 68.9857H88.3064L88.3287 71.2525ZM35.1144 68.9859H63.0135C61.7669 76.6959 54.5051 81.9361 46.7957 80.6896C40.7806 79.717 36.0645 75.001 35.092 68.9859H35.1144ZM93.5418 64.4533H4.58667V56.3167L8.96022 54.4357C9.3703 54.2627 9.72022 53.9725 9.96618 53.6015C10.2121 53.2306 10.3432 52.7953 10.343 52.3502V47.8178C10.293 31.9891 19.9297 17.7433 34.6389 11.8956V45.2796C34.6389 46.5302 35.6536 47.5456 36.905 47.5456H61.1998C62.4512 47.5456 63.4666 46.53 63.4666 45.2796V11.8958C78.2004 17.7409 87.8485 32.0146 87.7846 47.863V52.3962C87.7846 53.3051 88.3285 54.1276 89.1673 54.4809L93.5409 56.362V64.4533H93.5418Z" fill="white"/>
</g>
</g>
<defs>
<clipPath id="clip0_2834_7025">
<rect width="110" height="110" fill="white" transform="translate(0 0.586914)"/>
</clipPath>
</defs>
</svg>
