<svg width="110" height="111" viewBox="0 0 110 111" fill="none" xmlns="http://www.w3.org/2000/svg">
<g id="Frame">
<g id="Group">
<path id="Vector" d="M55.5269 25.8566C55.0242 25.7376 54.496 25.7918 54.028 26.0106C53.56 26.2294 53.1797 26.5999 52.9487 27.0621L36.4487 60.062C36.2737 60.4124 36.1913 60.8018 36.2095 61.193C36.2277 61.5842 36.3459 61.9642 36.5527 62.2968C36.7596 62.6294 37.0482 62.9034 37.3911 63.0927C37.7339 63.282 38.1196 63.3802 38.5112 63.3781H52.7081V83.0864C52.7082 83.6025 52.8825 84.1034 53.2027 84.5081C53.523 84.9128 53.9705 85.1975 54.4727 85.3162C54.9754 85.4353 55.5036 85.381 55.9716 85.1622C56.4395 84.9434 56.8199 84.5729 57.0508 84.1108L73.5508 51.1108C73.7255 50.7613 73.8079 50.373 73.7902 49.9827C73.7725 49.5925 73.6553 49.2132 73.4498 48.8809C73.2443 48.5487 72.9573 48.2745 72.616 48.0844C72.2747 47.8943 71.8905 47.7946 71.4998 47.7948H57.2915V28.0864C57.2914 27.5704 57.1171 27.0694 56.7968 26.6647C56.4766 26.2601 56.0291 25.9753 55.5269 25.8566ZM67.7919 52.3781L57.2915 73.3789V61.0864C57.2915 60.4786 57.05 59.8957 56.6202 59.466C56.1905 59.0362 55.6076 58.7948 54.9998 58.7948H42.2077L52.7081 37.7939V50.0864C52.7081 50.6942 52.9496 51.2771 53.3793 51.7069C53.8091 52.1366 54.392 52.3781 54.9998 52.3781H67.7919Z" fill="white"/>
<path id="Vector_2" d="M54.9999 5.16993C42.2387 5.16447 29.9518 10.0063 20.6249 18.716V16.6283C20.6249 16.0205 20.3835 15.4376 19.9537 15.0078C19.5239 14.578 18.941 14.3366 18.3332 14.3366C17.7255 14.3366 17.1426 14.578 16.7128 15.0078C16.283 15.4376 16.0416 16.0205 16.0416 16.6283V25.7949C16.0447 26.1422 16.1261 26.4844 16.2798 26.7958C16.4336 27.1073 16.6556 27.38 16.9295 27.5937C17.2033 27.8074 17.5218 27.9565 17.8613 28.03C18.2008 28.1034 18.5525 28.0993 18.8901 28.0178L28.0568 25.7262C28.3506 25.6548 28.6273 25.526 28.8711 25.3472C29.1149 25.1684 29.3209 24.9431 29.4772 24.6844C29.6336 24.4256 29.7372 24.1385 29.782 23.8395C29.8269 23.5406 29.8122 23.2357 29.7388 22.9424C29.6653 22.6491 29.5345 22.3733 29.354 22.1308C29.1735 21.8883 28.9467 21.6839 28.6869 21.5294C28.427 21.3749 28.1391 21.2734 27.8398 21.2306C27.5405 21.1879 27.2358 21.2048 26.943 21.2803L23.7347 22.0824C31.381 14.9391 41.2413 10.6272 51.6772 9.86327C62.1131 9.0993 72.4963 11.9293 81.1013 17.8829C89.7064 23.8365 96.0152 32.5553 98.9794 42.5905C101.944 52.6257 101.385 63.3731 97.3957 73.0468C97.1681 73.6071 97.1711 74.2347 97.4042 74.7927C97.6373 75.3508 98.0816 75.7941 98.6401 76.026C98.9168 76.1412 99.2135 76.2004 99.5132 76.2001C99.9674 76.2003 100.411 76.0656 100.789 75.813C101.166 75.5605 101.46 75.2015 101.633 74.7816C104.78 67.1219 105.992 58.8054 105.163 50.5662C104.335 42.327 101.49 34.4185 96.8817 27.5388C92.273 20.6591 86.0414 15.0198 78.7372 11.1186C71.433 7.21747 63.2807 5.17445 54.9999 5.16993ZM91.1097 83.1553L81.943 85.447C81.3573 85.5982 80.8551 85.9749 80.5459 86.4949C80.2368 87.0149 80.1458 87.636 80.2928 88.2228C80.4398 88.8097 80.8129 89.3145 81.3307 89.6274C81.8485 89.9402 82.4689 90.0357 83.0568 89.8928L86.2651 89.0908C78.6189 96.2341 68.7585 100.546 58.3226 101.31C47.8867 102.074 37.5035 99.2439 28.8985 93.2903C20.2935 87.3367 13.9847 78.6179 11.0204 68.5826C8.05623 58.5474 8.61506 47.8001 12.6041 38.1264C12.8273 37.5661 12.8206 36.9404 12.5856 36.385C12.3505 35.8296 11.9059 35.3892 11.3483 35.1594C10.7907 34.9296 10.165 34.9289 9.60684 35.1574C9.0487 35.3859 8.60313 35.8253 8.36678 36.3801C3.9804 47.019 3.36557 58.8383 6.62441 69.8749C9.88325 80.9115 16.8196 90.5011 26.2814 97.051C35.7433 103.601 47.161 106.717 58.6383 105.881C70.1156 105.045 80.9616 100.309 89.3749 92.4572V94.5449C89.3749 95.1527 89.6163 95.7356 90.0461 96.1654C90.4759 96.5951 91.0588 96.8366 91.6666 96.8366C92.2744 96.8366 92.8573 96.5951 93.287 96.1654C93.7168 95.7356 93.9582 95.1527 93.9582 94.5449V85.3783C93.9556 85.0308 93.8744 84.6884 93.7208 84.3767C93.5672 84.0651 93.3452 83.7921 93.0712 83.5784C92.7973 83.3646 92.4786 83.2155 92.1389 83.1422C91.7992 83.069 91.4474 83.0735 91.1097 83.1553Z" fill="white"/>
</g>
</g>
</svg>
