<svg width="110" height="111" viewBox="0 0 110 111" fill="none" xmlns="http://www.w3.org/2000/svg">
<g id="Frame">
<g id="Group">
<path id="Vector" d="M24.2003 94.2441C23.2575 94.2441 22.6289 94.8727 22.6289 95.8156C22.6289 96.7584 23.2575 97.387 24.2003 97.387H37.4003C38.3432 97.387 38.9718 96.7584 38.9718 95.8156C38.9718 94.8727 38.3432 94.2441 37.4003 94.2441H24.2003Z" fill="white"/>
<path id="Vector_2" d="M91.7716 80.8866L90.0431 80.2581C91.9288 77.1152 93.0288 74.4438 97.1145 73.1866C105.914 70.8295 109.843 59.9866 104.186 52.4438C103.557 51.5009 102.143 51.6581 101.514 52.6009L97.5859 59.2009L92.8716 56.3723L96.8002 49.7723C97.4288 48.8295 96.8002 47.5723 95.7002 47.4152C86.2716 45.8438 78.7288 54.3295 80.7716 63.2866C81.2431 65.4866 80.9288 67.8438 79.8288 69.7295L76.6859 75.0723L75.7431 74.7581C71.0288 73.0295 67.8859 68.4724 67.8859 63.4438V62.1866C72.7574 56.8438 76.0574 48.3581 76.8431 38.6152H78.5716C81.4002 38.6152 83.6002 36.4152 83.6002 33.5866C83.6002 31.0723 81.7145 29.0295 79.2002 28.5581C79.0431 19.4438 73.5431 11.2723 65.0574 7.50092C64.7431 5.14378 62.8574 3.72949 60.9716 3.72949H49.1859C47.1431 3.72949 45.2574 5.14378 45.1002 7.50092C36.6145 11.2723 31.1145 19.4438 30.8002 28.7152C28.2859 29.0295 26.4002 31.0723 26.4002 33.7438C26.4002 36.5723 28.6002 38.7723 31.4288 38.7723H33.3145C34.1002 48.6723 37.4002 57.0009 42.2716 62.3438V63.6009C42.2716 67.2152 40.5431 70.6723 37.8716 72.8723V72.7152C37.8716 72.0866 37.4002 71.4581 36.7716 71.3009L34.2574 70.3581C33.9431 69.7295 33.7859 69.1009 33.4716 68.4724L34.5716 66.1152C34.8859 65.4866 34.7288 64.8581 34.2574 64.3866L31.1145 61.2438C30.6431 60.7723 29.8574 60.6152 29.3859 60.9295L26.8716 61.8723C26.2431 61.5581 25.6145 61.4009 24.9859 61.0866L24.0431 58.5723C23.8859 57.9438 23.2574 57.4724 22.6288 57.4724H18.2288C17.6002 57.4724 16.9716 57.9438 16.8145 58.5723L15.8716 61.0866C15.2431 61.4009 14.6145 61.5581 13.9859 61.8723L11.6288 60.7723C11.0002 60.4581 10.3716 60.6152 9.90021 61.0866L6.75735 64.2295C6.28592 64.7009 6.12878 65.4866 6.44307 65.9581L7.54307 68.3152C7.22878 68.9438 7.07164 69.5723 6.75735 70.2009L4.24307 71.1438C3.6145 71.4581 3.14307 72.0866 3.14307 72.7152V77.1152C3.14307 77.7438 3.6145 78.3723 4.24307 78.5295L6.75735 79.4724C7.07164 80.1009 7.22878 80.7295 7.54307 81.3581L6.28592 83.7152C5.97164 84.3438 6.12878 84.9724 6.60021 85.4438L9.27164 88.1152C7.70021 90.7866 6.75735 93.9295 6.75735 97.2295V105.872C6.75735 106.815 7.38592 107.444 8.32878 107.444H101.672C102.614 107.444 103.243 106.815 103.243 105.872V97.3866C103.243 90.0009 98.6859 83.5581 91.7716 80.8866ZM83.9145 62.8152C82.6574 56.8438 86.9002 51.0295 92.8716 50.5581L89.4145 56.3723C88.9431 57.1581 89.2574 58.1009 89.8859 58.5723L97.2716 62.9724C98.0574 63.4438 99.0002 63.1295 99.4716 62.5009L102.929 56.6866C105.286 62.1866 102.3 68.7866 96.3288 70.3581C90.9859 71.9295 89.4145 75.3866 87.0574 79.3152L79.5145 76.4866C82.5002 71.4581 85.1716 68.3152 83.9145 62.8152ZM64.7431 10.8009C71.5002 14.2581 75.7431 21.0152 76.2145 28.7152H62.3859L64.7431 10.8009ZM49.0288 6.87235H60.8145C61.4431 6.87235 61.9145 7.50092 61.9145 8.12949L59.2431 28.7152H50.7574L48.0859 8.12949C47.9288 7.50092 48.4002 6.87235 49.0288 6.87235ZM45.2574 10.8009L47.6145 28.7152H33.7859C34.1002 21.0152 38.5002 14.2581 45.2574 10.8009ZM31.4288 35.6295C30.3288 35.6295 29.5431 34.8438 29.5431 33.7438C29.5431 32.6438 30.3288 31.8581 31.4288 31.8581H78.5716C79.6716 31.8581 80.4574 32.6438 80.4574 33.7438C80.4574 34.8438 79.6716 35.6295 78.5716 35.6295H31.4288ZM36.4574 38.7723H73.7002C72.2859 53.8581 64.4288 65.4866 55.0002 65.4866C45.5716 65.4866 37.7145 53.8581 36.4574 38.7723ZM10.6859 80.8866C10.2145 79.6295 9.90021 79.0009 9.42878 77.7438C9.27164 77.2723 8.95735 76.9581 8.48592 76.8009L6.28592 76.0152V73.8152L8.48592 73.0295C8.95735 72.8723 9.27164 72.5581 9.42878 72.0866C11.3145 67.6866 11.3145 68.7866 9.74307 65.6438L11.3145 64.0723L13.2002 65.0152C13.6716 65.1723 13.9859 65.1723 14.4574 65.0152C15.7145 64.5438 16.3431 64.2295 17.6002 63.7581C18.0716 63.6009 18.3859 63.2866 18.5431 62.8152L19.3288 60.6152H21.5288L22.3145 62.8152C22.4716 63.2866 22.7859 63.6009 23.2574 63.7581C24.5145 64.2295 25.1431 64.5438 26.4002 65.0152C26.8716 65.1723 27.3431 65.1723 27.6574 65.0152L29.7002 64.0723L31.2716 65.6438L30.3288 67.6866C30.1716 68.1581 30.1716 68.4724 30.3288 68.9438C32.2145 73.3438 31.4288 72.5581 34.7288 73.8152V74.7581C33.4716 75.2295 37.2431 73.8152 28.7574 76.9581C30.1716 71.4581 26.0859 66.2723 20.5859 66.2723C12.2574 66.2723 8.80021 77.2723 16.0288 81.8295C14.3002 82.7723 12.8859 84.0295 11.4716 85.4438L11.3145 85.6009L9.74307 84.0295L10.6859 81.9866C10.8431 81.6723 10.8431 81.2009 10.6859 80.8866ZM24.0431 78.6866L20.1145 80.1009C18.7527 80.0207 17.4731 79.4225 16.5381 78.4291C15.6031 77.4357 15.0836 76.1223 15.0859 74.7581C15.0859 71.7723 17.4431 69.4152 20.4288 69.4152C25.1431 69.5723 27.6574 75.3866 24.0431 78.6866ZM53.4288 104.301H9.90021V97.3866C9.90021 91.4152 13.6716 86.0723 19.1716 83.8723C35.8288 77.7438 35.9859 77.7438 37.7145 76.6438L53.2716 92.2009V104.301H53.4288ZM40.3859 74.7581C43.0574 72.2438 44.7859 68.7866 45.2574 65.1723C51.3859 69.8866 58.7716 69.8866 64.9002 65.1723C65.2145 68.9438 67.1002 72.2438 69.7716 74.7581L55.0002 89.3723L40.3859 74.7581ZM100.1 104.301H56.5716V92.2009L72.1288 76.6438C73.7002 77.5866 73.0716 77.2723 90.6716 83.8723C96.3288 85.9152 99.9431 91.4152 99.9431 97.3866V104.301H100.1Z" fill="white"/>
</g>
</g>
</svg>
